G04*
G04 #@! TF.GenerationSoftware,Altium Limited,Altium Designer,19.1.8 (144)*
G04*
G04 Layer_Physical_Order=2*
G04 Layer_Color=16711680*
%FSLAX44Y44*%
%MOMM*%
G71*
G01*
G75*
%ADD12C,0.2540*%
%ADD19R,0.7620X0.7620*%
%ADD67C,0.1270*%
%ADD69C,1.0000*%
%ADD70C,0.8000*%
%ADD71R,1.5240X1.7780*%
%ADD72O,1.5240X1.7780*%
%ADD73C,3.0000*%
%ADD74O,1.8000X2.5000*%
%ADD75R,1.8000X2.5000*%
%ADD76C,2.0000*%
%ADD77O,1.7780X1.5240*%
%ADD78R,1.7780X1.5240*%
%ADD79C,1.3000*%
%ADD80C,0.6000*%
%ADD81C,0.6096*%
%ADD82C,1.8000*%
%ADD83C,1.6000*%
%ADD84R,2.0000X2.5400*%
%ADD85O,1.3240X0.3080*%
%ADD86R,3.5000X3.0000*%
%ADD87R,1.0000X0.8000*%
%ADD88R,1.0000X0.8000*%
%ADD89C,1.5000*%
%ADD90C,0.6000*%
G36*
X826040Y890444D02*
X826160Y889079D01*
X826360Y887874D01*
X826640Y886830D01*
X827000Y885947D01*
X827440Y885224D01*
X827960Y884662D01*
X828560Y884260D01*
X829240Y884019D01*
X830000Y883939D01*
X814000D01*
X814760Y884019D01*
X815440Y884260D01*
X816040Y884662D01*
X816560Y885224D01*
X817000Y885947D01*
X817360Y886830D01*
X817640Y887874D01*
X817840Y889079D01*
X817960Y890444D01*
X818000Y891970D01*
X826000D01*
X826040Y890444D01*
D02*
G37*
G36*
X774292Y859398D02*
X774077Y859312D01*
X773888Y859170D01*
X773724Y858970D01*
X773585Y858713D01*
X773472Y858399D01*
X773383Y858028D01*
X773320Y857600D01*
X773283Y857114D01*
X773270Y856572D01*
X770730D01*
X770717Y857114D01*
X770680Y857600D01*
X770617Y858028D01*
X770528Y858399D01*
X770415Y858713D01*
X770276Y858970D01*
X770112Y859170D01*
X769923Y859312D01*
X769708Y859398D01*
X769469Y859427D01*
X774531D01*
X774292Y859398D01*
D02*
G37*
G36*
X749292D02*
X749077Y859312D01*
X748888Y859170D01*
X748724Y858970D01*
X748585Y858713D01*
X748472Y858399D01*
X748383Y858028D01*
X748320Y857600D01*
X748283Y857114D01*
X748270Y856572D01*
X745730D01*
X745717Y857114D01*
X745680Y857600D01*
X745617Y858028D01*
X745528Y858399D01*
X745415Y858713D01*
X745276Y858970D01*
X745112Y859170D01*
X744923Y859312D01*
X744708Y859398D01*
X744469Y859427D01*
X749531D01*
X749292Y859398D01*
D02*
G37*
G36*
X951915Y939278D02*
X949710Y937927D01*
X945591Y934409D01*
X942073Y930290D01*
X939243Y925671D01*
X937170Y920667D01*
X935906Y915400D01*
X935481Y910000D01*
X935906Y904600D01*
X937170Y899333D01*
X939243Y894329D01*
X942073Y889710D01*
X945591Y885591D01*
X949710Y882073D01*
X954329Y879243D01*
X959333Y877170D01*
X964600Y875906D01*
X970000Y875481D01*
X975400Y875906D01*
X980667Y877170D01*
X985671Y879243D01*
X990290Y882073D01*
X994409Y885591D01*
X997927Y889710D01*
X999528Y892323D01*
X1000750Y891978D01*
Y468022D01*
X999528Y467677D01*
X997927Y470290D01*
X994409Y474409D01*
X990290Y477927D01*
X985671Y480757D01*
X980667Y482830D01*
X975400Y484094D01*
X970000Y484519D01*
X964600Y484094D01*
X959333Y482830D01*
X955105Y481078D01*
X954385Y482155D01*
X964410Y492180D01*
X984890D01*
Y502756D01*
X986057Y502775D01*
X986296Y502879D01*
X987733Y503068D01*
X989319Y503725D01*
X990681Y504770D01*
X995367Y509456D01*
X995367Y509456D01*
X996412Y510818D01*
X997069Y512404D01*
X997293Y514106D01*
Y664533D01*
X997069Y666235D01*
X996412Y667821D01*
X995367Y669183D01*
X995367Y669183D01*
X988576Y675974D01*
Y743300D01*
X996600D01*
Y770540D01*
X976120D01*
X964826Y781834D01*
Y797500D01*
X964602Y799202D01*
X963945Y800788D01*
X962900Y802150D01*
X961538Y803195D01*
X960548Y803605D01*
X960801Y804875D01*
X967077D01*
X967171Y804165D01*
X968543Y800851D01*
X970726Y798006D01*
X973571Y795823D01*
X976885Y794451D01*
X980440Y793982D01*
X982980D01*
X986535Y794451D01*
X989849Y795823D01*
X992694Y798006D01*
X994877Y800851D01*
X996249Y804165D01*
X996718Y807720D01*
X996249Y811275D01*
X994877Y814589D01*
X992694Y817434D01*
X989849Y819617D01*
X989443Y819785D01*
Y821055D01*
X989849Y821223D01*
X992694Y823406D01*
X994877Y826251D01*
X996249Y829565D01*
X996718Y833120D01*
X996249Y836675D01*
X994877Y839989D01*
X992694Y842834D01*
X989849Y845017D01*
X986535Y846389D01*
X982980Y846858D01*
X980440D01*
X976885Y846389D01*
X973571Y845017D01*
X970726Y842834D01*
X968543Y839989D01*
X967171Y836675D01*
X966702Y833120D01*
X967171Y829565D01*
X968378Y826650D01*
X962822Y821095D01*
X934343D01*
X933254Y820878D01*
X932332Y820262D01*
X887165Y775095D01*
X861285D01*
X861009Y775509D01*
X859514Y776508D01*
X857750Y776859D01*
X855986Y776508D01*
X854615Y775591D01*
X854040Y775733D01*
X853345Y776079D01*
Y791322D01*
X889678Y827655D01*
X931965D01*
X932241Y827241D01*
X933736Y826242D01*
X935500Y825891D01*
X937264Y826242D01*
X938759Y827241D01*
X939758Y828736D01*
X940109Y830500D01*
X939758Y832264D01*
X938759Y833759D01*
X937264Y834758D01*
X935500Y835108D01*
X933736Y834758D01*
X932241Y833759D01*
X931965Y833345D01*
X888500D01*
X887411Y833128D01*
X886488Y832512D01*
X857075Y803098D01*
X855904Y803723D01*
X856108Y804750D01*
X855758Y806514D01*
X854759Y808009D01*
X853264Y809008D01*
X851500Y809359D01*
X849736Y809008D01*
X848241Y808009D01*
X847242Y806514D01*
X846417Y805949D01*
X846356Y805908D01*
X838064D01*
X836975Y805692D01*
X836052Y805075D01*
X816739Y785761D01*
X816122Y784839D01*
X815905Y783750D01*
Y732785D01*
X815491Y732509D01*
X814492Y731014D01*
X814141Y729250D01*
X814492Y727486D01*
X815491Y725991D01*
X816986Y724992D01*
X818750Y724641D01*
X820514Y724992D01*
X822009Y725991D01*
X823008Y727486D01*
X823359Y729250D01*
X823008Y731014D01*
X822009Y732509D01*
X821595Y732785D01*
Y782572D01*
X839242Y800219D01*
X847071D01*
X847250Y800149D01*
X850728Y800214D01*
X850739Y800219D01*
X850750D01*
X850930Y800255D01*
X851500Y800142D01*
X852527Y800346D01*
X853152Y799175D01*
X848488Y794511D01*
X847872Y793589D01*
X847655Y792500D01*
Y753285D01*
X847241Y753009D01*
X846242Y751514D01*
X845891Y749750D01*
X846242Y747986D01*
X847241Y746491D01*
X848736Y745492D01*
X850500Y745142D01*
X852264Y745492D01*
X853759Y746491D01*
X854758Y747986D01*
X855109Y749750D01*
X854758Y751514D01*
X853759Y753009D01*
X853345Y753285D01*
Y768421D01*
X854040Y768767D01*
X854615Y768909D01*
X855986Y767992D01*
X857750Y767641D01*
X858207Y767732D01*
X858486Y766508D01*
X856991Y765509D01*
X855992Y764014D01*
X855641Y762250D01*
X855992Y760486D01*
X856991Y758991D01*
X858486Y757992D01*
X860250Y757642D01*
X862014Y757992D01*
X863509Y758991D01*
X864508Y760486D01*
X864858Y762250D01*
X864761Y762738D01*
X866928Y764905D01*
X890750D01*
X891839Y765122D01*
X892762Y765739D01*
X931898Y804875D01*
X955699D01*
X955952Y803605D01*
X954962Y803195D01*
X953600Y802150D01*
X952555Y800788D01*
X951898Y799202D01*
X951674Y797500D01*
Y779110D01*
X951674Y779110D01*
X951898Y777408D01*
X952555Y775822D01*
X953600Y774460D01*
X966820Y761240D01*
Y743300D01*
X975424D01*
Y673250D01*
X975424Y673250D01*
X975648Y671548D01*
X976305Y669962D01*
X977350Y668600D01*
X984141Y661809D01*
Y615086D01*
X982871Y614655D01*
X980984Y617114D01*
X978139Y619297D01*
X974826Y620669D01*
X971270Y621138D01*
X968730D01*
X965174Y620669D01*
X961861Y619297D01*
X959016Y617114D01*
X956833Y614269D01*
X955461Y610956D01*
X954993Y607400D01*
X955461Y603844D01*
X956833Y600531D01*
X959016Y597686D01*
X961861Y595503D01*
X962267Y595335D01*
Y594065D01*
X961861Y593897D01*
X959016Y591714D01*
X956833Y588869D01*
X955461Y585555D01*
X955285Y584220D01*
X937693D01*
X936514Y585008D01*
X934750Y585359D01*
X932986Y585008D01*
X931491Y584009D01*
X930492Y582514D01*
X930141Y580750D01*
X930492Y578986D01*
X931491Y577491D01*
X932986Y576492D01*
X934750Y576141D01*
X936514Y576492D01*
X938009Y577491D01*
X938703Y578530D01*
X955449D01*
X955461Y578445D01*
X956833Y575131D01*
X959016Y572286D01*
X961861Y570103D01*
X962267Y569935D01*
Y568665D01*
X961861Y568497D01*
X959016Y566314D01*
X956833Y563469D01*
X955461Y560155D01*
X954993Y556600D01*
X955461Y553045D01*
X956833Y549731D01*
X959016Y546886D01*
X961861Y544703D01*
X965174Y543331D01*
X968730Y542863D01*
X971270D01*
X974826Y543331D01*
X978139Y544703D01*
X980984Y546886D01*
X982871Y549345D01*
X984141Y548914D01*
Y519420D01*
X955110D01*
Y501480D01*
X910956Y457326D01*
X891224D01*
X882198Y466352D01*
X880836Y467397D01*
X879250Y468054D01*
X877548Y468278D01*
X877548Y468278D01*
X874576D01*
Y503712D01*
X874869Y503833D01*
X877714Y506016D01*
X879897Y508861D01*
X880065Y509267D01*
X881335D01*
X881503Y508861D01*
X883686Y506016D01*
X886531Y503833D01*
X889844Y502461D01*
X893400Y501992D01*
X896955Y502461D01*
X900269Y503833D01*
X903114Y506016D01*
X905297Y508861D01*
X906669Y512174D01*
X906930Y514155D01*
X921000D01*
X922089Y514372D01*
X923011Y514989D01*
X925761Y517738D01*
X926378Y518661D01*
X926595Y519750D01*
Y671000D01*
X926378Y672089D01*
X926180Y672384D01*
X926222Y672639D01*
X926777Y673744D01*
X927823Y673882D01*
X930864Y675141D01*
X933475Y677145D01*
X935479Y679756D01*
X936738Y682797D01*
X937168Y686060D01*
X936738Y689323D01*
X935479Y692364D01*
X933475Y694975D01*
X930864Y696979D01*
X927823Y698238D01*
X924560Y698668D01*
X921297Y698238D01*
X918256Y696979D01*
X915645Y694975D01*
X913641Y692364D01*
X912382Y689323D01*
X912228Y688156D01*
X911025Y687747D01*
X902011Y696761D01*
X901089Y697378D01*
X900000Y697595D01*
X825785D01*
X825509Y698009D01*
X824014Y699008D01*
X822250Y699359D01*
X820486Y699008D01*
X818991Y698009D01*
X818635Y697476D01*
X817365D01*
X817009Y698009D01*
X815514Y699008D01*
X813750Y699359D01*
X811986Y699008D01*
X810491Y698009D01*
X809492Y696514D01*
X809141Y694750D01*
X809492Y692986D01*
X810491Y691491D01*
X811986Y690492D01*
X813544Y690182D01*
X816778Y686948D01*
X817701Y686332D01*
X818789Y686115D01*
X893112D01*
X916845Y662382D01*
Y560618D01*
X914822Y558595D01*
X906963D01*
X906669Y560826D01*
X905297Y564139D01*
X903114Y566984D01*
X900269Y569167D01*
X896955Y570539D01*
X893400Y571007D01*
X889844Y570539D01*
X886531Y569167D01*
X883686Y566984D01*
X881503Y564139D01*
X881335Y563733D01*
X880065D01*
X879897Y564139D01*
X877714Y566984D01*
X874869Y569167D01*
X873149Y569879D01*
X872967Y571266D01*
X872310Y572852D01*
X871265Y574214D01*
X871265Y574214D01*
X866579Y578900D01*
X865217Y579945D01*
X863631Y580602D01*
X861928Y580826D01*
X861928Y580826D01*
X856341D01*
X856258Y582096D01*
X858266Y582361D01*
X861579Y583733D01*
X864424Y585916D01*
X865287Y587041D01*
X866490Y586633D01*
Y582010D01*
X893730D01*
Y593905D01*
X901500D01*
X902589Y594122D01*
X903512Y594739D01*
X908011Y599239D01*
X908628Y600161D01*
X908845Y601250D01*
Y636750D01*
X908628Y637839D01*
X908011Y638761D01*
X893595Y653178D01*
Y665382D01*
X893759Y665491D01*
X894758Y666986D01*
X895108Y668750D01*
X894758Y670514D01*
X893759Y672009D01*
X892264Y673008D01*
X890500Y673359D01*
X888736Y673008D01*
X887241Y672009D01*
X886242Y670514D01*
X885891Y668750D01*
X886242Y666986D01*
X887241Y665491D01*
X887905Y665048D01*
Y652000D01*
X888122Y650911D01*
X888738Y649988D01*
X903155Y635572D01*
Y602428D01*
X900322Y599595D01*
X893730D01*
Y611790D01*
X866490D01*
Y607167D01*
X865287Y606759D01*
X864424Y607884D01*
X861579Y610067D01*
X858266Y611439D01*
X854710Y611908D01*
X851154Y611439D01*
X847841Y610067D01*
X844996Y607884D01*
X842813Y605039D01*
X842645Y604633D01*
X841375D01*
X841207Y605039D01*
X839024Y607884D01*
X836179Y610067D01*
X832866Y611439D01*
X829310Y611908D01*
X825754Y611439D01*
X822441Y610067D01*
X819596Y607884D01*
X817413Y605039D01*
X816041Y601726D01*
X815573Y598170D01*
Y595630D01*
X816041Y592075D01*
X817413Y588761D01*
X819596Y585916D01*
X822441Y583733D01*
X825754Y582361D01*
X827762Y582096D01*
X827679Y580826D01*
X802614D01*
X791658Y591782D01*
X791779Y592075D01*
X792247Y595630D01*
Y598170D01*
X791779Y601726D01*
X790407Y605039D01*
X788224Y607884D01*
X785379Y610067D01*
X782066Y611439D01*
X778510Y611908D01*
X774955Y611439D01*
X771641Y610067D01*
X768796Y607884D01*
X766613Y605039D01*
X766445Y604633D01*
X765175D01*
X765007Y605039D01*
X762824Y607884D01*
X759979Y610067D01*
X756665Y611439D01*
X753110Y611908D01*
X749555Y611439D01*
X746241Y610067D01*
X744636Y608836D01*
X744438Y608889D01*
X739663Y613663D01*
X739229Y613843D01*
X738840Y614110D01*
X737829Y614324D01*
X737622Y614666D01*
X737349Y615723D01*
X750860Y638716D01*
X760230Y648086D01*
X761450Y649912D01*
X761878Y652066D01*
Y664308D01*
X763148Y664834D01*
X766641Y661341D01*
Y647750D01*
Y638750D01*
X766992Y636986D01*
X767991Y635491D01*
X789741Y613741D01*
X791236Y612742D01*
X793000Y612391D01*
X793000Y612392D01*
X806500D01*
X808264Y612742D01*
X809759Y613741D01*
X810758Y615236D01*
X811109Y617000D01*
X810758Y618764D01*
X809759Y620259D01*
X808264Y621258D01*
X806500Y621609D01*
X794909D01*
X775859Y640659D01*
Y647750D01*
Y663250D01*
X775859Y663250D01*
X775508Y665014D01*
X774509Y666509D01*
X752504Y688514D01*
X753130Y689684D01*
X753851Y689541D01*
X755614Y689891D01*
X757110Y690890D01*
X757386Y691304D01*
X778173D01*
X812238Y657238D01*
X813161Y656622D01*
X814250Y656405D01*
X859367D01*
X860350Y655396D01*
X859533Y654414D01*
X858839Y654878D01*
X857750Y655095D01*
X788785D01*
X788509Y655509D01*
X787014Y656508D01*
X785250Y656859D01*
X783486Y656508D01*
X781991Y655509D01*
X780992Y654014D01*
X780641Y652250D01*
X780992Y650486D01*
X781991Y648991D01*
X783486Y647992D01*
X785250Y647642D01*
X787014Y647992D01*
X788509Y648991D01*
X788785Y649405D01*
X856572D01*
X870991Y634986D01*
X870885Y634457D01*
X871240Y632675D01*
X872250Y631164D01*
X873761Y630154D01*
X875543Y629800D01*
X877325Y630154D01*
X878836Y631164D01*
X879846Y632675D01*
X879990Y633398D01*
X881366Y633806D01*
X885959Y629086D01*
X885843Y628500D01*
X886197Y626718D01*
X887207Y625207D01*
X888718Y624197D01*
X890500Y623843D01*
X892282Y624197D01*
X893793Y625207D01*
X894803Y626718D01*
X895157Y628500D01*
X894803Y630282D01*
X893793Y631793D01*
X892282Y632803D01*
X890500Y633158D01*
X890028Y633064D01*
X862606Y661234D01*
X862590Y661245D01*
X862579Y661262D01*
X862134Y661559D01*
X861692Y661863D01*
X861673Y661867D01*
X861656Y661878D01*
X861130Y661983D01*
X860606Y662094D01*
X860587Y662091D01*
X860568Y662095D01*
X815428D01*
X789472Y688051D01*
X790098Y689221D01*
X790500Y689141D01*
X792264Y689492D01*
X793759Y690491D01*
X794758Y691986D01*
X795108Y693750D01*
X794758Y695514D01*
X793759Y697009D01*
X793345Y697285D01*
Y736572D01*
X796482Y739709D01*
X797655Y739223D01*
Y700785D01*
X797241Y700509D01*
X796242Y699014D01*
X795891Y697250D01*
X796242Y695486D01*
X797241Y693991D01*
X798736Y692992D01*
X800500Y692641D01*
X802264Y692992D01*
X803759Y693991D01*
X804758Y695486D01*
X805108Y697250D01*
X804758Y699014D01*
X803759Y700509D01*
X803345Y700785D01*
Y824427D01*
X803128Y825516D01*
X802512Y826439D01*
X776422Y852528D01*
X776731Y853760D01*
X777768Y854075D01*
X780374Y855468D01*
X782658Y857342D01*
X784532Y859626D01*
X785925Y862232D01*
X786783Y865060D01*
X787073Y868000D01*
Y875000D01*
X786783Y877941D01*
X785925Y880768D01*
X784532Y883374D01*
X782658Y885658D01*
X780374Y887532D01*
X777768Y888925D01*
X774940Y889783D01*
X772000Y890072D01*
X769060Y889783D01*
X766232Y888925D01*
X763626Y887532D01*
X761342Y885658D01*
X760135Y884187D01*
X758865D01*
X757658Y885658D01*
X755374Y887532D01*
X752768Y888925D01*
X749940Y889783D01*
X747000Y890072D01*
X744060Y889783D01*
X741232Y888925D01*
X738626Y887532D01*
X737668Y886746D01*
X736520Y887289D01*
Y901122D01*
X810669D01*
X816372Y895419D01*
Y892050D01*
X816355Y892013D01*
X816317Y890537D01*
X816269Y890000D01*
X807000D01*
Y853000D01*
X837000D01*
Y890000D01*
X827731D01*
X827683Y890537D01*
X827645Y892013D01*
X827628Y892050D01*
Y897750D01*
X827200Y899904D01*
X825980Y901730D01*
X819556Y908154D01*
X820082Y909424D01*
X881026D01*
X916924Y873526D01*
Y861250D01*
X917148Y859548D01*
X917805Y857962D01*
X918850Y856600D01*
X920212Y855555D01*
X921798Y854898D01*
X923500Y854674D01*
X925202Y854898D01*
X926788Y855555D01*
X928150Y856600D01*
X929195Y857962D01*
X929852Y859548D01*
X930076Y861250D01*
Y876250D01*
X930076Y876250D01*
X929852Y877952D01*
X929195Y879538D01*
X928150Y880900D01*
X888400Y920650D01*
X887038Y921695D01*
X885452Y922352D01*
X883750Y922576D01*
X883750Y922576D01*
X821153D01*
X820646Y922965D01*
X819060Y923622D01*
X817357Y923846D01*
X817357Y923846D01*
X678393D01*
X678392Y923846D01*
X676690Y923622D01*
X675104Y922965D01*
X673742Y921920D01*
X673742Y921920D01*
X629600Y877778D01*
X628555Y876416D01*
X627898Y874830D01*
X627674Y873128D01*
X627674Y873127D01*
Y852954D01*
X626774Y852057D01*
X603774Y852142D01*
X603774Y852141D01*
X603773Y852142D01*
X602505Y852145D01*
X602502Y852144D01*
X602500Y852145D01*
X602019Y851946D01*
X601515Y851818D01*
X600525Y851078D01*
X600461Y850971D01*
X600347Y850923D01*
X591587Y842163D01*
X591105Y841000D01*
Y840076D01*
X568608D01*
X568608Y840076D01*
X566906Y839852D01*
X565320Y839195D01*
X563958Y838150D01*
X558100Y832292D01*
X557055Y830930D01*
X556398Y829344D01*
X556174Y827642D01*
X556174Y827642D01*
Y785765D01*
X556148Y785702D01*
X555924Y784000D01*
X555924Y784000D01*
Y730000D01*
X555924Y730000D01*
X556148Y728298D01*
X556805Y726712D01*
X557850Y725350D01*
X599924Y683276D01*
Y661724D01*
X580850Y642650D01*
X579805Y641288D01*
X579148Y639702D01*
X578967Y638330D01*
X577697Y638413D01*
Y647500D01*
X577530Y648341D01*
X577054Y649054D01*
X573554Y652554D01*
X573554Y652554D01*
X566197Y659910D01*
Y663225D01*
X567467Y663543D01*
X567812Y662898D01*
X569812Y660462D01*
X572248Y658462D01*
X575027Y656976D01*
X578043Y656061D01*
X581180Y655753D01*
X584316Y656061D01*
X587333Y656976D01*
X590112Y658462D01*
X592548Y660462D01*
X594548Y662898D01*
X596034Y665677D01*
X596949Y668693D01*
X597257Y671830D01*
X596949Y674967D01*
X596034Y677983D01*
X594548Y680762D01*
X592548Y683198D01*
X590112Y685198D01*
X587333Y686684D01*
X584316Y687598D01*
X581180Y687907D01*
X578043Y687598D01*
X575027Y686684D01*
X572248Y685198D01*
X569812Y683198D01*
X567812Y680762D01*
X567467Y680117D01*
X566197Y680435D01*
Y704000D01*
X566030Y704841D01*
X565554Y705554D01*
X564841Y706030D01*
X564000Y706197D01*
X484000D01*
X483159Y706030D01*
X482446Y705554D01*
X481970Y704841D01*
X481803Y704000D01*
X481970Y703159D01*
X482446Y702446D01*
X483803Y701090D01*
Y595000D01*
X483970Y594159D01*
X484446Y593446D01*
X493446Y584446D01*
X494159Y583970D01*
X495000Y583803D01*
X575500Y583803D01*
X576341Y583970D01*
X577054Y584446D01*
X577530Y585159D01*
X577654Y585781D01*
X578924Y585656D01*
Y539974D01*
X546350Y507400D01*
X545305Y506038D01*
X544648Y504452D01*
X544424Y502750D01*
X544424Y502750D01*
Y459468D01*
X543154Y459317D01*
X542830Y460667D01*
X540757Y465671D01*
X537927Y470290D01*
X534409Y474409D01*
X530290Y477927D01*
X525671Y480757D01*
X520667Y482830D01*
X515400Y484094D01*
X510000Y484519D01*
X504600Y484094D01*
X499333Y482830D01*
X494329Y480757D01*
X489710Y477927D01*
X485591Y474409D01*
X482073Y470290D01*
X480722Y468085D01*
X479500Y468430D01*
Y891570D01*
X480722Y891915D01*
X482073Y889710D01*
X485591Y885591D01*
X489710Y882073D01*
X494329Y879243D01*
X499333Y877170D01*
X504600Y875906D01*
X510000Y875481D01*
X515400Y875906D01*
X520667Y877170D01*
X525671Y879243D01*
X530290Y882073D01*
X534409Y885591D01*
X537927Y889710D01*
X540757Y894329D01*
X542830Y899333D01*
X544094Y904600D01*
X544519Y910000D01*
X544094Y915400D01*
X542830Y920667D01*
X540757Y925671D01*
X537927Y930290D01*
X534409Y934409D01*
X530290Y937927D01*
X528085Y939278D01*
X528430Y940500D01*
X951570D01*
X951915Y939278D01*
D02*
G37*
G36*
X703830Y862116D02*
X703236Y861189D01*
X702712Y860212D01*
X702258Y859185D01*
X701873Y858108D01*
X701559Y856980D01*
X701314Y855802D01*
X701140Y854574D01*
X701035Y853296D01*
X701000Y851968D01*
X693000D01*
X692965Y853296D01*
X692860Y854574D01*
X692685Y855802D01*
X692441Y856980D01*
X692126Y858108D01*
X691742Y859185D01*
X691288Y860212D01*
X690764Y861189D01*
X690170Y862116D01*
X689506Y862993D01*
X704494D01*
X703830Y862116D01*
D02*
G37*
G36*
X734875Y883870D02*
X734468Y883374D01*
X733075Y880768D01*
X732217Y877941D01*
X731927Y875000D01*
Y868000D01*
X732217Y865060D01*
X733075Y862232D01*
X734468Y859626D01*
X734875Y859130D01*
Y846875D01*
X711625D01*
X711250Y846500D01*
X709500Y848250D01*
Y859587D01*
X709532Y859626D01*
X710925Y862232D01*
X711783Y865060D01*
X712073Y868000D01*
Y875000D01*
X711783Y877941D01*
X710925Y880768D01*
X709532Y883374D01*
X709500Y883413D01*
Y893500D01*
X709250Y893750D01*
Y901122D01*
X734875D01*
Y883870D01*
D02*
G37*
G36*
X976177Y826840D02*
X976014Y827017D01*
X975826Y827133D01*
X975610Y827186D01*
X975369Y827178D01*
X975102Y827108D01*
X974809Y826976D01*
X974490Y826782D01*
X974144Y826527D01*
X973773Y826209D01*
X973375Y825829D01*
X971863Y827909D01*
X972248Y828311D01*
X972848Y829054D01*
X973064Y829394D01*
X973224Y829714D01*
X973328Y830013D01*
X973376Y830292D01*
X973367Y830550D01*
X973303Y830788D01*
X973183Y831004D01*
X976177Y826840D01*
D02*
G37*
G36*
X973309Y805189D02*
X973279Y805428D01*
X973192Y805643D01*
X973047Y805832D01*
X972843Y805996D01*
X972581Y806135D01*
X972261Y806248D01*
X971883Y806337D01*
X971446Y806400D01*
X970952Y806437D01*
X970399Y806450D01*
Y808990D01*
X970952Y809003D01*
X971446Y809040D01*
X971883Y809103D01*
X972261Y809192D01*
X972581Y809305D01*
X972843Y809444D01*
X973047Y809608D01*
X973192Y809797D01*
X973279Y810012D01*
X973309Y810251D01*
Y805189D01*
D02*
G37*
G36*
X850697Y801859D02*
X847219Y801794D01*
X846729Y804334D01*
X847044Y804343D01*
X847329Y804372D01*
X847585Y804419D01*
X847811Y804485D01*
X848007Y804571D01*
X848175Y804675D01*
X848312Y804799D01*
X848420Y804941D01*
X848499Y805102D01*
X848548Y805283D01*
X850697Y801859D01*
D02*
G37*
G36*
X603769Y850496D02*
X664366Y850274D01*
X664550Y849346D01*
X665770Y847520D01*
X675270Y838020D01*
X677096Y836800D01*
X679250Y836372D01*
X686919D01*
X699449Y823842D01*
X699602Y800234D01*
X699820Y799175D01*
X700030Y798116D01*
X700041Y798101D01*
X700044Y798083D01*
X700649Y797190D01*
X701250Y796290D01*
X705230Y792311D01*
Y787730D01*
X697656Y780156D01*
X659131D01*
X657968Y779674D01*
X654793Y776500D01*
X644750D01*
Y791250D01*
X631750Y804250D01*
X592750D01*
Y841000D01*
X601510Y849760D01*
X602500Y850500D01*
D01*
X603769Y850496D01*
D02*
G37*
G36*
X709500Y767250D02*
Y735750D01*
X694750Y721000D01*
X617500Y721000D01*
X595500Y743000D01*
X595500Y764750D01*
X645370D01*
X659131Y778511D01*
X698239D01*
X709500Y767250D01*
D02*
G37*
G36*
X744372Y845911D02*
X744988Y844988D01*
X746488Y843488D01*
X747411Y842872D01*
X748500Y842655D01*
X751345D01*
X762250Y831750D01*
X780727D01*
X793155Y819322D01*
Y744428D01*
X788488Y739762D01*
X787872Y738839D01*
X787655Y737750D01*
Y697285D01*
X787241Y697009D01*
X786242Y695514D01*
X785891Y693750D01*
X785972Y693347D01*
X784801Y692722D01*
X781362Y696161D01*
X780440Y696777D01*
X779351Y696994D01*
X757386D01*
X757110Y697408D01*
X755614Y698407D01*
X753851Y698758D01*
X752087Y698407D01*
X750592Y697408D01*
X749593Y695913D01*
X749242Y694149D01*
X749593Y692385D01*
X750592Y690890D01*
X751562Y690242D01*
X751053Y689289D01*
X751013Y688887D01*
X750859Y688514D01*
X750954Y688284D01*
X750929Y688036D01*
X751186Y687724D01*
X751340Y687350D01*
X759017Y679673D01*
X758531Y678500D01*
X750972D01*
X733878Y695594D01*
Y786872D01*
Y794000D01*
X733450Y796154D01*
X732230Y797980D01*
X720378Y809831D01*
Y831750D01*
X719950Y833904D01*
X718730Y835730D01*
X718250Y836209D01*
Y839500D01*
X713694Y844056D01*
X714180Y845230D01*
X734875D01*
X736038Y845712D01*
X736520Y846875D01*
X744180D01*
X744372Y845911D01*
D02*
G37*
G36*
X591105Y804250D02*
X591587Y803087D01*
X592750Y802605D01*
X631068D01*
X643105Y790568D01*
Y776500D01*
X643587Y775337D01*
X644750Y774855D01*
X651489D01*
X651975Y773681D01*
X644689Y766395D01*
X595500D01*
X594337Y765913D01*
X593855Y764750D01*
X593855Y743000D01*
X594337Y741837D01*
X616337Y719837D01*
X617500Y719355D01*
X694750Y719355D01*
X695913Y719837D01*
X710663Y734587D01*
X711145Y735750D01*
Y767250D01*
X710663Y768413D01*
X699452Y779625D01*
X706393Y786567D01*
X706875Y787730D01*
Y789006D01*
X708049Y789492D01*
X712872Y784669D01*
Y689549D01*
X713300Y687395D01*
X714520Y685569D01*
X734115Y665975D01*
X733827Y665027D01*
X733616Y664677D01*
X732241Y663759D01*
X731242Y662264D01*
X730891Y660500D01*
X730989Y660012D01*
X728322Y657345D01*
X703928D01*
X700511Y660761D01*
X699589Y661378D01*
X698500Y661595D01*
X679801D01*
X679315Y662768D01*
X684818Y668272D01*
X685300Y669435D01*
Y699500D01*
X684818Y700663D01*
X683655Y701145D01*
X651580D01*
X650417Y700663D01*
X649935Y699500D01*
Y698065D01*
X642170D01*
X641007Y697583D01*
X637818Y694395D01*
X623500D01*
X622337Y693913D01*
X621855Y692750D01*
Y662431D01*
X621337Y661913D01*
X621101Y661344D01*
X620855Y660779D01*
X620861Y660764D01*
X620855Y660750D01*
X621091Y660181D01*
X621154Y660020D01*
X596817Y635683D01*
X595371Y633799D01*
X594462Y631605D01*
X594152Y629250D01*
Y585000D01*
X594462Y582645D01*
X595371Y580451D01*
X596817Y578567D01*
X604567Y570816D01*
X606452Y569370D01*
X607147Y569082D01*
X627380Y550294D01*
X627944Y550085D01*
X628500Y549855D01*
X638250D01*
X639413Y550337D01*
X665163Y576087D01*
X665645Y577250D01*
X665395Y577854D01*
Y587405D01*
X690749D01*
X691838Y587621D01*
X692761Y588238D01*
X696707Y592184D01*
X698034Y591921D01*
X699798Y592271D01*
X701293Y593270D01*
X702292Y594766D01*
X702643Y596529D01*
X702574Y596873D01*
X703380Y597855D01*
X711900D01*
X712334Y598035D01*
X712418Y598018D01*
X713453Y598224D01*
X723289D01*
X724003Y598082D01*
X724471Y597769D01*
X724784Y597301D01*
X724957Y596428D01*
X725106Y596205D01*
X725191Y595776D01*
X725331Y595683D01*
X725396Y595527D01*
X726105Y594818D01*
Y588395D01*
X703500D01*
X702337Y587913D01*
X684318Y569895D01*
X669250Y569895D01*
X668087Y569413D01*
X606087Y507413D01*
X605605Y506250D01*
X605605Y474500D01*
X606087Y473337D01*
X619587Y459837D01*
X620750Y459355D01*
X641500D01*
X642663Y459837D01*
X650663Y467837D01*
X651145Y469000D01*
Y473000D01*
X654000D01*
Y503866D01*
X654511Y504489D01*
X656545Y506158D01*
X658865Y507398D01*
X659705Y507653D01*
X660017Y507909D01*
X660390Y508064D01*
X670182Y517855D01*
X723500D01*
X724663Y518337D01*
X729625Y523298D01*
X741856Y511067D01*
X741279Y509848D01*
X739000Y510073D01*
X736059Y509783D01*
X733232Y508925D01*
X730626Y507532D01*
X728342Y505658D01*
X727135Y504187D01*
X725865D01*
X724658Y505658D01*
X722374Y507532D01*
X719768Y508925D01*
X716941Y509783D01*
X714000Y510073D01*
X711059Y509783D01*
X708232Y508925D01*
X705626Y507532D01*
X703342Y505658D01*
X702135Y504187D01*
X700865D01*
X699658Y505658D01*
X697374Y507532D01*
X694768Y508925D01*
X691941Y509783D01*
X689000Y510073D01*
X686059Y509783D01*
X683232Y508925D01*
X680626Y507532D01*
X678342Y505658D01*
X676468Y503374D01*
X675075Y500768D01*
X674217Y497940D01*
X673928Y495000D01*
Y488000D01*
X674217Y485060D01*
X675075Y482232D01*
X676468Y479626D01*
X678342Y477342D01*
X680626Y475468D01*
X683232Y474075D01*
X686059Y473217D01*
X689000Y472928D01*
X691941Y473217D01*
X694768Y474075D01*
X697374Y475468D01*
X699658Y477342D01*
X700865Y478813D01*
X702135D01*
X703342Y477342D01*
X705626Y475468D01*
X708232Y474075D01*
X711059Y473217D01*
X714000Y472928D01*
X716941Y473217D01*
X719768Y474075D01*
X722374Y475468D01*
X724658Y477342D01*
X725865Y478813D01*
X727135D01*
X728342Y477342D01*
X730626Y475468D01*
X732424Y474507D01*
Y463474D01*
X705526Y436576D01*
X572974D01*
X557576Y451974D01*
Y500026D01*
X590150Y532600D01*
X591195Y533962D01*
X591852Y535548D01*
X592076Y537250D01*
X592076Y537250D01*
Y635276D01*
X611150Y654350D01*
X611150Y654350D01*
X612195Y655712D01*
X612852Y657298D01*
X613076Y659000D01*
Y686000D01*
X613076Y686000D01*
X612852Y687702D01*
X612195Y689288D01*
X611150Y690650D01*
X611150Y690650D01*
X569076Y732724D01*
Y782485D01*
X569102Y782548D01*
X569326Y784250D01*
Y824918D01*
X571332Y826924D01*
X591105D01*
Y804250D01*
D02*
G37*
G36*
X683655Y669435D02*
X675815Y661595D01*
X674750D01*
X673661Y661378D01*
X672738Y660761D01*
X660489Y648512D01*
X659872Y647589D01*
X659655Y646500D01*
Y645095D01*
X655740D01*
X655571Y645166D01*
X655103Y645167D01*
X653689Y645202D01*
X653323Y645231D01*
X653278Y645238D01*
X653228Y645249D01*
X653214Y645247D01*
X653212Y645247D01*
X653202Y645245D01*
X653042Y645217D01*
X652798Y645318D01*
X652693Y645274D01*
X652209Y645371D01*
X642049D01*
X640855Y645133D01*
X639843Y644457D01*
X639744Y644309D01*
X638479Y644196D01*
X622500Y660750D01*
X623500Y661750D01*
Y692750D01*
X638500D01*
X642170Y696420D01*
X651580D01*
Y699500D01*
X683655D01*
Y669435D01*
D02*
G37*
G36*
X652867Y643644D02*
X652981Y643618D01*
X653143Y643595D01*
X653604Y643559D01*
X655080Y643522D01*
X655565Y643521D01*
Y640981D01*
X652798Y640829D01*
Y643673D01*
X652867Y643644D01*
D02*
G37*
G36*
X743000Y651374D02*
X743000Y646775D01*
X734725Y638500D01*
X724844D01*
X724645Y638633D01*
X723451Y638871D01*
X713291D01*
X712097Y638633D01*
X711898Y638500D01*
X710553D01*
X709420Y639633D01*
Y651655D01*
X729500D01*
X730589Y651872D01*
X731139Y652240D01*
X742101Y652271D01*
X743000Y651374D01*
D02*
G37*
G36*
X652837Y637164D02*
X652926Y637155D01*
X653488Y637136D01*
X655411Y637124D01*
X655720Y634584D01*
X655234Y634581D01*
X653221Y634459D01*
X653037Y634421D01*
X652896Y634377D01*
X652798Y634329D01*
Y637173D01*
X652837Y637164D01*
D02*
G37*
G36*
X665903Y633886D02*
X665718Y634018D01*
X665519Y634137D01*
X665307Y634242D01*
X665082Y634333D01*
X664844Y634409D01*
X664593Y634472D01*
X664328Y634521D01*
X664050Y634556D01*
X663759Y634577D01*
X663455Y634584D01*
X663080Y637124D01*
X663387Y637133D01*
X663675Y637161D01*
X663946Y637207D01*
X664200Y637272D01*
X664436Y637355D01*
X664653Y637457D01*
X664854Y637577D01*
X665037Y637716D01*
X665202Y637873D01*
X665349Y638049D01*
X665903Y633886D01*
D02*
G37*
G36*
X700739Y652488D02*
X701661Y651872D01*
X702750Y651655D01*
X707775D01*
Y639633D01*
X708257Y638470D01*
X709390Y637337D01*
X710553Y636855D01*
X711898D01*
X712335Y637036D01*
X712418Y637020D01*
X713453Y637225D01*
X723289D01*
X724324Y637020D01*
X724407Y637036D01*
X724844Y636855D01*
X728970D01*
X729469Y635687D01*
X725213Y631234D01*
X725159Y631095D01*
X725034Y631012D01*
X724938Y630524D01*
X724758Y630060D01*
X724818Y629923D01*
X724789Y629776D01*
X724893Y629251D01*
X724784Y628699D01*
X724501Y628276D01*
X724426Y628201D01*
X724003Y627918D01*
X723289Y627776D01*
X715516D01*
X715481Y627762D01*
X715446Y627775D01*
X706431Y627394D01*
X705888Y627142D01*
X705337Y626913D01*
X703587Y625163D01*
X703105Y624000D01*
Y617250D01*
X703395Y616550D01*
X702734Y615280D01*
X700385D01*
X699222Y614798D01*
X698087Y613663D01*
X697731Y612806D01*
X697482Y612441D01*
X696335Y611893D01*
X695398Y612079D01*
X695089Y612592D01*
X694846Y613323D01*
X698261Y616739D01*
X698878Y617661D01*
X699095Y618750D01*
Y622715D01*
X699509Y622991D01*
X700508Y624486D01*
X700859Y626250D01*
X700508Y628014D01*
X699509Y629509D01*
X698014Y630508D01*
X696250Y630859D01*
X694486Y630508D01*
X692991Y629509D01*
X691992Y628014D01*
X691641Y626250D01*
X691992Y624486D01*
X692991Y622991D01*
X693405Y622715D01*
Y619928D01*
X679571Y606094D01*
X655740D01*
X655571Y606164D01*
X655103Y606166D01*
X653689Y606201D01*
X653323Y606230D01*
X653278Y606236D01*
X653228Y606247D01*
X653214Y606245D01*
X653212Y606245D01*
X653202Y606243D01*
X653042Y606215D01*
X652798Y606316D01*
X652693Y606273D01*
X652209Y606369D01*
X642049D01*
X640855Y606131D01*
X639843Y605455D01*
X639167Y604443D01*
X638929Y603249D01*
X639167Y602055D01*
X639843Y601043D01*
X640323Y600722D01*
Y599276D01*
X639843Y598955D01*
X639167Y597943D01*
X638929Y596749D01*
X639167Y595555D01*
X639843Y594543D01*
X640323Y594222D01*
Y592776D01*
X639843Y592455D01*
X639167Y591443D01*
X638929Y590249D01*
X638228Y589395D01*
X636250Y589395D01*
X635896Y589249D01*
X635873Y589247D01*
X635302Y589502D01*
X634953Y589512D01*
X634631Y589645D01*
X612348Y589645D01*
Y610355D01*
X621250D01*
X621853Y610605D01*
X640250D01*
X640250Y610605D01*
X640285D01*
X640728Y610788D01*
X641199Y610882D01*
X641497Y611082D01*
X642211Y611223D01*
X652047D01*
X652761Y611082D01*
X653059Y610882D01*
X653530Y610788D01*
X653974Y610605D01*
X659000D01*
X660163Y611087D01*
X662663Y613587D01*
X663145Y614750D01*
Y623250D01*
X662663Y624413D01*
X661844Y625233D01*
X662330Y626406D01*
X673001D01*
X674090Y626623D01*
X675012Y627239D01*
X678261Y630489D01*
X678878Y631411D01*
X679095Y632500D01*
Y646964D01*
X680259Y647741D01*
X681258Y649236D01*
X681609Y651000D01*
X681258Y652764D01*
X680259Y654259D01*
X679695Y654635D01*
X680080Y655905D01*
X697322D01*
X700739Y652488D01*
D02*
G37*
G36*
X750000Y640500D02*
X735750Y616250D01*
X734523Y615023D01*
X733475Y615245D01*
X733300Y615212D01*
X733135Y615280D01*
X725047D01*
X724604Y615097D01*
X724133Y615003D01*
X724003Y614916D01*
X723289Y614774D01*
X713453D01*
X712739Y614916D01*
X712609Y615003D01*
X712138Y615097D01*
X711695Y615280D01*
X706720D01*
X704750Y617250D01*
Y624000D01*
X706500Y625750D01*
X715516Y626131D01*
X723451D01*
X724645Y626368D01*
X725657Y627045D01*
X726333Y628057D01*
X726571Y629251D01*
X726403Y630098D01*
X732861Y636855D01*
X734725D01*
X735888Y637337D01*
X743989Y645437D01*
X750000Y640500D01*
D02*
G37*
G36*
X738500Y612500D02*
X743275Y607725D01*
X741213Y605039D01*
X739841Y601726D01*
X739372Y598170D01*
Y595630D01*
X739841Y592075D01*
X741213Y588761D01*
X743396Y585916D01*
X746241Y583733D01*
X749555Y582361D01*
X753110Y581893D01*
X756665Y582361D01*
X759979Y583733D01*
X762824Y585916D01*
X763219Y586431D01*
X764486Y586514D01*
X776750Y574250D01*
X779260Y567510D01*
X786250Y473750D01*
X774750Y462250D01*
Y462000D01*
X758750D01*
X751500Y469250D01*
Y479587D01*
X751532Y479626D01*
X752925Y482232D01*
X753783Y485060D01*
X754072Y488000D01*
Y495000D01*
X753783Y497940D01*
X752925Y500768D01*
X751532Y503374D01*
X751500Y503413D01*
Y503750D01*
X749959Y505291D01*
X749658Y505658D01*
X749291Y505959D01*
X730750Y524500D01*
X730915Y524944D01*
X731145Y525500D01*
X731133Y525530D01*
X731144Y525560D01*
X728894Y586810D01*
X728644Y587357D01*
X728413Y587913D01*
X728383Y587926D01*
X728370Y587955D01*
X727806Y588165D01*
X727750Y588188D01*
Y595500D01*
X726559Y596691D01*
X726571Y596749D01*
X726333Y597943D01*
X725657Y598955D01*
X724645Y599632D01*
X723451Y599869D01*
X713291D01*
X712097Y599632D01*
X711900Y599500D01*
X701750D01*
X699250Y602000D01*
Y605351D01*
X699508Y605736D01*
X699858Y607500D01*
X699508Y609264D01*
X699250Y609649D01*
Y612500D01*
X700385Y613635D01*
X711695D01*
X712097Y613366D01*
X713291Y613129D01*
X723451D01*
X724645Y613366D01*
X725047Y613635D01*
X733135D01*
X738500Y612500D01*
D02*
G37*
G36*
X634302Y646155D02*
X637296Y643054D01*
X637381Y643016D01*
X637425Y642934D01*
X637948Y642770D01*
X638450Y642551D01*
X639082Y641481D01*
X639167Y641057D01*
X639843Y640044D01*
X640323Y639724D01*
Y638278D01*
X639843Y637957D01*
X639167Y636945D01*
X638929Y635751D01*
X639167Y634557D01*
X639843Y633545D01*
X640323Y633224D01*
Y631778D01*
X639843Y631457D01*
X639167Y630445D01*
X638929Y629251D01*
X639167Y628057D01*
X639843Y627045D01*
X640208Y626801D01*
X640238Y626500D01*
X640658D01*
X640855Y626368D01*
X642049Y626131D01*
X652209D01*
X653403Y626368D01*
X653460Y626406D01*
X658344D01*
X661500Y623250D01*
Y614750D01*
X659000Y612250D01*
X653974D01*
X653403Y612631D01*
X652209Y612869D01*
X642049D01*
X640855Y612631D01*
X640285Y612250D01*
X640250D01*
Y612250D01*
X621500D01*
X621500Y612250D01*
X621250Y612000D01*
X612348D01*
Y625482D01*
X633032Y646166D01*
X634302Y646155D01*
D02*
G37*
G36*
X696762Y604909D02*
X696568Y604783D01*
X696386Y604638D01*
X696216Y604474D01*
X696059Y604292D01*
X695914Y604091D01*
X695782Y603872D01*
X695662Y603634D01*
X695554Y603377D01*
X695459Y603102D01*
X695377Y602809D01*
X692914Y603430D01*
X692980Y603727D01*
X693027Y604015D01*
X693054Y604291D01*
X693061Y604558D01*
X693049Y604814D01*
X693017Y605059D01*
X692964Y605294D01*
X692893Y605518D01*
X692801Y605732D01*
X692690Y605936D01*
X696762Y604909D01*
D02*
G37*
G36*
X652867Y604642D02*
X652981Y604616D01*
X653143Y604593D01*
X653604Y604557D01*
X655080Y604520D01*
X655565Y604519D01*
Y601979D01*
X652798Y601827D01*
Y604671D01*
X652867Y604642D01*
D02*
G37*
G36*
Y598142D02*
X652981Y598116D01*
X653143Y598093D01*
X653604Y598057D01*
X655080Y598021D01*
X655565Y598019D01*
Y595479D01*
X652798Y595327D01*
Y598171D01*
X652867Y598142D01*
D02*
G37*
G36*
X887695Y599049D02*
X887772Y598833D01*
X887900Y598642D01*
X888080Y598477D01*
X888312Y598338D01*
X888594Y598223D01*
X888929Y598134D01*
X889314Y598071D01*
X889751Y598033D01*
X890239Y598020D01*
Y595480D01*
X889751Y595467D01*
X889314Y595429D01*
X888929Y595366D01*
X888594Y595277D01*
X888312Y595163D01*
X888080Y595023D01*
X887900Y594858D01*
X887772Y594667D01*
X887695Y594451D01*
X887669Y594210D01*
Y599290D01*
X887695Y599049D01*
D02*
G37*
G36*
X961843Y578849D02*
X961794Y579088D01*
X961688Y579301D01*
X961527Y579490D01*
X961310Y579653D01*
X961037Y579791D01*
X960708Y579904D01*
X960323Y579992D01*
X959883Y580055D01*
X959386Y580093D01*
X958834Y580105D01*
X958627Y582645D01*
X959175Y582658D01*
X959663Y582696D01*
X960091Y582758D01*
X960460Y582847D01*
X960768Y582960D01*
X961016Y583099D01*
X961204Y583263D01*
X961332Y583452D01*
X961401Y583666D01*
X961409Y583906D01*
X961843Y578849D01*
D02*
G37*
G36*
X900920Y558046D02*
X900998Y557831D01*
X901130Y557641D01*
X901316Y557476D01*
X901556Y557337D01*
X901850Y557223D01*
X902198Y557134D01*
X902600Y557071D01*
X903056Y557033D01*
X903566Y557020D01*
X903542Y554480D01*
X903031Y554467D01*
X902574Y554430D01*
X902170Y554366D01*
X901820Y554278D01*
X901523Y554165D01*
X901279Y554026D01*
X901090Y553862D01*
X900953Y553673D01*
X900870Y553459D01*
X900841Y553219D01*
X900895Y558287D01*
X900920Y558046D01*
D02*
G37*
G36*
X635750Y587500D02*
X636250Y587750D01*
X637270Y587750D01*
X640282D01*
X640855Y587367D01*
X642049Y587129D01*
X652209D01*
X653403Y587367D01*
X653460Y587405D01*
X663750D01*
Y577500D01*
X664000Y577250D01*
X638250Y551500D01*
X628500D01*
X607500Y571000D01*
X611001Y588000D01*
X634631Y588000D01*
X635750Y587500D01*
D02*
G37*
G36*
X900898Y519296D02*
X900979Y519081D01*
X901113Y518891D01*
X901302Y518726D01*
X901545Y518587D01*
X901841Y518473D01*
X902192Y518384D01*
X902596Y518321D01*
X903054Y518283D01*
X903566Y518270D01*
Y515730D01*
X903054Y515717D01*
X902596Y515679D01*
X902192Y515616D01*
X901841Y515527D01*
X901545Y515413D01*
X901302Y515274D01*
X901113Y515109D01*
X900979Y514919D01*
X900898Y514704D01*
X900871Y514463D01*
Y519537D01*
X900898Y519296D01*
D02*
G37*
G36*
X870025Y573127D02*
X870873Y572022D01*
X871364Y570836D01*
X871518Y569664D01*
X871629Y569472D01*
Y569250D01*
X871933Y568946D01*
X872148Y568574D01*
X872363Y568516D01*
X872520Y568359D01*
X874039Y567730D01*
X876541Y565811D01*
X877714Y564281D01*
Y551888D01*
X881335Y548267D01*
Y524733D01*
X880131Y521826D01*
X879662Y518270D01*
Y515730D01*
X880131Y512174D01*
X880167Y512085D01*
X879979Y511483D01*
X879435Y510787D01*
X879204Y510555D01*
X878902Y510430D01*
X878776Y510128D01*
X878545Y509896D01*
X878460Y509691D01*
X876541Y507189D01*
X874039Y505270D01*
X873947Y505232D01*
X873715Y505000D01*
X873413Y504875D01*
X873288Y504573D01*
X873056Y504341D01*
Y504014D01*
X872931Y503712D01*
Y468278D01*
X873413Y467115D01*
X874576Y466633D01*
X877440D01*
X878820Y466451D01*
X880006Y465960D01*
X881111Y465112D01*
X890061Y456163D01*
X891224Y455681D01*
X910956D01*
X912119Y456163D01*
X956273Y500317D01*
X956755Y501480D01*
Y517775D01*
X966358D01*
X968730Y517463D01*
X971270D01*
X973642Y517775D01*
X984141D01*
X984684Y518000D01*
X995648D01*
Y514214D01*
X995466Y512834D01*
X994975Y511648D01*
X994128Y510543D01*
X989594Y506009D01*
X988489Y505162D01*
X987303Y504671D01*
X986082Y504510D01*
X986031Y504480D01*
Y504420D01*
X985923Y504418D01*
X985923D01*
X984864Y504402D01*
X984297Y504156D01*
X983727Y503920D01*
X983721Y503907D01*
X983708Y503901D01*
X983481Y503327D01*
X983245Y502756D01*
Y493825D01*
X964410D01*
X963247Y493343D01*
X953222Y483318D01*
X953038Y482875D01*
X952771Y482476D01*
X952804Y482310D01*
X952740Y482155D01*
X952923Y481712D01*
X953017Y481241D01*
X953119Y481089D01*
X952846Y479849D01*
X949710Y477927D01*
X945591Y474409D01*
X942073Y470290D01*
X939243Y465671D01*
X937170Y460667D01*
X935906Y455400D01*
X935481Y450000D01*
X935906Y444600D01*
X937170Y439333D01*
X939243Y434329D01*
X942073Y429710D01*
X945591Y425591D01*
X949710Y422073D01*
X950283Y421722D01*
X949938Y420500D01*
X530062D01*
Y421934D01*
X530290Y422073D01*
X534409Y425591D01*
X537927Y429710D01*
X540757Y434329D01*
X542830Y439333D01*
X544094Y444600D01*
X544519Y450000D01*
X544094Y455400D01*
X543764Y456777D01*
X544490Y457819D01*
X544617Y457834D01*
X545088Y458098D01*
X545587Y458304D01*
X545626Y458399D01*
X545716Y458449D01*
X545862Y458969D01*
X546069Y459468D01*
Y479000D01*
X555931D01*
Y451974D01*
X556413Y450811D01*
X571811Y435413D01*
X572974Y434931D01*
X705526D01*
X706689Y435413D01*
X733587Y462311D01*
X734069Y463474D01*
Y474507D01*
X733974Y474737D01*
X733998Y474984D01*
X733742Y475297D01*
X733587Y475670D01*
X733357Y475765D01*
X733199Y475958D01*
X731545Y476842D01*
X729511Y478511D01*
X728407Y479857D01*
X728331Y479897D01*
X728298Y479976D01*
X728185Y480023D01*
X727678Y480961D01*
X727590Y481586D01*
X727604Y481632D01*
X727925Y482232D01*
X728783Y485060D01*
X729072Y488000D01*
Y495000D01*
X728783Y497940D01*
X727925Y500768D01*
X727604Y501368D01*
X727590Y501413D01*
X727678Y502039D01*
X728185Y502977D01*
X728298Y503024D01*
X728331Y503103D01*
X728407Y503143D01*
X729511Y504489D01*
X731545Y506158D01*
X733865Y507398D01*
X736382Y508162D01*
X739000Y508419D01*
X741118Y508211D01*
X741468Y508317D01*
X741833Y508299D01*
X742047Y508493D01*
X742323Y508576D01*
X742402Y508725D01*
X743706Y509217D01*
X748127Y504796D01*
X748207Y504763D01*
X748247Y504687D01*
X748489Y504489D01*
X748687Y504247D01*
X748763Y504207D01*
X748796Y504127D01*
X750055Y502868D01*
X750081Y502598D01*
X750567Y501689D01*
X750075Y500768D01*
X749217Y497940D01*
X748928Y495000D01*
Y488000D01*
X749217Y485060D01*
X750075Y482232D01*
X750567Y481311D01*
X750081Y480402D01*
X750047Y480050D01*
X749855Y479587D01*
Y478979D01*
X749498Y478555D01*
X748746Y478099D01*
X748396Y477993D01*
X748030Y478010D01*
X747817Y477817D01*
X747541Y477733D01*
X746455Y476842D01*
X744801Y475958D01*
X744643Y475765D01*
X744413Y475670D01*
X744258Y475297D01*
X744002Y474984D01*
X744026Y474737D01*
X743931Y474507D01*
Y465332D01*
X744413Y464169D01*
X769919Y438663D01*
X771082Y438181D01*
X845776D01*
X846939Y438663D01*
X862587Y454311D01*
X863069Y455474D01*
Y461702D01*
Y503712D01*
X862944Y504014D01*
Y504341D01*
X862712Y504573D01*
X862587Y504875D01*
X862285Y505000D01*
X862053Y505232D01*
X861961Y505270D01*
X861131Y505907D01*
Y508861D01*
X856220Y513773D01*
Y520534D01*
X856333Y521396D01*
X857540Y524309D01*
X859460Y526810D01*
X861961Y528730D01*
X862053Y528768D01*
X862285Y529000D01*
X862587Y529125D01*
X862712Y529427D01*
X862944Y529659D01*
Y529986D01*
X863069Y530288D01*
Y542712D01*
X862944Y543014D01*
Y543341D01*
X862712Y543573D01*
X862587Y543875D01*
X862285Y544000D01*
X862053Y544232D01*
X861961Y544270D01*
X859460Y546189D01*
X857540Y548691D01*
X856333Y551604D01*
X856220Y552466D01*
Y559534D01*
X856333Y560396D01*
X857540Y563309D01*
X859146Y565402D01*
X859217Y565668D01*
X859399Y565875D01*
X859374Y566253D01*
X859472Y566618D01*
X859334Y566857D01*
X859316Y567131D01*
X858690Y568401D01*
X858483Y568583D01*
X858378Y568837D01*
X858028Y568982D01*
X858028Y568982D01*
X857728Y570470D01*
X857730Y570480D01*
X864500Y577250D01*
X865902D01*
X870025Y573127D01*
D02*
G37*
G36*
X729500Y525500D02*
X723500Y519500D01*
X669500D01*
X659227Y509227D01*
X658232Y508925D01*
X655626Y507532D01*
X653342Y505658D01*
X651468Y503374D01*
X650075Y500768D01*
X649773Y499773D01*
X649500Y499500D01*
Y498873D01*
X649217Y497940D01*
X648928Y495000D01*
Y488000D01*
X649217Y485060D01*
X649500Y484127D01*
Y469000D01*
X641500Y461000D01*
X620750D01*
X607250Y474500D01*
X607250Y506250D01*
X669250Y568250D01*
X685000Y568250D01*
X703500Y586750D01*
X727250D01*
X729500Y525500D01*
D02*
G37*
G36*
X771641Y583733D02*
X774955Y582361D01*
X778510Y581893D01*
X782066Y582361D01*
X782358Y582482D01*
X795240Y569600D01*
X795240Y569600D01*
X796602Y568555D01*
X798188Y567898D01*
X799890Y567674D01*
X799890Y567674D01*
X857215D01*
X857841Y566404D01*
X856103Y564139D01*
X854731Y560826D01*
X854262Y557270D01*
Y554730D01*
X854731Y551175D01*
X856103Y547861D01*
X858286Y545016D01*
X861131Y542833D01*
X861424Y542712D01*
Y530288D01*
X861131Y530167D01*
X858286Y527984D01*
X856103Y525139D01*
X854731Y521826D01*
X854262Y518270D01*
Y515730D01*
X854731Y512174D01*
X856103Y508861D01*
X858286Y506016D01*
X861131Y503833D01*
X861424Y503712D01*
Y461702D01*
Y455474D01*
X845776Y439826D01*
X771082D01*
X745576Y465332D01*
Y474507D01*
X747374Y475468D01*
X748585Y476461D01*
X749855Y475861D01*
Y469250D01*
X750337Y468087D01*
X757587Y460837D01*
X758750Y460355D01*
X774750D01*
X775913Y460837D01*
X776090Y461264D01*
X787413Y472587D01*
X787438Y472647D01*
X787497Y472676D01*
X787676Y473220D01*
X787895Y473750D01*
X787870Y473810D01*
X787891Y473872D01*
X780901Y567632D01*
X780793Y567845D01*
X780802Y568084D01*
X778292Y574824D01*
X778049Y575085D01*
X777913Y575413D01*
X769721Y583605D01*
X770561Y584562D01*
X771641Y583733D01*
D02*
G37*
%LPC*%
G36*
X924560Y746668D02*
X921297Y746238D01*
X918256Y744979D01*
X915645Y742975D01*
X913641Y740364D01*
X912382Y737323D01*
X911952Y734060D01*
X912382Y730797D01*
X913641Y727756D01*
X915645Y725145D01*
X918256Y723141D01*
X921297Y721882D01*
X924560Y721452D01*
X927823Y721882D01*
X930864Y723141D01*
X933475Y725145D01*
X935479Y727756D01*
X936738Y730797D01*
X937168Y734060D01*
X936738Y737323D01*
X935479Y740364D01*
X933475Y742975D01*
X930864Y744979D01*
X927823Y746238D01*
X924560Y746668D01*
D02*
G37*
G36*
X507960Y575102D02*
X505475Y574775D01*
X503159Y573816D01*
X501170Y572290D01*
X499644Y570301D01*
X498685Y567985D01*
X498358Y565500D01*
X498685Y563015D01*
X499644Y560699D01*
X501170Y558710D01*
X503159Y557184D01*
X505475Y556225D01*
X507960Y555898D01*
X510445Y556225D01*
X512761Y557184D01*
X514750Y558710D01*
X516276Y560699D01*
X517235Y563015D01*
X517562Y565500D01*
X517235Y567985D01*
X516276Y570301D01*
X514750Y572290D01*
X512761Y573816D01*
X510445Y574775D01*
X507960Y575102D01*
D02*
G37*
G36*
X552960Y576111D02*
X550214Y575749D01*
X547655Y574689D01*
X545457Y573003D01*
X543771Y570806D01*
X542711Y568246D01*
X542349Y565500D01*
X542711Y562754D01*
X543771Y560195D01*
X545457Y557997D01*
X547655Y556311D01*
X550214Y555251D01*
X552960Y554889D01*
X555706Y555251D01*
X558265Y556311D01*
X560463Y557997D01*
X562149Y560195D01*
X563209Y562754D01*
X563571Y565500D01*
X563209Y568246D01*
X562149Y570806D01*
X560463Y573003D01*
X558265Y574689D01*
X555706Y575749D01*
X552960Y576111D01*
D02*
G37*
%LPD*%
D12*
X890750Y767750D02*
X930720Y807720D01*
X865750Y767750D02*
X890750D01*
X860250Y762250D02*
X865750Y767750D01*
X888343Y772250D02*
X934343Y818250D01*
X857750Y772250D02*
X888343D01*
X696250Y618750D02*
Y626250D01*
X680749Y603249D02*
X696250Y618750D01*
X647129Y603249D02*
X680749D01*
X729500Y654500D02*
X735500Y660500D01*
X702750Y654500D02*
X729500D01*
X698500Y658750D02*
X702750Y654500D01*
X814250Y659250D02*
X860568D01*
X779351Y694149D02*
X814250Y659250D01*
X753851Y694149D02*
X779351D01*
X771000Y845500D02*
X796000Y820500D01*
Y743250D02*
Y820500D01*
X790500Y737750D02*
X796000Y743250D01*
X697029Y596529D02*
X698034D01*
X690749Y590249D02*
X697029Y596529D01*
X693448Y600355D02*
X695250Y607500D01*
X687411Y596749D02*
X693448Y600355D01*
X647129Y596749D02*
X687411D01*
X647129Y590249D02*
X690749D01*
X661001Y642251D02*
X662500Y643750D01*
X647129Y642251D02*
X661001D01*
X662500Y643750D02*
Y646500D01*
X674750Y658750D01*
X698500D01*
X753250Y694750D02*
X753851Y694149D01*
X667354Y635854D02*
X667750Y636250D01*
X647232Y635854D02*
X667354D01*
X647129Y635751D02*
X647232Y635854D01*
X676250Y632500D02*
Y650250D01*
X673001Y629251D02*
X676250Y632500D01*
X647129Y629251D02*
X673001D01*
X676250Y650250D02*
X677000Y651000D01*
X772000Y852927D02*
Y871500D01*
Y852927D02*
X800500Y824427D01*
Y697250D02*
Y824427D01*
X747000Y847000D02*
X748500Y845500D01*
X747000Y847000D02*
Y871500D01*
X748500Y845500D02*
X771000D01*
X790500Y693750D02*
Y737750D01*
X860568Y659250D02*
X890500Y628500D01*
X785250Y652250D02*
X857750D01*
X813750Y693999D02*
Y694750D01*
X964000Y818250D02*
X978870Y833120D01*
X981710D01*
X934343Y818250D02*
X964000D01*
X930720Y807720D02*
X981710D01*
X850500Y792500D02*
X888500Y830500D01*
X850500Y749750D02*
Y792500D01*
X838064Y803064D02*
X850750D01*
X818750Y783750D02*
X838064Y803064D01*
X818750Y729250D02*
Y783750D01*
X888500Y830500D02*
X935500D01*
X850750Y803064D02*
X851500Y803814D01*
Y804750D01*
X880260Y596750D02*
X901500D01*
X880110Y596900D02*
X880260Y596750D01*
X901500D02*
X906000Y601250D01*
Y636750D01*
X890750Y652000D02*
X906000Y636750D01*
X890750Y652000D02*
Y668500D01*
X890500Y668750D02*
X890750Y668500D01*
X919690Y559440D02*
Y663560D01*
X894290Y688960D02*
X919690Y663560D01*
X818789Y688960D02*
X894290D01*
X923750Y519750D02*
Y671000D01*
X900000Y694750D02*
X923750Y671000D01*
X822250Y694750D02*
X900000D01*
X934750Y580750D02*
X935375Y581375D01*
X969375D01*
X970000Y582000D01*
X857750Y652250D02*
X875543Y634457D01*
X813750Y693999D02*
X818789Y688960D01*
X921000Y517000D02*
X923750Y519750D01*
X893650Y555750D02*
X916000D01*
X919690Y559440D01*
X893400Y556000D02*
X893650Y555750D01*
X893400Y517000D02*
X921000D01*
D19*
X628250Y619750D02*
D03*
X628504Y605780D02*
D03*
X646504Y687780D02*
D03*
X646250Y701750D02*
D03*
D67*
X537815Y671830D02*
G03*
X537815Y671830I-16635J0D01*
G01*
X531616Y684784D02*
X564000D01*
X532765Y683768D02*
X564000D01*
X530211Y685800D02*
X564000D01*
X534544Y681736D02*
X564000D01*
X533727Y682752D02*
X564000D01*
X486000Y694944D02*
X564000D01*
X486000Y693928D02*
X564000D01*
X486000Y695960D02*
X564000D01*
X528401Y686816D02*
X564000D01*
X486000Y692912D02*
X564000D01*
X537579Y674624D02*
X564000D01*
X537720Y673608D02*
X564000D01*
X537373Y675640D02*
X564000D01*
X537245Y667512D02*
X564000D01*
X537657Y669544D02*
X564000D01*
X535833Y679704D02*
X564000D01*
X536336Y678688D02*
X564000D01*
X535240Y680720D02*
X564000D01*
X537100Y676656D02*
X564000D01*
X536755Y677672D02*
X564000D01*
X486000Y688848D02*
X564000D01*
X525725Y687832D02*
X564000D01*
X486000D02*
X516635D01*
X486000Y686816D02*
X513959D01*
X486000Y685800D02*
X512149D01*
X486000Y676656D02*
X505260D01*
X486000Y675640D02*
X504987D01*
X486000Y674624D02*
X504781D01*
X486000Y673608D02*
X504640D01*
X486000Y672592D02*
X504562D01*
X537798D02*
X564000D01*
X537813Y671576D02*
X564000D01*
X486000D02*
X504547D01*
X537484Y668528D02*
X564000D01*
X537766Y670560D02*
X564000D01*
X486000Y669544D02*
X504703D01*
X486000Y668528D02*
X504876D01*
X486000Y670560D02*
X504594D01*
X486000Y666496D02*
X505423D01*
X486000Y667512D02*
X505115D01*
X486000Y602488D02*
X575500D01*
X486000Y601472D02*
X575500D01*
X486000Y603504D02*
X575500D01*
X575500Y647500D02*
X575500Y586000D01*
X486000Y600456D02*
X575500D01*
X486000Y598424D02*
X575500D01*
X486000Y597408D02*
X575500D01*
X486000Y599440D02*
X575500D01*
X486000Y595376D02*
X575500D01*
X486000Y596392D02*
X575500D01*
X492736Y588264D02*
X575500D01*
X493752Y587248D02*
X575500D01*
X491720Y589280D02*
X575500D01*
X495000Y586000D02*
X575500Y586000D01*
X494768Y586232D02*
X575500D01*
X487656Y593344D02*
X575500D01*
X488672Y592328D02*
X575500D01*
X486640Y594360D02*
X575500D01*
X490704Y590296D02*
X575500D01*
X489688Y591312D02*
X575500D01*
X536555Y665480D02*
X564000D01*
X536095Y664464D02*
X564000D01*
X536937Y666496D02*
X564000D01*
Y659000D02*
Y704000D01*
X535549Y663448D02*
X564000D01*
X486000Y664464D02*
X506265D01*
X534906Y662432D02*
X564000D01*
X486000Y665480D02*
X505805D01*
X486000Y595000D02*
Y702000D01*
X533266Y660400D02*
X564000D01*
X532217Y659384D02*
X564000D01*
X534152Y661416D02*
X564000D01*
X572000Y651000D02*
X575500Y647500D01*
X564000Y659000D02*
X572000Y651000D01*
X529372Y657352D02*
X565648D01*
X527235Y656336D02*
X566664D01*
X530952Y658368D02*
X564632D01*
X523215Y655320D02*
X567680D01*
X486000Y595000D02*
X495000Y586000D01*
X486000Y697992D02*
X564000D01*
X486000Y690880D02*
X564000D01*
X486000Y699008D02*
X564000D01*
X486000Y654304D02*
X568696D01*
X486000Y689864D02*
X564000D01*
X484928Y703072D02*
X564000D01*
X485944Y702056D02*
X564000D01*
X484000Y704000D02*
X564000D01*
X486000Y700024D02*
X564000D01*
X486000Y701040D02*
X564000D01*
X486000Y647192D02*
X575500D01*
X486000Y646176D02*
X575500D01*
X486000Y648208D02*
X574792D01*
X486000Y644144D02*
X575500D01*
X486000Y645160D02*
X575500D01*
X486000Y652272D02*
X570728D01*
X486000Y651256D02*
X571744D01*
X486000Y653288D02*
X569712D01*
X486000Y649224D02*
X573776D01*
X486000Y650240D02*
X572760D01*
X486000Y682752D02*
X508633D01*
X486000Y681736D02*
X507816D01*
X486000Y680720D02*
X507120D01*
X486000Y679704D02*
X506527D01*
X486000Y678688D02*
X506025D01*
X486000Y696976D02*
X564000D01*
X486000Y691896D02*
X564000D01*
X484000Y704000D02*
X486000Y702000D01*
Y684784D02*
X510744D01*
X486000Y683768D02*
X509595D01*
X486000Y658368D02*
X511408D01*
X486000Y657352D02*
X512988D01*
X486000Y659384D02*
X510143D01*
X486000Y655320D02*
X519145D01*
X486000Y656336D02*
X515125D01*
X486000Y663448D02*
X506811D01*
X486000Y662432D02*
X507454D01*
X486000Y677672D02*
X505605D01*
X486000Y660400D02*
X509094D01*
X486000Y661416D02*
X508208D01*
X486000Y617728D02*
X575500D01*
X486000Y616712D02*
X575500D01*
X486000Y618744D02*
X575500D01*
X486000Y614680D02*
X575500D01*
X486000Y615696D02*
X575500D01*
X486000Y622808D02*
X575500D01*
X486000Y621792D02*
X575500D01*
X486000Y623824D02*
X575500D01*
X486000Y619760D02*
X575500D01*
X486000Y620776D02*
X575500D01*
X486000Y607568D02*
X575500D01*
X486000Y606552D02*
X575500D01*
X486000Y608584D02*
X575500D01*
X486000Y604520D02*
X575500D01*
X486000Y605536D02*
X575500D01*
X486000Y612648D02*
X575500D01*
X486000Y611632D02*
X575500D01*
X486000Y613664D02*
X575500D01*
X486000Y609600D02*
X575500D01*
X486000Y610616D02*
X575500D01*
X486000Y637032D02*
X575500D01*
X486000Y636016D02*
X575500D01*
X486000Y638048D02*
X575500D01*
X486000Y633984D02*
X575500D01*
X486000Y635000D02*
X575500D01*
X486000Y642112D02*
X575500D01*
X486000Y641096D02*
X575500D01*
X486000Y643128D02*
X575500D01*
X486000Y639064D02*
X575500D01*
X486000Y640080D02*
X575500D01*
X486000Y627888D02*
X575500D01*
X486000Y626872D02*
X575500D01*
X486000Y628904D02*
X575500D01*
X486000Y624840D02*
X575500D01*
X486000Y625856D02*
X575500D01*
X486000Y631952D02*
X575500D01*
X486000Y632968D02*
X575500D01*
X486000Y629920D02*
X575500D01*
X486000Y630936D02*
X575500D01*
D69*
X868000Y461702D02*
Y517000D01*
Y452750D02*
Y461702D01*
X877548D02*
X888500Y450750D01*
X868000Y461702D02*
X877548D01*
X768358Y433250D02*
X848500D01*
X868000Y452750D01*
X634250Y840750D02*
Y873128D01*
X888500Y450750D02*
X913680D01*
X968730Y505800D01*
X739000Y462608D02*
X768358Y433250D01*
X570250Y430000D02*
X708250D01*
X551000Y449250D02*
X570250Y430000D01*
X551000Y449250D02*
Y502750D01*
X585500Y537250D01*
X708250Y430000D02*
X739000Y460750D01*
X635290Y661291D02*
X650232D01*
X668758Y679816D01*
Y682516D01*
X585500Y638000D02*
X606500Y659000D01*
X585500Y537250D02*
Y638000D01*
X634250Y873128D02*
X678392Y917270D01*
X817357D01*
X818627Y916000D01*
X883750D01*
X923500Y876250D01*
Y861250D02*
Y876250D01*
X958250Y779110D02*
Y797500D01*
Y779110D02*
X980440Y756920D01*
X981710D01*
X606500Y659000D02*
Y686000D01*
X562500Y730000D02*
X606500Y686000D01*
X562500Y730000D02*
Y784000D01*
X609889Y833500D02*
X630589Y812800D01*
X739000Y460750D02*
Y462608D01*
Y491500D01*
X562500Y784000D02*
X562750Y784250D01*
Y827642D02*
X568608Y833500D01*
X609889D01*
X630589Y812800D02*
X674370D01*
X562750Y784250D02*
Y827642D01*
X778510Y595630D02*
X799890Y574250D01*
X778510Y595630D02*
Y596900D01*
X799890Y574250D02*
X861928D01*
X866615Y569564D01*
Y557385D02*
Y569564D01*
Y557385D02*
X868000Y556000D01*
X968730Y505800D02*
X970000D01*
X982000Y673250D02*
Y756630D01*
X981710Y756920D02*
X982000Y756630D01*
Y673250D02*
X990717Y664533D01*
Y514106D02*
Y664533D01*
X986031Y509420D02*
X990717Y514106D01*
X973620Y509420D02*
X986031D01*
X970000Y505800D02*
X973620Y509420D01*
X868000Y517000D02*
Y556000D01*
D70*
X669750Y893750D02*
X682750Y906750D01*
X669750Y851500D02*
Y893750D01*
X682750Y906750D02*
X813000D01*
X756250Y652066D02*
Y665262D01*
X728250Y693262D02*
X756250Y665262D01*
X728250Y693262D02*
Y794000D01*
X744750Y655715D02*
Y663299D01*
X718500Y689549D02*
X744750Y663299D01*
X718500Y689549D02*
Y787000D01*
X726375Y622191D02*
X756250Y652066D01*
X714750Y807500D02*
X728250Y794000D01*
X714750Y807500D02*
Y831750D01*
X697000Y849500D02*
X714750Y831750D01*
X697000Y849500D02*
Y871500D01*
X705062Y826188D02*
X705230Y800270D01*
X689250Y842000D02*
X705062Y826188D01*
X679250Y842000D02*
X689250D01*
X705230Y800270D02*
X718500Y787000D01*
X669750Y851500D02*
X679250Y842000D01*
X733746Y644711D02*
X744750Y655715D01*
X720831Y644711D02*
X733746D01*
X724473Y622191D02*
X726375D01*
X822000Y871500D02*
Y897750D01*
X813000Y906750D02*
X822000Y897750D01*
D71*
X842600Y556000D02*
D03*
Y517000D02*
D03*
X880110Y596900D02*
D03*
D72*
X868000Y556000D02*
D03*
X893400D02*
D03*
X868000Y517000D02*
D03*
X893400D02*
D03*
X778510Y596900D02*
D03*
X803910D02*
D03*
X829310D02*
D03*
X854710D02*
D03*
X753110D02*
D03*
D73*
X970000Y910000D02*
D03*
Y450000D02*
D03*
X510000Y910000D02*
D03*
Y450000D02*
D03*
D74*
X722000Y871500D02*
D03*
X697000D02*
D03*
X747000D02*
D03*
X772000D02*
D03*
X797000D02*
D03*
X739000Y491500D02*
D03*
X764000D02*
D03*
X714000D02*
D03*
X689000D02*
D03*
X664000D02*
D03*
D75*
X822000Y871500D02*
D03*
X639000Y491500D02*
D03*
D76*
X551180Y671830D02*
D03*
X521180D02*
D03*
X581180D02*
D03*
D77*
X970000Y607400D02*
D03*
Y582000D02*
D03*
Y556600D02*
D03*
Y531200D02*
D03*
Y632800D02*
D03*
X981710Y833120D02*
D03*
Y807720D02*
D03*
Y782320D02*
D03*
D78*
X970000Y505800D02*
D03*
X981710Y756920D02*
D03*
D79*
X924560Y734060D02*
D03*
Y686060D02*
D03*
D80*
X755500Y809500D02*
D03*
X755250Y820250D02*
D03*
X828750Y701750D02*
D03*
X833500Y707000D02*
D03*
X828500Y712500D02*
D03*
X812000Y686750D02*
D03*
X804500Y686500D02*
D03*
X881500Y652000D02*
D03*
X904750Y654250D02*
D03*
X904250Y662750D02*
D03*
X779000Y931000D02*
D03*
X848750Y930250D02*
D03*
X946000Y871500D02*
D03*
X926000Y900750D02*
D03*
X911250Y926250D02*
D03*
X825000Y779750D02*
D03*
X839750Y779500D02*
D03*
X832000D02*
D03*
X603000Y773250D02*
D03*
Y781000D02*
D03*
X603250Y788250D02*
D03*
X642762Y661291D02*
D03*
X645000Y653250D02*
D03*
X633500Y672750D02*
D03*
X628000Y667000D02*
D03*
X627500Y679250D02*
D03*
X642750Y671000D02*
D03*
X637250Y679500D02*
D03*
X632000Y686750D02*
D03*
X654750Y654500D02*
D03*
X634250Y656750D02*
D03*
X797000Y491250D02*
D03*
X793000Y509250D02*
D03*
Y525000D02*
D03*
X802750Y501000D02*
D03*
X803000Y515250D02*
D03*
X802500Y530000D02*
D03*
X802000Y545250D02*
D03*
X802250Y558250D02*
D03*
X914000Y477250D02*
D03*
X925000Y482500D02*
D03*
X931750Y489500D02*
D03*
X940500Y499000D02*
D03*
X942500Y508000D02*
D03*
X941500Y516750D02*
D03*
X942000Y523750D02*
D03*
X947250Y532750D02*
D03*
X965500Y647500D02*
D03*
X971250Y655250D02*
D03*
X964000Y660750D02*
D03*
X959250Y653250D02*
D03*
X971750Y663000D02*
D03*
X952500Y659750D02*
D03*
X938750Y658500D02*
D03*
X951500Y647000D02*
D03*
X940000Y646500D02*
D03*
X945750Y653750D02*
D03*
X994500Y686250D02*
D03*
Y699750D02*
D03*
Y711750D02*
D03*
X994250Y722250D02*
D03*
X994500Y731750D02*
D03*
X949250Y750000D02*
D03*
X941250Y757250D02*
D03*
X922000Y757000D02*
D03*
X912500Y766250D02*
D03*
X927750Y774250D02*
D03*
X921500Y781500D02*
D03*
X935500Y795750D02*
D03*
X930000Y788750D02*
D03*
X591000Y919000D02*
D03*
X582500Y912500D02*
D03*
X572750Y901750D02*
D03*
X559000Y892250D02*
D03*
X548000Y879250D02*
D03*
X533750Y873500D02*
D03*
X521000Y864000D02*
D03*
X495750Y778250D02*
D03*
X499000Y795250D02*
D03*
X499781Y814070D02*
D03*
X498000Y823250D02*
D03*
X499750Y839750D02*
D03*
X499250Y849250D02*
D03*
X499000Y863500D02*
D03*
X570750Y453750D02*
D03*
X568750Y465500D02*
D03*
X570000Y481750D02*
D03*
X569500Y496000D02*
D03*
X637500Y452500D02*
D03*
X711750Y458500D02*
D03*
X690250Y454000D02*
D03*
X653000Y453000D02*
D03*
X669750Y453500D02*
D03*
X680000Y453750D02*
D03*
X702250D02*
D03*
X645500Y458250D02*
D03*
X661000Y454250D02*
D03*
X674000Y611000D02*
D03*
X682500Y616750D02*
D03*
X683000Y625750D02*
D03*
X674000Y620000D02*
D03*
X822500Y503250D02*
D03*
X822000Y516000D02*
D03*
X822750Y532750D02*
D03*
X822500Y548500D02*
D03*
X822000Y560750D02*
D03*
X882500Y754000D02*
D03*
X883000Y791500D02*
D03*
X890500Y783750D02*
D03*
X887750Y760000D02*
D03*
X877750D02*
D03*
X637250Y620000D02*
D03*
X618250Y619000D02*
D03*
X622500Y629750D02*
D03*
X631500Y633750D02*
D03*
X923500Y861250D02*
D03*
X958250Y797500D02*
D03*
X715250Y895250D02*
D03*
X727750D02*
D03*
X664500Y835750D02*
D03*
X630250Y829500D02*
D03*
X643750Y835000D02*
D03*
X653000Y844750D02*
D03*
X637500Y845000D02*
D03*
X624250D02*
D03*
X608250D02*
D03*
X724250Y852500D02*
D03*
X721750Y889250D02*
D03*
X762750Y804250D02*
D03*
X751000Y800750D02*
D03*
X777250Y806750D02*
D03*
X775750Y793500D02*
D03*
X763250Y793250D02*
D03*
X751250Y789750D02*
D03*
X739250D02*
D03*
X739500Y800500D02*
D03*
X771501Y754001D02*
D03*
X774750Y747000D02*
D03*
X764500Y747250D02*
D03*
X758500Y752750D02*
D03*
X757750Y761750D02*
D03*
X771250Y647750D02*
D03*
X806500Y617000D02*
D03*
X735500Y660500D02*
D03*
X661250Y737750D02*
D03*
Y745750D02*
D03*
X657000Y754500D02*
D03*
X612500Y740500D02*
D03*
X602750Y746250D02*
D03*
X603000Y758500D02*
D03*
X698034Y596529D02*
D03*
X695250Y607500D02*
D03*
X696250Y626250D02*
D03*
X753851Y694149D02*
D03*
X667750Y636250D02*
D03*
X677000Y651000D02*
D03*
X800500Y697250D02*
D03*
X790500Y693750D02*
D03*
X813750Y694750D02*
D03*
X857750Y772250D02*
D03*
X860250Y762250D02*
D03*
X850500Y749750D02*
D03*
X935500Y830500D02*
D03*
X851500Y804750D02*
D03*
X818750Y729250D02*
D03*
X890500Y668750D02*
D03*
X934750Y580750D02*
D03*
X785250Y652250D02*
D03*
X822250Y694750D02*
D03*
D81*
X875543Y634457D02*
D03*
X890500Y628500D02*
D03*
D82*
X552960Y565500D02*
D03*
D83*
X507960D02*
D03*
D84*
X668758Y682516D02*
D03*
X696228D02*
D03*
D85*
X647129Y577249D02*
D03*
Y583749D02*
D03*
Y590249D02*
D03*
Y596749D02*
D03*
Y603249D02*
D03*
Y609749D02*
D03*
Y616249D02*
D03*
Y622751D02*
D03*
Y629251D02*
D03*
Y635751D02*
D03*
Y642251D02*
D03*
Y648751D02*
D03*
X718371Y577249D02*
D03*
Y583749D02*
D03*
Y590249D02*
D03*
Y596749D02*
D03*
Y603249D02*
D03*
Y609749D02*
D03*
Y616249D02*
D03*
Y622751D02*
D03*
Y629251D02*
D03*
Y635751D02*
D03*
Y642251D02*
D03*
Y648751D02*
D03*
D86*
X674370Y812800D02*
D03*
Y749300D02*
D03*
D87*
X627380Y782828D02*
D03*
D88*
Y746252D02*
D03*
D89*
X611001Y577249D02*
X647129D01*
X603250Y629250D02*
X635290Y661291D01*
X603250Y585000D02*
Y629250D01*
Y585000D02*
X611001Y577249D01*
D90*
X771250Y647750D02*
Y663250D01*
X741500Y693000D02*
X771250Y663250D01*
X741500Y693000D02*
X743174Y729076D01*
X759424Y745326D01*
X771250Y638750D02*
Y647750D01*
Y638750D02*
X793000Y617000D01*
X806500D01*
M02*
