M48
;Layer_Color=9474304
;FILE_FORMAT=4:4
METRIC,LZ
;TYPE=PLATED
T1F00S00C0.3000
T2F00S00C0.3048
T3F00S00C0.6000
T4F00S00C0.8128
T5F00S00C1.0000
T6F00S00C1.2000
T7F00S00C1.6000
T8F00S00C1.8000
;TYPE=NON_PLATED
T9F00S00C3.2000
%
T01
X00797Y0049125
X0080275Y00501
X00803Y0051525
X008025Y0053
X00802Y0054525
X0080225Y0055825
X00822Y0056075
X008225Y005485
X0082275Y0053275
X00822Y00516
X008225Y0050325
X00914Y0047725
X00925Y004825
X0093175Y004895
X009405Y00499
X009425Y00508
X009415Y0051675
X00942Y0052375
X0094725Y0053275
X0093475Y0058075
X0094Y006465
X009515Y00647
X0094575Y0065375
X0093875Y006585
X009525Y0065975
X00964Y0066075
X0097175Y00663
X0097125Y0065525
X009655Y006475
X0095925Y0065325
X0090475Y0065425
X0090425Y0066275
X008905Y0066875
X008815Y00652
X0082225Y0069475
X0081375
X00812Y0068675
X008045Y006865
X008005Y0069725
X0082875Y0070175
X008335Y00707
X008285Y007125
X0081875Y0072925
X008505Y0074975
X0086025Y0076225
X0085775Y0077225
X0083975Y007795
X00832
X00825Y0077975
X008905Y0078375
X00883Y007915
X0088775Y0076
X0087775
X008825Y00754
X009125Y0076625
X00922Y00757
X0094125Y0075725
X0094925Y0075
X0092775Y0077425
X009215Y007815
X0093Y0078875
X009945Y0073175
X0099425Y0072225
X009945Y0071175
Y0069975
Y0068625
X008065Y00617
X0078525Y0065225
X0077125Y0064775
X007355Y006605
X00753851Y00694149
X007905Y0069375
X0077475Y00747
X00771501Y00754001
X007645Y0074725
X007585Y0075275
X0075775Y0076175
X0075125Y0078975
X0073925
X0076325Y0079325
X0077575Y007935
X00657Y007545
X0066125Y0074575
Y0073775
X006125Y007405
X0060275Y0074625
X00603Y007585
Y0077325
Y00781
X0060325Y0078825
X0049575Y0077825
X00632Y0068675
X006275Y0067925
X0063725Y006795
X006335Y0067275
X0064275Y00671
X00642762Y00661291
X00645Y0065325
X0065475Y006545
X0063425Y0065675
X00628Y00667
X006315Y0063375
X006225Y0062975
X0061825Y00619
X0063725Y0062
X00674
Y00611
X006825Y0061675
X00683Y0062575
X0069625Y0062625
X0069525Y006075
X00698034Y00596529
X0066775Y0063625
X00677Y00651
X0068Y0045375
X0069025Y00454
X0070225Y0045375
X0071175Y004585
X0066975Y004535
X00661Y0045425
X00653Y00453
X006455Y0045825
X006375Y004525
X0057075Y0045375
X0056875Y004655
X0057Y0048175
X005695Y00496
X00793Y0050925
Y00525
X0077725Y0080675
X0076275Y0080425
X007555Y008095
X0075525Y0082025
X00751Y0080075
X007395Y008005
X0072425Y008525
X0072175Y0088925
X0072775Y0089525
X0071525
X00779Y00931
X00591Y00919
X005825Y009125
X0057275Y0090175
X00559Y0089225
X00548Y0087925
X0053375Y008735
X00521Y00864
X00499Y008635
X0049925Y0084925
X0049975Y0083975
X00498Y0082325
X00499781Y0081407
X00499Y0079525
X0060825Y00845
X0062425
X006375
X00653Y0084475
X0064375Y00835
X0063025Y008295
X006645Y0083575
X008515Y0080475
X009355Y0079575
X0095825Y007975
X009355Y008305
X009235Y0086125
X00946Y008715
X00926Y0090075
X0091125Y0092625
X0084875Y0093025
T02
X00875543Y00634457
X008905Y006285
T03
X0092456Y0068606
Y0073406
T04
X008426Y00517
X00868
X008934
Y00556
X00868
X008426
X0085471Y005969
X0082931
X0080391
X0088011
X0097Y006074
Y00582
Y005566
Y005312
Y005058
Y006328
X0098171Y0075692
Y0078232
X0077851Y005969
X0075311
X0098171Y0080772
Y0083312
T05
X00639Y004915
X00664
X00689
X00714
X00739
X00764
X00772Y008715
X00747
X00722
X00697
X00797
X00822
T06
X0052118Y0067183
X0055118
X0058118
T07
X0050796Y005655
T08
X0055296Y005655
T09
X0097Y0045
X0051
Y0091
X0097Y0091
M30
