G04*
G04 #@! TF.GenerationSoftware,Altium Limited,Altium Designer,19.1.8 (144)*
G04*
G04 Layer_Color=16711935*
%FSLAX44Y44*%
%MOMM*%
G71*
G01*
G75*
%ADD38R,0.9652X0.9652*%
%ADD56R,1.7272X1.9812*%
%ADD57O,1.7272X1.9812*%
%ADD58C,5.0000*%
%ADD59O,2.0032X2.7032*%
%ADD60R,2.0032X2.7032*%
%ADD61C,2.2032*%
%ADD62O,1.9812X1.7272*%
%ADD63R,1.9812X1.7272*%
%ADD64C,1.5032*%
%ADD65C,2.0032*%
%ADD66C,1.8032*%
%ADD91R,2.2032X2.7432*%
%ADD92O,1.4256X0.4096*%
%ADD93R,3.7032X3.2032*%
%ADD94R,1.2032X1.0032*%
%ADD95R,1.2032X1.0032*%
D38*
X628250Y619750D02*
D03*
X628504Y605780D02*
D03*
X646504Y687780D02*
D03*
X646250Y701750D02*
D03*
D56*
X842600Y556000D02*
D03*
Y517000D02*
D03*
X880110Y596900D02*
D03*
D57*
X868000Y556000D02*
D03*
X893400D02*
D03*
X868000Y517000D02*
D03*
X893400D02*
D03*
X778510Y596900D02*
D03*
X803910D02*
D03*
X829310D02*
D03*
X854710D02*
D03*
X753110D02*
D03*
D58*
X970000Y910000D02*
D03*
Y450000D02*
D03*
X510000Y910000D02*
D03*
Y450000D02*
D03*
D59*
X722000Y871500D02*
D03*
X697000D02*
D03*
X747000D02*
D03*
X772000D02*
D03*
X797000D02*
D03*
X739000Y491500D02*
D03*
X764000D02*
D03*
X714000D02*
D03*
X689000D02*
D03*
X664000D02*
D03*
D60*
X822000Y871500D02*
D03*
X639000Y491500D02*
D03*
D61*
X551180Y671830D02*
D03*
X521180D02*
D03*
X581180D02*
D03*
D62*
X970000Y607400D02*
D03*
Y582000D02*
D03*
Y556600D02*
D03*
Y531200D02*
D03*
Y632800D02*
D03*
X981710Y833120D02*
D03*
Y807720D02*
D03*
Y782320D02*
D03*
D63*
X970000Y505800D02*
D03*
X981710Y756920D02*
D03*
D64*
X924560Y734060D02*
D03*
Y686060D02*
D03*
D65*
X552960Y565500D02*
D03*
D66*
X507960D02*
D03*
D91*
X668758Y682516D02*
D03*
X696228D02*
D03*
D92*
X647129Y577249D02*
D03*
Y583749D02*
D03*
Y590249D02*
D03*
Y596749D02*
D03*
Y603249D02*
D03*
Y609749D02*
D03*
Y616249D02*
D03*
Y622751D02*
D03*
Y629251D02*
D03*
Y635751D02*
D03*
Y642251D02*
D03*
Y648751D02*
D03*
X718371Y577249D02*
D03*
Y583749D02*
D03*
Y590249D02*
D03*
Y596749D02*
D03*
Y603249D02*
D03*
Y609749D02*
D03*
Y616249D02*
D03*
Y622751D02*
D03*
Y629251D02*
D03*
Y635751D02*
D03*
Y642251D02*
D03*
Y648751D02*
D03*
D93*
X674370Y812800D02*
D03*
Y749300D02*
D03*
D94*
X627380Y782828D02*
D03*
D95*
Y746252D02*
D03*
M02*
