G04*
G04 #@! TF.GenerationSoftware,Altium Limited,Altium Designer,19.1.8 (144)*
G04*
G04 Layer_Physical_Order=1*
G04 Layer_Color=255*
%FSLAX44Y44*%
%MOMM*%
G71*
G01*
G75*
%ADD12C,0.2540*%
%ADD13C,0.5000*%
G04:AMPARAMS|DCode=18|XSize=0.8mm|YSize=0.965mm|CornerRadius=0mm|HoleSize=0mm|Usage=FLASHONLY|Rotation=315.000|XOffset=0mm|YOffset=0mm|HoleType=Round|Shape=Rectangle|*
%AMROTATEDRECTD18*
4,1,4,-0.6240,-0.0583,0.0583,0.6240,0.6240,0.0583,-0.0583,-0.6240,-0.6240,-0.0583,0.0*
%
%ADD18ROTATEDRECTD18*%

%ADD19R,0.7620X0.7620*%
%ADD20P,1.0776X4X360.0*%
%ADD21R,0.8000X0.9650*%
%ADD22P,1.0776X4X270.0*%
%ADD23R,0.9650X0.8000*%
%ADD24R,2.3000X2.5000*%
%ADD25R,3.2000X1.0500*%
%ADD26R,10.0000X10.4500*%
%ADD27R,4.0000X2.0000*%
%ADD28R,2.0000X4.0000*%
G04:AMPARAMS|DCode=29|XSize=0.45mm|YSize=1mm|CornerRadius=0mm|HoleSize=0mm|Usage=FLASHONLY|Rotation=45.000|XOffset=0mm|YOffset=0mm|HoleType=Round|Shape=Rectangle|*
%AMROTATEDRECTD29*
4,1,4,0.1945,-0.5127,-0.5127,0.1945,-0.1945,0.5127,0.5127,-0.1945,0.1945,-0.5127,0.0*
%
%ADD29ROTATEDRECTD29*%

G04:AMPARAMS|DCode=30|XSize=2mm|YSize=1.5mm|CornerRadius=0mm|HoleSize=0mm|Usage=FLASHONLY|Rotation=135.000|XOffset=0mm|YOffset=0mm|HoleType=Round|Shape=Rectangle|*
%AMROTATEDRECTD30*
4,1,4,1.2374,-0.1768,0.1768,-1.2374,-1.2374,0.1768,-0.1768,1.2374,1.2374,-0.1768,0.0*
%
%ADD30ROTATEDRECTD30*%

%ADD31R,1.5240X1.2700*%
%ADD32R,1.2700X1.5240*%
%ADD33O,0.3000X2.1000*%
%ADD34O,2.1000X0.3000*%
%ADD35R,2.1000X3.0000*%
%ADD36R,0.8000X1.6000*%
%ADD67C,0.1270*%
%ADD68C,0.4000*%
%ADD69C,1.0000*%
%ADD70C,0.8000*%
%ADD71R,1.5240X1.7780*%
%ADD72O,1.5240X1.7780*%
%ADD73C,3.0000*%
%ADD74O,1.8000X2.5000*%
%ADD75R,1.8000X2.5000*%
%ADD76C,2.0000*%
%ADD77O,1.7780X1.5240*%
%ADD78R,1.7780X1.5240*%
%ADD79C,1.3000*%
%ADD80C,0.6000*%
%ADD81C,0.6096*%
%ADD82C,1.8000*%
%ADD83C,1.6000*%
G36*
X951915Y939278D02*
X949710Y937927D01*
X945591Y934409D01*
X942073Y930290D01*
X939243Y925671D01*
X937170Y920667D01*
X935906Y915400D01*
X935481Y910000D01*
X935906Y904600D01*
X937170Y899333D01*
X939243Y894329D01*
X942073Y889710D01*
X945591Y885591D01*
X949710Y882073D01*
X954329Y879243D01*
X959333Y877170D01*
X964600Y875906D01*
X970000Y875481D01*
X975400Y875906D01*
X980667Y877170D01*
X985671Y879243D01*
X990290Y882073D01*
X994409Y885591D01*
X997927Y889710D01*
X998528Y890691D01*
X999750Y890346D01*
Y469654D01*
X998528Y469309D01*
X997927Y470290D01*
X994409Y474409D01*
X990290Y477927D01*
X985671Y480757D01*
X980667Y482830D01*
X975400Y484094D01*
X970000Y484519D01*
X964600Y484094D01*
X959333Y482830D01*
X954329Y480757D01*
X949710Y477927D01*
X945591Y474409D01*
X942073Y470290D01*
X939243Y465671D01*
X937170Y460667D01*
X935906Y455400D01*
X935481Y450000D01*
X935906Y444600D01*
X937170Y439333D01*
X939243Y434329D01*
X942073Y429710D01*
X945591Y425591D01*
X949710Y422073D01*
X950283Y421722D01*
X949938Y420500D01*
X530062D01*
X529717Y421722D01*
X530290Y422073D01*
X534409Y425591D01*
X537927Y429710D01*
X540757Y434329D01*
X542830Y439333D01*
X544094Y444600D01*
X544519Y450000D01*
X544094Y455400D01*
X542830Y460667D01*
X540757Y465671D01*
X537927Y470290D01*
X534409Y474409D01*
X530290Y477927D01*
X525671Y480757D01*
X520667Y482830D01*
X515400Y484094D01*
X510000Y484519D01*
X504600Y484094D01*
X499333Y482830D01*
X494329Y480757D01*
X489710Y477927D01*
X485591Y474409D01*
X482073Y470290D01*
X480722Y468085D01*
X479500Y468430D01*
Y891570D01*
X480722Y891915D01*
X482073Y889710D01*
X485591Y885591D01*
X489710Y882073D01*
X494329Y879243D01*
X499333Y877170D01*
X504600Y875906D01*
X510000Y875481D01*
X515400Y875906D01*
X520667Y877170D01*
X525671Y879243D01*
X530290Y882073D01*
X534409Y885591D01*
X537927Y889710D01*
X540757Y894329D01*
X542830Y899333D01*
X544094Y904600D01*
X544519Y910000D01*
X544094Y915400D01*
X542830Y920667D01*
X540757Y925671D01*
X537927Y930290D01*
X534409Y934409D01*
X530290Y937927D01*
X528085Y939278D01*
X528430Y940500D01*
X951570D01*
X951915Y939278D01*
D02*
G37*
%LPC*%
G36*
X880250Y922145D02*
X862250D01*
X861087Y921663D01*
X860605Y920500D01*
Y918681D01*
X858837Y916913D01*
X858355Y915750D01*
Y902932D01*
X842087Y886663D01*
X841605Y885500D01*
Y865750D01*
X842087Y864587D01*
X848076Y858597D01*
X847621Y857256D01*
X837955Y855975D01*
X837000Y856811D01*
Y890000D01*
X807000D01*
Y854542D01*
X789210D01*
X788908Y854417D01*
X788581Y854417D01*
X757372Y841520D01*
X757140Y841289D01*
X756837Y841163D01*
X756712Y840862D01*
X756480Y840631D01*
X756480Y840303D01*
X756355Y840000D01*
Y828681D01*
X750818Y823145D01*
X707250D01*
X707225Y823135D01*
X707199Y823145D01*
X706646Y822895D01*
X706087Y822663D01*
X706076Y822638D01*
X706051Y822627D01*
X700934Y817183D01*
X699664Y817163D01*
X691895Y824931D01*
Y835319D01*
X693163Y836587D01*
X693645Y837750D01*
X693163Y838913D01*
X685145Y846932D01*
Y856916D01*
X685993Y857219D01*
X686415Y857282D01*
X688626Y855468D01*
X691232Y854075D01*
X694060Y853217D01*
X697000Y852927D01*
X699940Y853217D01*
X702768Y854075D01*
X705374Y855468D01*
X707658Y857342D01*
X707823Y857350D01*
X709605Y855568D01*
Y846500D01*
X710087Y845337D01*
X711250Y844855D01*
X734500D01*
X735663Y845337D01*
X736413Y846087D01*
X736895Y847250D01*
Y855403D01*
X738043Y855946D01*
X738626Y855468D01*
X741232Y854075D01*
X744060Y853217D01*
X747000Y852927D01*
X749940Y853217D01*
X752768Y854075D01*
X755374Y855468D01*
X757658Y857342D01*
X758865Y858813D01*
X760135D01*
X761342Y857342D01*
X763626Y855468D01*
X766232Y854075D01*
X769060Y853217D01*
X772000Y852927D01*
X774940Y853217D01*
X777768Y854075D01*
X780374Y855468D01*
X782658Y857342D01*
X784532Y859626D01*
X785925Y862232D01*
X786783Y865060D01*
X787073Y868000D01*
Y875000D01*
X786783Y877941D01*
X785925Y880768D01*
X784532Y883374D01*
X782658Y885658D01*
X780374Y887532D01*
X777768Y888925D01*
X774940Y889783D01*
X772000Y890072D01*
X769060Y889783D01*
X766232Y888925D01*
X763626Y887532D01*
X761342Y885658D01*
X760135Y884187D01*
X758865D01*
X757658Y885658D01*
X755374Y887532D01*
X752768Y888925D01*
X749940Y889783D01*
X747000Y890072D01*
X744060Y889783D01*
X741232Y888925D01*
X738626Y887532D01*
X738043Y887054D01*
X736895Y887597D01*
Y907750D01*
X736413Y908913D01*
X729913Y915413D01*
X728750Y915895D01*
X682104D01*
X681500Y916145D01*
X615250D01*
X614087Y915663D01*
X601013Y902590D01*
X600587Y902413D01*
X600105Y901250D01*
X600105Y830000D01*
X600587Y828837D01*
X609109Y820314D01*
X609570Y820123D01*
X609991Y819856D01*
X646560Y813494D01*
X647151Y813626D01*
X647747Y813741D01*
X648789Y814427D01*
X648887Y814571D01*
X649048Y814638D01*
X655422Y821012D01*
X660633Y815801D01*
X654914Y810082D01*
X654732Y809643D01*
X654466Y809250D01*
X654498Y809079D01*
X654495Y809072D01*
X653070Y807646D01*
X652944Y807344D01*
X652713Y807113D01*
Y806786D01*
X652588Y806483D01*
X652713Y806181D01*
Y805854D01*
X653199Y804680D01*
X653415Y804464D01*
Y793415D01*
X621666D01*
Y793750D01*
X621184Y794913D01*
X620020Y795395D01*
X614000D01*
X612837Y794913D01*
X608337Y790413D01*
X607855Y789250D01*
Y772000D01*
X608337Y770837D01*
X609500Y770355D01*
X661936D01*
X662092Y770419D01*
X662258Y770386D01*
X662656Y770653D01*
X663100Y770837D01*
X664338Y770585D01*
X680087Y754837D01*
X681250Y754355D01*
X691068D01*
X692087Y753337D01*
X693250Y752855D01*
X694413Y753337D01*
X708663Y767587D01*
X708731Y767751D01*
X708878Y767851D01*
X708965Y768315D01*
X709145Y768750D01*
X709077Y768914D01*
X709110Y769089D01*
X708110Y773839D01*
X707861Y774203D01*
X707709Y774616D01*
X686604Y797471D01*
X686572Y797486D01*
X686558Y797518D01*
X686005Y797748D01*
X685460Y797999D01*
X685427Y797987D01*
X685395Y798000D01*
X684326Y798000D01*
X681264Y801062D01*
X680395Y801423D01*
X680395Y804358D01*
X679913Y805522D01*
X673769Y811666D01*
X673669Y811908D01*
X673202Y812375D01*
X675682Y814855D01*
X678415D01*
X678837Y813837D01*
X687731Y804942D01*
X687879Y804881D01*
X687967Y804746D01*
X688824Y804161D01*
X688925Y804140D01*
X688992Y804061D01*
X689529Y804014D01*
X689837Y803949D01*
X689848Y803924D01*
X690035Y803391D01*
X703323Y788584D01*
X703386Y788555D01*
X703414Y788492D01*
X703945Y788287D01*
X704459Y788040D01*
X704524Y788063D01*
X704588Y788038D01*
X727541Y788605D01*
X728099Y788853D01*
X728663Y789087D01*
X729000Y789423D01*
X734337Y784087D01*
X735500Y783605D01*
X747611D01*
X748097Y782431D01*
X732490Y766825D01*
X731220Y767351D01*
Y768895D01*
X718530D01*
Y757855D01*
X719651D01*
Y753198D01*
X716352Y749898D01*
X715463Y748569D01*
X715151Y747000D01*
Y732945D01*
X713730D01*
Y722756D01*
X712557Y722270D01*
X710895Y723932D01*
Y735750D01*
X710829Y735910D01*
X710862Y736079D01*
X710595Y736474D01*
X710413Y736913D01*
X710254Y736980D01*
X710157Y737122D01*
X702782Y741998D01*
X702175Y742115D01*
X701573Y742242D01*
X686198Y739367D01*
X685788Y739100D01*
X685337Y738913D01*
X679818Y733395D01*
X670579D01*
X669749Y734665D01*
X669919Y735076D01*
Y747726D01*
X669694Y748270D01*
X669498Y748825D01*
X657554Y762123D01*
X657240Y762274D01*
X657001Y762526D01*
X656695Y762535D01*
X656419Y762667D01*
X656090Y762551D01*
X655742Y762560D01*
X654472Y762074D01*
X654219Y761834D01*
X653897Y761701D01*
X653780Y761418D01*
X653558Y761207D01*
X653549Y760859D01*
X653415Y760537D01*
Y759415D01*
X621666D01*
Y761500D01*
X621184Y762663D01*
X620020Y763145D01*
X597750Y763145D01*
X596587Y762663D01*
X592087Y758163D01*
X591605Y757000D01*
Y745500D01*
X592087Y744337D01*
X596295Y740128D01*
X595809Y738955D01*
X584920D01*
X583757Y738473D01*
X583275Y737310D01*
Y712415D01*
X564000D01*
X562837Y711933D01*
X562355Y710770D01*
Y706197D01*
X484000D01*
X483159Y706030D01*
X482446Y705554D01*
X481970Y704841D01*
X481803Y704000D01*
X481970Y703159D01*
X482446Y702446D01*
X483803Y701090D01*
Y595000D01*
X483970Y594159D01*
X484446Y593446D01*
X493446Y584446D01*
X494159Y583970D01*
X495000Y583803D01*
X595000D01*
X595841Y583970D01*
X596554Y584446D01*
X604554Y592446D01*
X605030Y593159D01*
X605197Y594000D01*
Y600105D01*
X630674D01*
Y579224D01*
X598600Y547150D01*
X597555Y545788D01*
X596898Y544202D01*
X596674Y542500D01*
X596674Y542500D01*
Y463858D01*
X596674Y463858D01*
X596898Y462156D01*
X597555Y460570D01*
X598600Y459208D01*
X621458Y436350D01*
X621458Y436350D01*
X622820Y435305D01*
X624406Y434648D01*
X626108Y434424D01*
X716000D01*
X716000Y434424D01*
X717702Y434648D01*
X719288Y435305D01*
X720650Y436350D01*
X743650Y459350D01*
X743650Y459350D01*
X744695Y460712D01*
X745352Y462298D01*
X745576Y464000D01*
X745576Y464000D01*
Y465051D01*
X745663Y465087D01*
X754413Y473837D01*
X754717Y474571D01*
X754868Y474720D01*
X755839Y475133D01*
X756165Y475179D01*
X758232Y474075D01*
X761059Y473217D01*
X764000Y472928D01*
X766941Y473217D01*
X769768Y474075D01*
X772374Y475468D01*
X774658Y477342D01*
X776532Y479626D01*
X777925Y482232D01*
X778783Y485060D01*
X779072Y488000D01*
Y495000D01*
X778783Y497940D01*
X777925Y500768D01*
X776532Y503374D01*
X774658Y505658D01*
X772374Y507532D01*
X769768Y508925D01*
X766941Y509783D01*
X764000Y510073D01*
X761059Y509783D01*
X760879Y509728D01*
X760070Y510810D01*
X760429Y511355D01*
X761750D01*
X762913Y511837D01*
X793663Y542587D01*
X794145Y543750D01*
X794145Y588126D01*
X793942Y588616D01*
X793805Y589128D01*
X793450Y589591D01*
X792243Y592504D01*
X792040Y594052D01*
X792247Y595630D01*
Y598170D01*
X792040Y599748D01*
X792243Y601296D01*
X793450Y604209D01*
X793805Y604672D01*
X793942Y605184D01*
X794145Y605673D01*
Y610750D01*
X793663Y611913D01*
X792500Y612395D01*
X787423D01*
X787090Y612956D01*
X786950Y613665D01*
X806232Y632947D01*
X807405Y632461D01*
Y627000D01*
X807622Y625911D01*
X808239Y624989D01*
X822050Y611177D01*
X821847Y609709D01*
X820790Y608943D01*
X819305Y609262D01*
X819288Y609288D01*
X811990Y616585D01*
X811935Y616720D01*
X811705Y616951D01*
X811037Y617651D01*
X810961Y617740D01*
X810758Y618764D01*
X809759Y620259D01*
X808264Y621258D01*
X806500Y621609D01*
X804736Y621258D01*
X803241Y620259D01*
X802242Y618764D01*
X801891Y617000D01*
X802242Y615236D01*
X803241Y613741D01*
X804736Y612742D01*
X805676Y612555D01*
X806839Y611509D01*
X806957Y611467D01*
X813161Y605263D01*
Y592087D01*
X811962Y590888D01*
X811184Y589723D01*
X810911Y588350D01*
Y470000D01*
X811184Y468627D01*
X811962Y467462D01*
X820260Y459164D01*
X820260Y459164D01*
X821424Y458386D01*
X822798Y458113D01*
X869512D01*
X870885Y458386D01*
X872050Y459164D01*
X873538Y460652D01*
X874316Y461816D01*
X874589Y463190D01*
Y465480D01*
X876520D01*
Y484520D01*
X865480D01*
Y465480D01*
X864288Y465291D01*
X852712D01*
X851520Y465480D01*
Y484520D01*
X850839D01*
X850313Y485790D01*
X851368Y486845D01*
X910182D01*
X911270Y487062D01*
X912193Y487678D01*
X926321Y501807D01*
X926938Y502730D01*
X927155Y503818D01*
Y603690D01*
X926938Y604779D01*
X926321Y605701D01*
X895842Y636180D01*
X896207Y637318D01*
X896309Y637450D01*
X901785D01*
X932035Y607201D01*
Y584372D01*
X931491Y584009D01*
X930492Y582514D01*
X930141Y580750D01*
X930492Y578986D01*
X931491Y577491D01*
X932986Y576492D01*
X934750Y576141D01*
X936514Y576492D01*
X937885Y577409D01*
X938460Y577267D01*
X939155Y576921D01*
Y569500D01*
X939372Y568411D01*
X939988Y567489D01*
X951488Y555989D01*
X952411Y555372D01*
X953500Y555155D01*
X955183D01*
X955461Y553045D01*
X956833Y549731D01*
X959016Y546886D01*
X961861Y544703D01*
X965174Y543331D01*
X968730Y542863D01*
X971270D01*
X974826Y543331D01*
X978139Y544703D01*
X980984Y546886D01*
X983167Y549731D01*
X984539Y553045D01*
X985007Y556600D01*
X984539Y560155D01*
X983167Y563469D01*
X980984Y566314D01*
X978139Y568497D01*
X977733Y568665D01*
Y569935D01*
X978139Y570103D01*
X980984Y572286D01*
X983167Y575131D01*
X984539Y578445D01*
X985007Y582000D01*
X984539Y585555D01*
X983167Y588869D01*
X980984Y591714D01*
X978139Y593897D01*
X977733Y594065D01*
Y595335D01*
X978139Y595503D01*
X980984Y597686D01*
X983167Y600531D01*
X984539Y603844D01*
X985007Y607400D01*
X984539Y610956D01*
X983167Y614269D01*
X980984Y617114D01*
X978139Y619297D01*
X974826Y620669D01*
X971270Y621138D01*
X968730D01*
X965174Y620669D01*
X961861Y619297D01*
X959016Y617114D01*
X956833Y614269D01*
X955461Y610956D01*
X954993Y607400D01*
X955461Y603844D01*
X956833Y600531D01*
X959016Y597686D01*
X961861Y595503D01*
X962267Y595335D01*
Y594065D01*
X961861Y593897D01*
X959016Y591714D01*
X956833Y588869D01*
X955461Y585555D01*
X954993Y582000D01*
X955461Y578445D01*
X956833Y575131D01*
X959016Y572286D01*
X961861Y570103D01*
X962267Y569935D01*
Y568665D01*
X961861Y568497D01*
X959016Y566314D01*
X956833Y563469D01*
X955847Y561089D01*
X954573Y560950D01*
X944845Y570678D01*
Y607000D01*
X944628Y608089D01*
X944012Y609011D01*
X906262Y646761D01*
X905339Y647378D01*
X904250Y647595D01*
X846178D01*
X839842Y653931D01*
X840328Y655105D01*
X842500D01*
X843663Y655587D01*
X844391Y656314D01*
X846388D01*
X847551Y656796D01*
X848033Y657960D01*
Y660200D01*
X849333Y661500D01*
X849815Y662663D01*
Y664432D01*
X850382Y664667D01*
X850864Y665830D01*
Y666422D01*
X875062D01*
X875148Y666337D01*
X876312Y665855D01*
X885059D01*
X885216Y665920D01*
X885383Y665887D01*
X885429Y665918D01*
X886833Y665866D01*
X887130Y665637D01*
X887175Y665591D01*
X887241Y665491D01*
X888736Y664492D01*
X890500Y664141D01*
X892264Y664492D01*
X893759Y665491D01*
X894758Y666986D01*
X895108Y668750D01*
X894758Y670514D01*
X893759Y672009D01*
X893345Y672285D01*
Y682940D01*
X893246Y683435D01*
X894417Y684060D01*
X894428Y684048D01*
X895351Y683432D01*
X896440Y683215D01*
X912327D01*
X912382Y682797D01*
X913641Y679756D01*
X915645Y677145D01*
X918256Y675141D01*
X921297Y673882D01*
X924560Y673452D01*
X927823Y673882D01*
X930864Y675141D01*
X933475Y677145D01*
X935479Y679756D01*
X936738Y682797D01*
X936793Y683215D01*
X936810D01*
X937899Y683432D01*
X938821Y684048D01*
X943762Y688988D01*
X944378Y689911D01*
X944595Y691000D01*
Y697905D01*
X954424D01*
Y693640D01*
X965084D01*
Y704300D01*
X954424D01*
Y703595D01*
X943238D01*
X942149Y703378D01*
X941226Y702762D01*
X939738Y701274D01*
X939122Y700351D01*
X938905Y699262D01*
Y692178D01*
X937345Y690618D01*
X936099Y690866D01*
X935479Y692364D01*
X933475Y694975D01*
X930864Y696979D01*
X927823Y698238D01*
X924560Y698668D01*
X921297Y698238D01*
X918256Y696979D01*
X915645Y694975D01*
X913641Y692364D01*
X912382Y689323D01*
X912327Y688905D01*
X897618D01*
X880668Y705855D01*
X881194Y707125D01*
X893720D01*
X894809Y707342D01*
X895732Y707959D01*
X911512Y723738D01*
X912128Y724661D01*
X912345Y725750D01*
Y727568D01*
X913615Y727820D01*
X913641Y727756D01*
X915645Y725145D01*
X918256Y723141D01*
X921297Y721882D01*
X924560Y721452D01*
X927823Y721882D01*
X930864Y723141D01*
X933475Y725145D01*
X935479Y727756D01*
X936738Y730797D01*
X936818Y731405D01*
X938155D01*
Y724000D01*
X938372Y722911D01*
X938988Y721989D01*
X941709Y719268D01*
X942631Y718652D01*
X943720Y718435D01*
X953916D01*
Y715950D01*
X964576D01*
Y726610D01*
X953916D01*
Y724125D01*
X944898D01*
X943845Y725178D01*
Y732762D01*
X943628Y733851D01*
X943011Y734774D01*
X941524Y736262D01*
X940601Y736878D01*
X939512Y737095D01*
X936768D01*
X936738Y737323D01*
X935479Y740364D01*
X933475Y742975D01*
X930864Y744979D01*
X927823Y746238D01*
X924560Y746668D01*
X921297Y746238D01*
X918256Y744979D01*
X915645Y742975D01*
X913641Y740364D01*
X912382Y737323D01*
X912352Y737095D01*
X910988D01*
X909899Y736878D01*
X908976Y736262D01*
X907488Y734774D01*
X906872Y733851D01*
X906655Y732762D01*
Y726928D01*
X892542Y712815D01*
X890134D01*
X889608Y714085D01*
X899511Y723988D01*
X900128Y724911D01*
X900345Y726000D01*
Y789250D01*
X900128Y790339D01*
X899511Y791262D01*
X886925Y803848D01*
X906913Y823837D01*
X907395Y825000D01*
X907395Y844500D01*
X906913Y845663D01*
X889663Y862913D01*
X888500Y863395D01*
X887337Y862913D01*
X881818Y857395D01*
X875895D01*
X875214Y857113D01*
X873163Y859163D01*
X872189Y859567D01*
X871645Y860819D01*
X872663Y861837D01*
X873145Y863000D01*
Y888568D01*
X881413Y896837D01*
X881895Y898000D01*
Y920500D01*
X881413Y921663D01*
X880250Y922145D01*
D02*
G37*
G36*
X923500Y867826D02*
X921798Y867602D01*
X920212Y866945D01*
X918850Y865900D01*
X917805Y864538D01*
X917148Y862952D01*
X916924Y861250D01*
Y820608D01*
X916924Y820608D01*
X917148Y818906D01*
X917805Y817320D01*
X918850Y815958D01*
X924708Y810100D01*
X926070Y809055D01*
X927656Y808398D01*
X929358Y808174D01*
X929358Y808174D01*
X938276D01*
X953600Y792850D01*
X954962Y791805D01*
X956548Y791148D01*
X958250Y790924D01*
X959952Y791148D01*
X961538Y791805D01*
X962900Y792850D01*
X963945Y794212D01*
X964602Y795798D01*
X964826Y797500D01*
X964602Y799202D01*
X963945Y800788D01*
X962900Y802150D01*
X945650Y819400D01*
X944288Y820445D01*
X942702Y821102D01*
X941000Y821326D01*
X941000Y821326D01*
X932082D01*
X930076Y823332D01*
Y827593D01*
X930335Y827809D01*
X932025Y827566D01*
X932241Y827241D01*
X933736Y826242D01*
X935500Y825891D01*
X937264Y826242D01*
X938759Y827241D01*
X939758Y828736D01*
X940109Y830500D01*
X940011Y830988D01*
X946274Y837252D01*
X953324Y830202D01*
X966081Y842958D01*
X949789Y859249D01*
X937033Y846493D01*
X942252Y841274D01*
X935988Y835011D01*
X935500Y835108D01*
X933736Y834758D01*
X932241Y833759D01*
X932025Y833434D01*
X930335Y833191D01*
X930076Y833407D01*
Y861250D01*
X929852Y862952D01*
X929195Y864538D01*
X928150Y865900D01*
X926788Y866945D01*
X925202Y867602D01*
X923500Y867826D01*
D02*
G37*
G36*
X982980Y846858D02*
X980440D01*
X976885Y846389D01*
X973571Y845017D01*
X970726Y842834D01*
X968543Y839989D01*
X967171Y836675D01*
X966702Y833120D01*
X967171Y829565D01*
X968543Y826251D01*
X970726Y823406D01*
X973571Y821223D01*
X973977Y821055D01*
Y819785D01*
X973571Y819617D01*
X970726Y817434D01*
X968543Y814589D01*
X967171Y811275D01*
X966702Y807720D01*
X967171Y804165D01*
X968543Y800851D01*
X970726Y798006D01*
X973571Y795823D01*
X976885Y794451D01*
X980440Y793982D01*
X982980D01*
X986535Y794451D01*
X989849Y795823D01*
X992694Y798006D01*
X994877Y800851D01*
X996249Y804165D01*
X996718Y807720D01*
X996249Y811275D01*
X994877Y814589D01*
X992694Y817434D01*
X989849Y819617D01*
X989443Y819785D01*
Y821055D01*
X989849Y821223D01*
X992694Y823406D01*
X994877Y826251D01*
X996249Y829565D01*
X996718Y833120D01*
X996249Y836675D01*
X994877Y839989D01*
X992694Y842834D01*
X989849Y845017D01*
X986535Y846389D01*
X982980Y846858D01*
D02*
G37*
G36*
X996600Y770540D02*
X966820D01*
Y743300D01*
X996600D01*
Y770540D01*
D02*
G37*
G36*
X507960Y575102D02*
X505475Y574775D01*
X503159Y573816D01*
X501170Y572290D01*
X499644Y570301D01*
X498685Y567985D01*
X498358Y565500D01*
X498685Y563015D01*
X499644Y560699D01*
X501170Y558710D01*
X503159Y557184D01*
X505475Y556225D01*
X507960Y555898D01*
X510445Y556225D01*
X512761Y557184D01*
X514750Y558710D01*
X516276Y560699D01*
X517235Y563015D01*
X517562Y565500D01*
X517235Y567985D01*
X516276Y570301D01*
X514750Y572290D01*
X512761Y573816D01*
X510445Y574775D01*
X507960Y575102D01*
D02*
G37*
G36*
X552960Y576111D02*
X550214Y575749D01*
X547655Y574689D01*
X545457Y573003D01*
X543771Y570806D01*
X542711Y568246D01*
X542349Y565500D01*
X542711Y562754D01*
X543771Y560195D01*
X545457Y557997D01*
X547655Y556311D01*
X550214Y555251D01*
X552960Y554889D01*
X555706Y555251D01*
X558265Y556311D01*
X560463Y557997D01*
X562149Y560195D01*
X563209Y562754D01*
X563571Y565500D01*
X563209Y568246D01*
X562149Y570806D01*
X560463Y573003D01*
X558265Y574689D01*
X555706Y575749D01*
X552960Y576111D01*
D02*
G37*
G36*
X984890Y519420D02*
X955110D01*
Y492180D01*
X984890D01*
Y519420D01*
D02*
G37*
%LPD*%
G36*
X880250Y898000D02*
X871500Y889250D01*
Y863000D01*
X867750Y859250D01*
X849750D01*
Y859250D01*
X843250Y865750D01*
Y885500D01*
X860000Y902250D01*
Y915750D01*
X862250Y918000D01*
Y920500D01*
X880250D01*
Y898000D01*
D02*
G37*
G36*
X681500Y914250D02*
X728750D01*
X735250Y907750D01*
Y884327D01*
X734468Y883374D01*
X733075Y880768D01*
X732217Y877941D01*
X731927Y875000D01*
Y868000D01*
X732217Y865060D01*
X733075Y862232D01*
X734468Y859626D01*
X735250Y858673D01*
Y847250D01*
X734500Y846500D01*
X711250D01*
Y856250D01*
X708785Y858715D01*
X709532Y859626D01*
X710925Y862232D01*
X711783Y865060D01*
X712073Y868000D01*
Y875000D01*
X711783Y877941D01*
X710925Y880768D01*
X709532Y883374D01*
X709500Y883413D01*
Y893500D01*
X687750D01*
X683500Y889250D01*
Y881563D01*
X683075Y880768D01*
X682217Y877941D01*
X681927Y875000D01*
Y868000D01*
X682217Y865060D01*
X683075Y862232D01*
X683500Y861436D01*
Y846250D01*
X692000Y837750D01*
X690250Y836000D01*
Y824250D01*
X699181Y815319D01*
X690061Y805617D01*
X689752Y805520D01*
X688895Y806105D01*
X680000Y815000D01*
Y816500D01*
X675000D01*
X670875Y812375D01*
X672505Y810745D01*
X672434Y810674D01*
X678750Y804358D01*
X678750Y800875D01*
X674938Y797063D01*
X674750Y797250D01*
X673587Y797732D01*
X672423Y797250D01*
X665423Y790250D01*
X663087Y787913D01*
X662605Y786750D01*
Y773000D01*
X661936Y772000D01*
X609500D01*
Y789250D01*
X614000Y793750D01*
X620020D01*
Y791770D01*
X655060D01*
Y805310D01*
X654719D01*
X654233Y806483D01*
X656312Y808562D01*
X656077Y808919D01*
X662960Y815801D01*
X655422Y823339D01*
X647884Y815801D01*
X647884Y815801D01*
X647884Y815801D01*
X646842Y815115D01*
X610273Y821477D01*
X601750Y830000D01*
X601750Y901250D01*
X602000D01*
X615250Y914500D01*
X681500D01*
Y914250D01*
D02*
G37*
G36*
X861579Y816870D02*
X861363Y816794D01*
X861172Y816667D01*
X861007Y816489D01*
X860867Y816261D01*
X860753Y815981D01*
X860664Y815651D01*
X860601Y815270D01*
X860563Y814838D01*
X860550Y814355D01*
X858010D01*
X857997Y814838D01*
X857959Y815270D01*
X857896Y815651D01*
X857807Y815981D01*
X857692Y816261D01*
X857553Y816489D01*
X857388Y816667D01*
X857197Y816794D01*
X856981Y816870D01*
X856740Y816896D01*
X861820D01*
X861579Y816870D01*
D02*
G37*
G36*
X851750Y811500D02*
X826500D01*
X824250Y809250D01*
X823750Y809750D01*
X800827D01*
X799663Y810913D01*
X798500Y811395D01*
X785895D01*
Y829318D01*
X787932Y831355D01*
X851750D01*
Y811500D01*
D02*
G37*
G36*
X855593Y807047D02*
X855383Y806825D01*
X855195Y806602D01*
X855030Y806379D01*
X854888Y806154D01*
X854767Y805928D01*
X854669Y805701D01*
X854593Y805472D01*
X854540Y805243D01*
X854509Y805012D01*
X854500Y804780D01*
X851530Y807750D01*
X851762Y807759D01*
X851993Y807790D01*
X852222Y807843D01*
X852450Y807919D01*
X852678Y808017D01*
X852904Y808138D01*
X853129Y808280D01*
X853353Y808446D01*
X853575Y808633D01*
X853797Y808843D01*
X855593Y807047D01*
D02*
G37*
G36*
X905750Y844500D02*
X905750Y825000D01*
X876500Y795750D01*
X867750Y787000D01*
X867500Y787250D01*
X859023D01*
X857762Y788512D01*
X856839Y789128D01*
X855750Y789345D01*
X803895D01*
Y806000D01*
X803549Y806835D01*
X804131Y808105D01*
X823068D01*
X823087Y808087D01*
X824250Y807605D01*
X825413Y808087D01*
X833500Y800000D01*
X854250D01*
X864750Y810500D01*
Y815345D01*
X864800D01*
Y827300D01*
X868855Y831355D01*
X870500D01*
X871663Y831837D01*
X872145Y833000D01*
Y834645D01*
X874250Y836750D01*
Y840923D01*
X875413Y842087D01*
X875895Y843250D01*
Y855750D01*
X882500D01*
X888500Y861750D01*
X905750Y844500D01*
D02*
G37*
G36*
X683645Y796355D02*
X685395Y796355D01*
X706500Y773500D01*
X707500Y768750D01*
X693250Y754500D01*
X691750Y756000D01*
X681250D01*
X664250Y773000D01*
Y786750D01*
X673587Y796087D01*
X674938Y794736D01*
X680101Y799899D01*
X683645Y796355D01*
D02*
G37*
G36*
X894655Y788072D02*
Y727178D01*
X885292Y717815D01*
X867538D01*
X867373Y717885D01*
X865752Y717903D01*
X865093Y717937D01*
X865048Y717942D01*
X865000Y717951D01*
X864843Y717917D01*
X864643Y717999D01*
X864538Y717956D01*
X864070Y718049D01*
X846070D01*
X845863Y718008D01*
X845353Y717978D01*
X845050Y718910D01*
X844899Y719088D01*
X844853Y719316D01*
X844775Y719434D01*
X844668Y719970D01*
X844775Y720506D01*
X845079Y720961D01*
X845534Y721265D01*
X846232Y721404D01*
X863908D01*
X864217Y721342D01*
X864492Y721397D01*
X864602D01*
X864701Y721333D01*
X864701Y721332D01*
X864749Y721324D01*
X864810Y721337D01*
X864864Y721307D01*
X864909Y721302D01*
X864961Y721316D01*
X865009Y721293D01*
X865098Y721289D01*
X865647Y721261D01*
X865684Y721274D01*
X865721Y721259D01*
X866090Y721257D01*
X866091Y721257D01*
X866092Y721257D01*
X866679Y721497D01*
X867256Y721733D01*
X867256Y721734D01*
X867258Y721734D01*
X867563Y722037D01*
X869328D01*
X869921Y722155D01*
X873000D01*
X874089Y722372D01*
X875012Y722989D01*
X877693Y725670D01*
X884330D01*
Y736330D01*
X873670D01*
X872845Y737258D01*
Y772250D01*
X872628Y773339D01*
X872011Y774261D01*
X861842Y784431D01*
X862328Y785605D01*
X867146D01*
X867750Y785355D01*
X868913Y785837D01*
X877663Y794587D01*
X882902Y799825D01*
X894655Y788072D01*
D02*
G37*
G36*
X874250Y855750D02*
Y843250D01*
X870500Y839500D01*
Y833000D01*
X787250D01*
X784250Y830000D01*
Y809750D01*
X798500D01*
X802250Y806000D01*
Y789345D01*
X756188D01*
X755100Y789128D01*
X754730Y788881D01*
X754177Y788512D01*
X750915Y785250D01*
X735500D01*
X729000Y791750D01*
X727500Y790250D01*
X704548Y789683D01*
X691260Y804490D01*
X707250Y821500D01*
X751500D01*
X758000Y828000D01*
Y840000D01*
X789210Y852896D01*
X827258Y852896D01*
X828039Y853000D01*
X837000D01*
Y854188D01*
X862769Y857605D01*
X867750D01*
X868704Y858000D01*
X872000D01*
X874250Y855750D01*
D02*
G37*
G36*
X861558Y776669D02*
X860748Y775683D01*
X859514Y776508D01*
X857750Y776859D01*
X855986Y776508D01*
X854620Y775595D01*
X842622D01*
X842602Y775591D01*
X842583Y775594D01*
X842560Y775590D01*
X801960Y775088D01*
X801433Y774977D01*
X800907Y774872D01*
X800892Y774862D01*
X800874Y774858D01*
X800430Y774554D01*
X799984Y774255D01*
X793376Y767648D01*
X792760Y766725D01*
X792543Y765637D01*
Y765050D01*
X792455Y764918D01*
X792221Y763740D01*
Y745740D01*
X792271Y745490D01*
X792244Y744426D01*
X791485Y743941D01*
X790835Y743507D01*
X790388Y743418D01*
X789941Y743507D01*
X789563Y743760D01*
X789310Y744138D01*
X789201Y744685D01*
X789069Y744883D01*
X788866Y745902D01*
Y763578D01*
X788928Y763887D01*
X788873Y764162D01*
Y764272D01*
X788937Y764371D01*
X788938Y764371D01*
X788946Y764419D01*
X788933Y764480D01*
X788963Y764534D01*
X788968Y764579D01*
X788954Y764631D01*
X788977Y764679D01*
X788977Y764689D01*
X789010Y765339D01*
X788998Y765372D01*
X789012Y765404D01*
X789014Y765612D01*
X789011Y765622D01*
X789015Y765631D01*
X788777Y766204D01*
X788545Y766781D01*
X788536Y766785D01*
X788533Y766794D01*
X788145Y767181D01*
Y767250D01*
X787663Y768413D01*
X786500Y768895D01*
X781558D01*
X780395Y768413D01*
X778444Y766463D01*
X778347Y766560D01*
X777194Y767037D01*
X777184Y767041D01*
X776021Y766560D01*
X774920Y767119D01*
X769903Y772136D01*
X768740Y772618D01*
X760472Y772618D01*
X759309Y772136D01*
X752837Y765663D01*
X752355Y764500D01*
X752355Y750750D01*
X752837Y749587D01*
X758368Y744055D01*
X758365Y744014D01*
X757812Y742815D01*
X754253D01*
X753165Y742598D01*
X752242Y741982D01*
X718819Y708558D01*
X717645Y709044D01*
Y716500D01*
X717163Y717663D01*
X715745Y719082D01*
X716231Y720255D01*
X724770D01*
Y732945D01*
X723349D01*
Y745302D01*
X726648Y748602D01*
X727537Y749931D01*
X727849Y751500D01*
Y757855D01*
X731220D01*
Y760530D01*
X733063D01*
X734152Y760747D01*
X735075Y761364D01*
X757367Y783655D01*
X854572D01*
X861558Y776669D01*
D02*
G37*
G36*
X852442Y747437D02*
X852301Y747252D01*
X852177Y747052D01*
X852069Y746837D01*
X851977Y746607D01*
X851903Y746362D01*
X851845Y746102D01*
X851803Y745827D01*
X851778Y745537D01*
X851770Y745232D01*
X849230D01*
X849222Y745537D01*
X849197Y745827D01*
X849155Y746102D01*
X849097Y746362D01*
X849023Y746607D01*
X848931Y746837D01*
X848823Y747052D01*
X848699Y747252D01*
X848558Y747437D01*
X848400Y747608D01*
X852600D01*
X852442Y747437D01*
D02*
G37*
G36*
X851783Y743520D02*
X851821Y743083D01*
X851884Y742697D01*
X851973Y742363D01*
X852087Y742080D01*
X852227Y741849D01*
X852392Y741669D01*
X852583Y741541D01*
X852799Y741463D01*
X853040Y741438D01*
X847960D01*
X848201Y741463D01*
X848417Y741541D01*
X848608Y741669D01*
X848773Y741849D01*
X848913Y742080D01*
X849027Y742363D01*
X849116Y742697D01*
X849179Y743083D01*
X849217Y743520D01*
X849230Y744008D01*
X851770D01*
X851783Y743520D01*
D02*
G37*
G36*
X761211Y738586D02*
X761153Y738607D01*
X761048Y738627D01*
X760895Y738644D01*
X760153Y738682D01*
X758500Y738700D01*
Y741240D01*
X761211Y741354D01*
Y738586D01*
D02*
G37*
G36*
X620020Y761500D02*
Y757770D01*
X655060D01*
Y760537D01*
X656330Y761024D01*
X668274Y747726D01*
Y735076D01*
X667698Y734500D01*
X656250D01*
X655060Y735690D01*
Y737310D01*
X653440D01*
X653000Y737750D01*
X652560Y737310D01*
X620020D01*
Y737000D01*
X601750D01*
X593250Y745500D01*
Y757000D01*
X597750Y761500D01*
X620020Y761500D01*
D02*
G37*
G36*
X845497Y733586D02*
X845439Y733607D01*
X845333Y733627D01*
X845181Y733644D01*
X844439Y733682D01*
X842786Y733700D01*
Y736240D01*
X845497Y736354D01*
Y733586D01*
D02*
G37*
G36*
X761211D02*
X761153Y733607D01*
X761048Y733627D01*
X760895Y733644D01*
X760153Y733682D01*
X758500Y733700D01*
Y736240D01*
X761211Y736354D01*
Y733586D01*
D02*
G37*
G36*
X709250Y735750D02*
Y723250D01*
X716000Y716500D01*
Y683750D01*
X716155Y683595D01*
Y675428D01*
X695072Y654345D01*
X681443D01*
X681295Y654414D01*
X680759Y654437D01*
X680585Y654458D01*
X680412Y654488D01*
X680256Y654524D01*
X680120Y654566D01*
X680000Y654611D01*
X679897Y654658D01*
X679808Y654708D01*
X679674Y654797D01*
X679360Y654859D01*
X678764Y655258D01*
X677000Y655609D01*
X675236Y655258D01*
X673741Y654259D01*
X672742Y652764D01*
X672391Y651000D01*
X672742Y649236D01*
X673741Y647741D01*
X675236Y646742D01*
X677000Y646391D01*
X678764Y646742D01*
X680259Y647741D01*
X680526Y648141D01*
X680757Y648271D01*
X680839Y648375D01*
X680863Y648400D01*
X680892Y648423D01*
X680933Y648448D01*
X680992Y648477D01*
X681075Y648507D01*
X681186Y648536D01*
X681327Y648561D01*
X681499Y648578D01*
X681750Y648586D01*
X681872Y648641D01*
X682003Y648613D01*
X682068Y648655D01*
X691746D01*
X692232Y647482D01*
X684000Y639250D01*
X671182D01*
X671009Y639509D01*
X669514Y640508D01*
X667750Y640859D01*
X665986Y640508D01*
X664491Y639509D01*
X664318Y639250D01*
X605148D01*
X605030Y639841D01*
X604554Y640554D01*
X592554Y652554D01*
X591841Y653030D01*
X591000Y653197D01*
X572910D01*
X566197Y659910D01*
Y666217D01*
X566949Y668693D01*
X567257Y671830D01*
X566949Y674967D01*
X566197Y677443D01*
Y704000D01*
X566030Y704841D01*
X565554Y705554D01*
X564841Y706030D01*
X564000Y706197D01*
Y710770D01*
X584920D01*
Y737310D01*
X599114D01*
X600587Y735837D01*
X601750Y735355D01*
X620020D01*
X620768Y735665D01*
X652560D01*
X653000Y735847D01*
X653422Y735672D01*
X653897Y734526D01*
X655087Y733337D01*
X656250Y732855D01*
X657895D01*
X659000Y731750D01*
X680500D01*
X686500Y737750D01*
X701875Y740625D01*
X709250Y735750D01*
D02*
G37*
G36*
X929727Y738131D02*
X930990Y737100D01*
X931591Y736681D01*
X932174Y736326D01*
X932737Y736036D01*
X933280Y735810D01*
X933804Y735649D01*
X934309Y735552D01*
X934794Y735520D01*
X934870Y732980D01*
X934372Y732947D01*
X933862Y732847D01*
X933340Y732680D01*
X932805Y732447D01*
X932257Y732147D01*
X931697Y731780D01*
X931125Y731347D01*
X930540Y730847D01*
X929333Y729648D01*
X924560Y734326D01*
X929067Y738744D01*
X929727Y738131D01*
D02*
G37*
G36*
X924560Y734326D02*
X919787Y729648D01*
X918580Y730847D01*
X917995Y731347D01*
X917422Y731780D01*
X916863Y732147D01*
X916315Y732447D01*
X915780Y732680D01*
X915258Y732847D01*
X914748Y732947D01*
X914250Y732980D01*
X914326Y735520D01*
X914811Y735552D01*
X915316Y735649D01*
X915840Y735810D01*
X916383Y736036D01*
X916946Y736326D01*
X917529Y736681D01*
X918130Y737100D01*
X919393Y738131D01*
X920053Y738744D01*
X924560Y734326D01*
D02*
G37*
G36*
X761211Y728586D02*
X761153Y728607D01*
X761048Y728627D01*
X760895Y728644D01*
X760153Y728682D01*
X758500Y728700D01*
Y731240D01*
X761211Y731354D01*
Y728586D01*
D02*
G37*
G36*
Y723586D02*
X761153Y723607D01*
X761048Y723627D01*
X760895Y723644D01*
X760153Y723682D01*
X758500Y723700D01*
Y726240D01*
X761211Y726354D01*
Y723586D01*
D02*
G37*
G36*
X768740Y770972D02*
X775750Y763962D01*
X777184Y765396D01*
X778444Y764136D01*
X781558Y767250D01*
X786500D01*
Y766500D01*
X787369Y765631D01*
X787367Y765423D01*
X787333Y764763D01*
X787328Y764718D01*
X787319Y764670D01*
X787353Y764513D01*
X787271Y764313D01*
X787314Y764208D01*
X787221Y763740D01*
Y745740D01*
X787455Y744562D01*
X787587Y744364D01*
X787760Y743496D01*
X788376Y742573D01*
X789299Y741957D01*
X790388Y741740D01*
X791477Y741957D01*
X792399Y742573D01*
X793107Y742643D01*
X809250Y726500D01*
X815151D01*
X815491Y725991D01*
X816986Y724992D01*
X818750Y724641D01*
X820514Y724992D01*
X821880Y725905D01*
X833250D01*
X834339Y726122D01*
X834904Y726500D01*
X837500D01*
X838750Y727750D01*
X839000Y727500D01*
X844331D01*
X844892Y727125D01*
X846070Y726891D01*
X864070D01*
X865248Y727125D01*
X865380Y727213D01*
X867000D01*
Y726159D01*
X867486Y726152D01*
X867223Y723612D01*
X866810Y723608D01*
X866099Y722902D01*
X865730Y722904D01*
X865093Y722937D01*
X865048Y722942D01*
X865000Y722951D01*
X864843Y722917D01*
X864643Y722999D01*
X864538Y722956D01*
X864070Y723049D01*
X846070D01*
X844892Y722815D01*
X843893Y722147D01*
X843225Y721148D01*
X842991Y719970D01*
X843225Y718792D01*
X843485Y718402D01*
X843788Y717470D01*
X843485Y716537D01*
X843225Y716148D01*
X842991Y714970D01*
X843225Y713792D01*
X843893Y712793D01*
Y712147D01*
X843225Y711148D01*
X842991Y709970D01*
X843225Y708792D01*
X843485Y708402D01*
X843788Y707470D01*
X843485Y706537D01*
X843225Y706148D01*
X842991Y704970D01*
X843225Y703792D01*
X843485Y703402D01*
X843788Y702470D01*
X843485Y701537D01*
X843225Y701148D01*
X842991Y699970D01*
X843225Y698792D01*
X843485Y698402D01*
X843788Y697470D01*
X843485Y696537D01*
X843225Y696148D01*
X842991Y694970D01*
X843225Y693792D01*
X843485Y693402D01*
X843788Y692470D01*
X843485Y691537D01*
X843225Y691148D01*
X842991Y689970D01*
X843225Y688792D01*
X843893Y687793D01*
X844705Y687250D01*
D01*
D01*
X844892Y687125D01*
X846070Y686891D01*
X864070D01*
X865248Y687125D01*
X865248Y687125D01*
X882125D01*
X886000Y683250D01*
Y669296D01*
X885891Y668750D01*
X885059Y667500D01*
X876312D01*
X875744Y668068D01*
X849218D01*
Y665830D01*
X848170D01*
Y662663D01*
X846388Y660881D01*
Y657960D01*
X843709D01*
X842500Y656750D01*
X838250D01*
Y660551D01*
X838379Y661200D01*
Y662470D01*
Y679200D01*
X838250Y679849D01*
D01*
X838250Y679849D01*
X838250Y713500D01*
X833000Y718750D01*
X800250Y718750D01*
X783000Y736000D01*
X782653Y736028D01*
X782629Y736148D01*
X781961Y737147D01*
Y737793D01*
X782629Y738792D01*
X782863Y739970D01*
X782629Y741148D01*
X781961Y742147D01*
X780962Y742815D01*
X779784Y743049D01*
X761784D01*
X761715Y743035D01*
X754000Y750750D01*
X754000Y764500D01*
X760472Y770972D01*
X768740Y770972D01*
D02*
G37*
G36*
X761211Y718586D02*
X761153Y718607D01*
X761048Y718627D01*
X760895Y718644D01*
X760153Y718682D01*
X758500Y718700D01*
Y721240D01*
X761211Y721354D01*
Y718586D01*
D02*
G37*
G36*
X864701Y716332D02*
X864807Y716313D01*
X864959Y716296D01*
X865701Y716258D01*
X867354Y716240D01*
Y713700D01*
X864643Y713586D01*
Y716354D01*
X864701Y716332D01*
D02*
G37*
G36*
X761211Y713586D02*
X761153Y713607D01*
X761048Y713627D01*
X760895Y713644D01*
X760153Y713682D01*
X758500Y713700D01*
Y716240D01*
X761211Y716354D01*
Y713586D01*
D02*
G37*
G36*
X864701Y711332D02*
X864807Y711313D01*
X864959Y711296D01*
X865701Y711258D01*
X867354Y711240D01*
Y708700D01*
X864643Y708586D01*
Y711354D01*
X864701Y711332D01*
D02*
G37*
G36*
X780415D02*
X780520Y711313D01*
X780673Y711296D01*
X781415Y711258D01*
X783068Y711240D01*
Y708700D01*
X780357Y708586D01*
Y711354D01*
X780415Y711332D01*
D02*
G37*
G36*
X864701Y706332D02*
X864807Y706313D01*
X864959Y706296D01*
X865701Y706258D01*
X867354Y706240D01*
Y703700D01*
X864643Y703586D01*
Y706354D01*
X864701Y706332D01*
D02*
G37*
G36*
X780415D02*
X780520Y706313D01*
X780673Y706296D01*
X781415Y706258D01*
X783068Y706240D01*
Y703700D01*
X780357Y703586D01*
Y706354D01*
X780415Y706332D01*
D02*
G37*
G36*
X761211Y693586D02*
X761153Y693607D01*
X761048Y693627D01*
X760895Y693644D01*
X760153Y693682D01*
X758500Y693700D01*
Y696240D01*
X761211Y696354D01*
Y693586D01*
D02*
G37*
G36*
X799087Y717587D02*
X800250Y717105D01*
X832318Y717105D01*
X836605Y712819D01*
X836605Y679849D01*
X836669Y679694D01*
X836636Y679528D01*
X836734Y679038D01*
Y661362D01*
X836636Y660872D01*
X836669Y660706D01*
X836605Y660551D01*
Y658828D01*
X835431Y658342D01*
X833245Y660527D01*
X833379Y661200D01*
Y679200D01*
X833145Y680378D01*
X832477Y681377D01*
X831478Y682045D01*
X830300Y682279D01*
X829122Y682045D01*
X828733Y681785D01*
X827800Y681482D01*
X826868Y681785D01*
X826478Y682045D01*
X825300Y682279D01*
X824122Y682045D01*
X823733Y681785D01*
X822800Y681482D01*
X821868Y681785D01*
X821478Y682045D01*
X820300Y682279D01*
X819122Y682045D01*
X818733Y681785D01*
X817800Y681482D01*
X816868Y681785D01*
X816478Y682045D01*
X815300Y682279D01*
X814122Y682045D01*
X813733Y681785D01*
X812800Y681482D01*
X811868Y681785D01*
X811478Y682045D01*
X810300Y682279D01*
X809122Y682045D01*
X808733Y681785D01*
X807800Y681482D01*
X806868Y681785D01*
X806478Y682045D01*
X805300Y682279D01*
X804122Y682045D01*
X803733Y681785D01*
X802800Y681482D01*
X801868Y681785D01*
X801478Y682045D01*
X800300Y682279D01*
X799503Y682121D01*
X798757Y682371D01*
X798145Y682919D01*
Y684622D01*
X802512Y688988D01*
X803128Y689911D01*
X803345Y691000D01*
Y693715D01*
X803759Y693991D01*
X804758Y695486D01*
X805108Y697250D01*
X804758Y699014D01*
X803759Y700509D01*
X803240Y700855D01*
X803625Y702125D01*
X809852D01*
X810905Y701072D01*
Y698285D01*
X810491Y698009D01*
X809492Y696514D01*
X809141Y694750D01*
X809492Y692986D01*
X810491Y691491D01*
X811986Y690492D01*
X813750Y690141D01*
X815514Y690492D01*
X817009Y691491D01*
X817365Y692024D01*
X818635D01*
X818991Y691491D01*
X820486Y690492D01*
X822250Y690141D01*
X824014Y690492D01*
X825509Y691491D01*
X826508Y692986D01*
X826859Y694750D01*
X826508Y696514D01*
X825509Y698009D01*
X825095Y698285D01*
Y707000D01*
X824878Y708089D01*
X824261Y709012D01*
X821292Y711982D01*
X820369Y712598D01*
X819280Y712815D01*
X783503D01*
X782907Y713481D01*
X782702Y714159D01*
X782863Y714970D01*
X782629Y716148D01*
X782369Y716537D01*
X782066Y717470D01*
X782369Y718402D01*
X782629Y718792D01*
X782863Y719970D01*
X782629Y721148D01*
X782369Y721537D01*
X782066Y722470D01*
X782369Y723402D01*
X782629Y723792D01*
X782863Y724970D01*
X782629Y726148D01*
X782369Y726537D01*
X782066Y727470D01*
X782369Y728402D01*
X782629Y728792D01*
X782863Y729970D01*
X782629Y731148D01*
X782369Y731537D01*
X782341Y731623D01*
X782709Y732224D01*
X784269Y732404D01*
X799087Y717587D01*
D02*
G37*
G36*
X757960Y710103D02*
X758760Y709691D01*
X758939Y708792D01*
X759199Y708402D01*
X759502Y707470D01*
X759199Y706537D01*
X758939Y706148D01*
X758705Y704970D01*
X758939Y703792D01*
X759199Y703402D01*
X759502Y702470D01*
X759199Y701537D01*
X758939Y701148D01*
X758705Y699970D01*
X758863Y699173D01*
X758613Y698427D01*
X758065Y697815D01*
X756501D01*
X755614Y698407D01*
X753851Y698758D01*
X752087Y698407D01*
X750592Y697408D01*
X749593Y695913D01*
X749242Y694149D01*
X749593Y692385D01*
X750592Y690890D01*
X752087Y689891D01*
X753851Y689541D01*
X755614Y689891D01*
X757110Y690890D01*
X757935Y692125D01*
X758316D01*
X758481Y692055D01*
X760101Y692037D01*
X760761Y692003D01*
X760806Y691998D01*
X760854Y691990D01*
X761011Y692023D01*
X761211Y691941D01*
X761316Y691984D01*
X761784Y691891D01*
X779784D01*
X780962Y692125D01*
X781961Y692793D01*
X782629Y693792D01*
X782863Y694970D01*
X782629Y696148D01*
X782369Y696537D01*
X782066Y697470D01*
X782369Y698402D01*
X782629Y698792D01*
X782863Y699970D01*
X782705Y700767D01*
X782955Y701513D01*
X783503Y702125D01*
X797375D01*
X797760Y700855D01*
X797241Y700509D01*
X796242Y699014D01*
X795891Y697250D01*
X796242Y695486D01*
X797241Y693991D01*
X797655Y693715D01*
Y692178D01*
X795176Y689699D01*
X793817Y690136D01*
X793765Y690452D01*
X793807Y690564D01*
X794758Y691986D01*
X795108Y693750D01*
X794758Y695514D01*
X793759Y697009D01*
X792264Y698008D01*
X790500Y698359D01*
X788736Y698008D01*
X787241Y697009D01*
X786242Y695514D01*
X785891Y693750D01*
X786242Y691986D01*
X787241Y690491D01*
X787455Y690348D01*
Y682919D01*
X786789Y682323D01*
X786111Y682118D01*
X785300Y682279D01*
X784915Y682203D01*
X783645Y683138D01*
Y686750D01*
X783163Y687913D01*
X782000Y688395D01*
X760000D01*
X758837Y687913D01*
X758355Y686750D01*
Y678500D01*
X758837Y677337D01*
X760587Y675587D01*
X761750Y675105D01*
X762517D01*
X762788Y674834D01*
X763549Y673879D01*
X756012Y666341D01*
X763550Y658803D01*
X765056Y660310D01*
X767151Y658214D01*
Y649752D01*
X766992Y649514D01*
X766641Y647750D01*
X766992Y645986D01*
X767991Y644491D01*
X769486Y643492D01*
X771250Y643141D01*
X773014Y643492D01*
X774509Y644491D01*
X775508Y645986D01*
X775859Y647750D01*
X775508Y649514D01*
X775349Y649752D01*
Y659912D01*
X775037Y661480D01*
X774148Y662810D01*
X771252Y665706D01*
X773549Y668003D01*
X773834Y668234D01*
X773876Y668313D01*
X773960Y668347D01*
X774006Y668459D01*
X774471Y668925D01*
X774898Y669564D01*
X775334Y670195D01*
X775341Y670227D01*
X775360Y670254D01*
X775509Y671008D01*
X775671Y671758D01*
X775673Y671846D01*
X781048Y677221D01*
X782221Y676735D01*
Y661200D01*
X782455Y660022D01*
X782455Y660022D01*
Y655819D01*
X781991Y655509D01*
X780992Y654014D01*
X780641Y652250D01*
X780992Y650486D01*
X781991Y648991D01*
X783486Y647992D01*
X785250Y647642D01*
X787014Y647992D01*
X788509Y648991D01*
X789508Y650486D01*
X789858Y652250D01*
X789508Y654014D01*
X788509Y655509D01*
X788145Y655752D01*
Y657597D01*
X789415Y658297D01*
X790300Y658121D01*
X791478Y658355D01*
X791868Y658615D01*
X792800Y658918D01*
X793733Y658615D01*
X794122Y658355D01*
X795300Y658121D01*
X796097Y658279D01*
X796843Y658029D01*
X797455Y657481D01*
Y650031D01*
X797672Y648942D01*
X798288Y648019D01*
X798695Y647613D01*
Y641530D01*
X780760Y623595D01*
X735508D01*
X734420Y623378D01*
X733497Y622761D01*
X675199Y564463D01*
X674582Y563540D01*
X674365Y562452D01*
Y498429D01*
X674217Y497940D01*
X673928Y495000D01*
Y488000D01*
X674217Y485060D01*
X674365Y484571D01*
Y479290D01*
X674582Y478201D01*
X675199Y477279D01*
X682738Y469739D01*
X683661Y469122D01*
X684750Y468905D01*
X712000D01*
X713089Y469122D01*
X714012Y469739D01*
X716012Y471739D01*
X716628Y472661D01*
X716735Y473197D01*
X716941Y473217D01*
X718418Y473665D01*
X718522Y473680D01*
X718802Y473691D01*
X719940Y472800D01*
X719954Y472744D01*
X720064Y472678D01*
X720113Y472561D01*
X727587Y465087D01*
X728579Y464675D01*
X729131Y463431D01*
X713276Y447576D01*
X628832D01*
X609826Y466582D01*
Y539776D01*
X641900Y571850D01*
X641900Y571850D01*
X642945Y573212D01*
X643602Y574798D01*
X643826Y576500D01*
Y600105D01*
X660000D01*
X661163Y600587D01*
X665413Y604837D01*
X665895Y606000D01*
X665895Y630715D01*
X667165Y631758D01*
X667750Y631642D01*
X669514Y631992D01*
X671009Y632991D01*
X671285Y633405D01*
X687750D01*
X688839Y633622D01*
X689762Y634239D01*
X692232Y636709D01*
X693405Y636223D01*
Y629785D01*
X692991Y629509D01*
X691992Y628014D01*
X691641Y626250D01*
X691992Y624486D01*
X692991Y622991D01*
X694486Y621992D01*
X695476Y621795D01*
X695894Y620417D01*
X693738Y618261D01*
X693122Y617339D01*
X692905Y616250D01*
Y611370D01*
X691991Y610759D01*
X690992Y609264D01*
X690641Y607500D01*
X690992Y605736D01*
X691991Y604241D01*
X693486Y603242D01*
X695250Y602892D01*
X697014Y603242D01*
X698223Y604050D01*
X699033Y603064D01*
X696876Y600907D01*
X696270Y600787D01*
X694775Y599788D01*
X693776Y598293D01*
X693426Y596529D01*
X693776Y594766D01*
X694775Y593270D01*
X696270Y592271D01*
X698034Y591921D01*
X699798Y592271D01*
X701293Y593270D01*
X702292Y594766D01*
X702643Y596529D01*
X702294Y598280D01*
X714388Y610374D01*
X715005Y611296D01*
X715221Y612385D01*
Y641457D01*
X722319Y648555D01*
X736400D01*
X737488Y648771D01*
X738411Y649388D01*
X744067Y655044D01*
X744684Y655967D01*
X744900Y657055D01*
Y697627D01*
X757464Y710191D01*
X757960Y710103D01*
D02*
G37*
G36*
X929837Y689987D02*
X931059Y688937D01*
X931646Y688511D01*
X932218Y688150D01*
X932773Y687855D01*
X933312Y687625D01*
X933836Y687461D01*
X934343Y687363D01*
X934835Y687330D01*
Y684790D01*
X934343Y684757D01*
X933836Y684659D01*
X933312Y684495D01*
X932773Y684265D01*
X932218Y683970D01*
X931646Y683609D01*
X931059Y683183D01*
X930456Y682691D01*
X929202Y681510D01*
Y690610D01*
X929837Y689987D01*
D02*
G37*
G36*
X919918Y681510D02*
X919283Y682133D01*
X918061Y683183D01*
X917474Y683609D01*
X916902Y683970D01*
X916347Y684265D01*
X915808Y684495D01*
X915284Y684659D01*
X914777Y684757D01*
X914285Y684790D01*
Y687330D01*
X914777Y687363D01*
X915284Y687461D01*
X915808Y687625D01*
X916347Y687855D01*
X916902Y688150D01*
X917474Y688511D01*
X918061Y688937D01*
X918664Y689429D01*
X919918Y690610D01*
Y681510D01*
D02*
G37*
G36*
X796684Y679773D02*
X793916D01*
X793938Y679831D01*
X793957Y679937D01*
X793974Y680089D01*
X794012Y680831D01*
X794030Y682484D01*
X796570D01*
X796684Y679773D01*
D02*
G37*
G36*
X791684D02*
X788916D01*
X788938Y679831D01*
X788957Y679937D01*
X788974Y680089D01*
X789012Y680831D01*
X789030Y682484D01*
X791570D01*
X791684Y679773D01*
D02*
G37*
G36*
X782000Y681500D02*
X781625Y680125D01*
X773323Y671823D01*
X770484D01*
X772796Y669511D01*
X768895Y666341D01*
X763936Y671257D01*
X764309Y670958D01*
X764717Y670765D01*
X765161Y670679D01*
X765640Y670698D01*
X766155Y670824D01*
X766705Y671056D01*
X767291Y671395D01*
X767912Y671839D01*
X768020Y671929D01*
X763199Y676750D01*
X761750D01*
X760000Y678500D01*
Y686750D01*
X782000D01*
Y681500D01*
D02*
G37*
G36*
X736752Y664721D02*
X736779Y664431D01*
X736822Y664156D01*
X736882Y663897D01*
X736958Y663652D01*
X737050Y663423D01*
X737160Y663208D01*
X737286Y663009D01*
X737428Y662825D01*
X737587Y662655D01*
X733387Y662629D01*
X733543Y662800D01*
X733683Y662987D01*
X733807Y663187D01*
X733913Y663403D01*
X734003Y663634D01*
X734076Y663879D01*
X734133Y664140D01*
X734172Y664415D01*
X734195Y664705D01*
X734202Y665010D01*
X736742Y665026D01*
X736752Y664721D01*
D02*
G37*
G36*
X821663Y660569D02*
X821643Y660463D01*
X821626Y660311D01*
X821588Y659569D01*
X821570Y657916D01*
X819030D01*
X818916Y660627D01*
X821684D01*
X821663Y660569D01*
D02*
G37*
G36*
X816663D02*
X816643Y660463D01*
X816626Y660311D01*
X816588Y659569D01*
X816570Y657916D01*
X814030D01*
X813916Y660627D01*
X816684D01*
X816663Y660569D01*
D02*
G37*
G36*
X806663D02*
X806643Y660463D01*
X806626Y660311D01*
X806588Y659569D01*
X806570Y657916D01*
X804030D01*
X803916Y660627D01*
X806684D01*
X806663Y660569D01*
D02*
G37*
G36*
X801663D02*
X801643Y660463D01*
X801626Y660311D01*
X801588Y659569D01*
X801570Y657916D01*
X799030D01*
X798916Y660627D01*
X801684D01*
X801663Y660569D01*
D02*
G37*
G36*
X811653Y660555D02*
X811625Y660436D01*
X811600Y660273D01*
X811561Y659807D01*
X811522Y658326D01*
X811520Y657841D01*
X808980Y657990D01*
X808916Y660627D01*
X811684D01*
X811653Y660555D01*
D02*
G37*
G36*
X826679Y660594D02*
X826675Y660511D01*
X826658Y658047D01*
X824118Y657784D01*
X824116Y658270D01*
X823988Y660416D01*
X823954Y660544D01*
X823916Y660627D01*
X826684D01*
X826679Y660594D01*
D02*
G37*
G36*
X678950Y653303D02*
X679151Y653191D01*
X679364Y653092D01*
X679591Y653007D01*
X679830Y652934D01*
X680083Y652875D01*
X680348Y652829D01*
X680627Y652796D01*
X681222Y652770D01*
X681700Y650230D01*
X681393Y650221D01*
X681104Y650192D01*
X680834Y650145D01*
X680583Y650079D01*
X680350Y649994D01*
X680135Y649890D01*
X679940Y649768D01*
X679762Y649626D01*
X679603Y649466D01*
X679462Y649286D01*
X678762Y653428D01*
X678950Y653303D01*
D02*
G37*
G36*
X839193Y638284D02*
X840116Y637667D01*
X841205Y637450D01*
X870587D01*
X871243Y636405D01*
X871228Y636180D01*
X870885Y634457D01*
X871240Y632675D01*
X872250Y631164D01*
X873761Y630154D01*
X875543Y629800D01*
X877325Y630154D01*
X878836Y631164D01*
X879136Y631613D01*
X885739D01*
X886337Y630493D01*
X886197Y630282D01*
X885843Y628500D01*
X886197Y626718D01*
X887207Y625207D01*
X888718Y624197D01*
X890500Y623843D01*
X891029Y623948D01*
X917405Y597572D01*
Y506678D01*
X907322Y496595D01*
X836500D01*
X835411Y496378D01*
X834489Y495761D01*
X831739Y493012D01*
X831122Y492089D01*
X830905Y491000D01*
Y484520D01*
X827980D01*
Y465480D01*
X826788Y465291D01*
X824285D01*
X818089Y471487D01*
Y585794D01*
X819359Y586225D01*
X819596Y585916D01*
X822441Y583733D01*
X825754Y582361D01*
X829310Y581893D01*
X832866Y582361D01*
X836179Y583733D01*
X839024Y585916D01*
X841207Y588761D01*
X841375Y589167D01*
X842645D01*
X842813Y588761D01*
X844996Y585916D01*
X847841Y583733D01*
X851154Y582361D01*
X854710Y581893D01*
X858266Y582361D01*
X861579Y583733D01*
X864424Y585916D01*
X865287Y587041D01*
X866490Y586633D01*
Y582010D01*
X893730D01*
Y611790D01*
X866490D01*
Y607167D01*
X865287Y606759D01*
X864424Y607884D01*
X861579Y610067D01*
X858266Y611439D01*
X857555Y611533D01*
Y612790D01*
X857338Y613879D01*
X856721Y614801D01*
X854012Y617511D01*
X853089Y618128D01*
X852000Y618345D01*
X828988D01*
X818145Y629188D01*
Y641536D01*
X819415Y642062D01*
X822335Y639142D01*
X819860Y636667D01*
X827667Y628860D01*
X836640Y637833D01*
X828833Y645640D01*
X826358Y643165D01*
X823145Y646378D01*
Y652536D01*
X824415Y653062D01*
X839193Y638284D01*
D02*
G37*
G36*
X809512Y616931D02*
X809550Y616869D01*
X809613Y616784D01*
X809816Y616548D01*
X810527Y615803D01*
X810768Y615560D01*
X807940Y612732D01*
X806530Y614000D01*
X809500Y616970D01*
X809512Y616931D01*
D02*
G37*
G36*
X855993Y607658D02*
X856030Y607164D01*
X856094Y606727D01*
X856182Y606349D01*
X856295Y606029D01*
X856434Y605767D01*
X856598Y605563D01*
X856787Y605418D01*
X857001Y605331D01*
X857241Y605301D01*
X852179D01*
X852419Y605331D01*
X852633Y605418D01*
X852822Y605563D01*
X852986Y605767D01*
X853125Y606029D01*
X853238Y606349D01*
X853326Y606727D01*
X853390Y607164D01*
X853427Y607658D01*
X853440Y608211D01*
X855980D01*
X855993Y607658D01*
D02*
G37*
G36*
X828933Y607747D02*
X828971Y607261D01*
X829034Y606839D01*
X829123Y606481D01*
X829237Y606187D01*
X829376Y605957D01*
X829541Y605791D01*
X829731Y605690D01*
X829946Y605653D01*
X830187Y605679D01*
X825124Y604504D01*
X825363Y604589D01*
X825576Y604727D01*
X825765Y604918D01*
X825928Y605163D01*
X826066Y605461D01*
X826179Y605812D01*
X826267Y606217D01*
X826330Y606674D01*
X826367Y607185D01*
X826380Y607749D01*
X828920Y608298D01*
X828933Y607747D01*
D02*
G37*
G36*
X663201Y636549D02*
X663141Y636250D01*
X663492Y634486D01*
X664250Y633352D01*
X664250Y606000D01*
X660000Y601750D01*
X605197Y601750D01*
Y637605D01*
X662145D01*
X663201Y636549D01*
D02*
G37*
G36*
X792500Y605673D02*
X792013Y605039D01*
X790641Y601726D01*
X790173Y598170D01*
Y595630D01*
X790641Y592075D01*
X792013Y588761D01*
X792500Y588126D01*
X792500Y543750D01*
X761750Y513000D01*
X758000D01*
X758750Y512250D01*
X753250Y506750D01*
Y505546D01*
X751468Y503374D01*
X750075Y500768D01*
X749217Y497940D01*
X748928Y495000D01*
Y488000D01*
X749217Y485060D01*
X750075Y482232D01*
X751468Y479626D01*
X753250Y477454D01*
Y475000D01*
X744500Y466250D01*
X728750D01*
X721276Y473724D01*
X721462Y474980D01*
X722374Y475468D01*
X724658Y477342D01*
X726532Y479626D01*
X727925Y482232D01*
X728783Y485060D01*
X729072Y488000D01*
Y495000D01*
X728783Y497940D01*
X727925Y500768D01*
X726532Y503374D01*
X724658Y505658D01*
X722374Y507532D01*
X719768Y508925D01*
X716941Y509783D01*
X714000Y510073D01*
X711059Y509783D01*
X708232Y508925D01*
X705626Y507532D01*
X703342Y505658D01*
X702135Y504187D01*
X700865D01*
X699658Y505658D01*
X697374Y507532D01*
X694768Y508925D01*
X691941Y509783D01*
X691845Y509792D01*
Y567322D01*
X735273Y610750D01*
X745045D01*
X745476Y609480D01*
X743396Y607884D01*
X741213Y605039D01*
X739841Y601726D01*
X739372Y598170D01*
Y595630D01*
X739841Y592075D01*
X741213Y588761D01*
X743396Y585916D01*
X746241Y583733D01*
X749555Y582361D01*
X753110Y581893D01*
X756665Y582361D01*
X759979Y583733D01*
X762824Y585916D01*
X765007Y588761D01*
X766379Y592075D01*
X766848Y595630D01*
Y598170D01*
X766379Y601726D01*
X765007Y605039D01*
X762824Y607884D01*
X760744Y609480D01*
X761175Y610750D01*
X792500Y610750D01*
Y605673D01*
D02*
G37*
G36*
X961246Y555463D02*
X961265Y555704D01*
X961220Y555919D01*
X961112Y556109D01*
X960941Y556274D01*
X960705Y556413D01*
X960407Y556527D01*
X960044Y556616D01*
X959619Y556679D01*
X959129Y556717D01*
X958577Y556730D01*
X959069Y559270D01*
X959630Y559282D01*
X960590Y559383D01*
X960989Y559471D01*
X961335Y559584D01*
X961627Y559722D01*
X961865Y559885D01*
X962049Y560074D01*
X962180Y560287D01*
X962257Y560526D01*
X961246Y555463D01*
D02*
G37*
G36*
X690283Y505886D02*
X690320Y505400D01*
X690384Y504972D01*
X690472Y504601D01*
X690585Y504287D01*
X690724Y504030D01*
X690888Y503830D01*
X691077Y503688D01*
X691292Y503602D01*
X691531Y503573D01*
X686469D01*
X686709Y503602D01*
X686923Y503688D01*
X687112Y503830D01*
X687276Y504030D01*
X687415Y504287D01*
X687528Y504601D01*
X687617Y504972D01*
X687680Y505400D01*
X687717Y505886D01*
X687730Y506428D01*
X690270D01*
X690283Y505886D01*
D02*
G37*
G36*
X847533Y485027D02*
X847571Y484595D01*
X847634Y484214D01*
X847723Y483884D01*
X847838Y483605D01*
X847977Y483376D01*
X848142Y483198D01*
X848333Y483071D01*
X848549Y482995D01*
X848790Y482970D01*
X843710D01*
X843951Y482995D01*
X844167Y483071D01*
X844358Y483198D01*
X844523Y483376D01*
X844662Y483605D01*
X844777Y483884D01*
X844866Y484214D01*
X844929Y484595D01*
X844967Y485027D01*
X844980Y485509D01*
X847520D01*
X847533Y485027D01*
D02*
G37*
G36*
X716292Y479398D02*
X716077Y479312D01*
X715888Y479170D01*
X715724Y478970D01*
X715585Y478713D01*
X715472Y478399D01*
X715384Y478028D01*
X715320Y477600D01*
X715283Y477114D01*
X715270Y476572D01*
X712730D01*
X712717Y477114D01*
X712680Y477600D01*
X712617Y478028D01*
X712528Y478399D01*
X712415Y478713D01*
X712276Y478970D01*
X712112Y479170D01*
X711923Y479312D01*
X711709Y479398D01*
X711469Y479427D01*
X716531D01*
X716292Y479398D01*
D02*
G37*
%LPC*%
G36*
X654000Y510000D02*
X624000D01*
Y473000D01*
X654000D01*
Y510000D01*
D02*
G37*
G36*
X893400Y571007D02*
X889844Y570539D01*
X886531Y569167D01*
X883686Y566984D01*
X881503Y564139D01*
X881335Y563733D01*
X880065D01*
X879897Y564139D01*
X877714Y566984D01*
X874869Y569167D01*
X871555Y570539D01*
X868000Y571007D01*
X864444Y570539D01*
X861131Y569167D01*
X858286Y566984D01*
X856103Y564139D01*
X854731Y560826D01*
X854262Y557270D01*
Y554730D01*
X854731Y551175D01*
X856103Y547861D01*
X858286Y545016D01*
X861131Y542833D01*
X862279Y542358D01*
X862332Y541620D01*
X862355Y540235D01*
X862372Y540196D01*
Y532803D01*
X862355Y532765D01*
X862332Y531380D01*
X862279Y530642D01*
X861131Y530167D01*
X858286Y527984D01*
X856103Y525139D01*
X854731Y521826D01*
X854262Y518270D01*
Y515730D01*
X854731Y512174D01*
X856103Y508861D01*
X858286Y506016D01*
X861131Y503833D01*
X864444Y502461D01*
X868000Y501992D01*
X871555Y502461D01*
X874869Y503833D01*
X877714Y506016D01*
X879897Y508861D01*
X880065Y509267D01*
X881335D01*
X881503Y508861D01*
X883686Y506016D01*
X886531Y503833D01*
X889844Y502461D01*
X893400Y501992D01*
X896955Y502461D01*
X900269Y503833D01*
X903114Y506016D01*
X905297Y508861D01*
X906669Y512174D01*
X907138Y515730D01*
Y518270D01*
X906669Y521826D01*
X905297Y525139D01*
X903114Y527984D01*
X900269Y530167D01*
X896955Y531539D01*
X893400Y532007D01*
X889844Y531539D01*
X886531Y530167D01*
X883686Y527984D01*
X881503Y525139D01*
X881335Y524733D01*
X880065D01*
X879897Y525139D01*
X877714Y527984D01*
X874869Y530167D01*
X873721Y530642D01*
X873668Y531380D01*
X873645Y532765D01*
X873628Y532803D01*
Y540196D01*
X873645Y540235D01*
X873668Y541620D01*
X873721Y542358D01*
X874869Y542833D01*
X877714Y545016D01*
X879897Y547861D01*
X880065Y548267D01*
X881335D01*
X881503Y547861D01*
X883686Y545016D01*
X886531Y542833D01*
X889844Y541461D01*
X893400Y540993D01*
X896955Y541461D01*
X900269Y542833D01*
X903114Y545016D01*
X905297Y547861D01*
X906669Y551175D01*
X907138Y554730D01*
Y557270D01*
X906669Y560826D01*
X905297Y564139D01*
X903114Y566984D01*
X900269Y569167D01*
X896955Y570539D01*
X893400Y571007D01*
D02*
G37*
%LPD*%
G36*
X873896Y549877D02*
X873498Y549171D01*
X873147Y548374D01*
X872843Y547487D01*
X872585Y546509D01*
X872375Y545441D01*
X872211Y544282D01*
X872023Y541693D01*
X872000Y540262D01*
X864000D01*
X863977Y541693D01*
X863789Y544282D01*
X863625Y545441D01*
X863415Y546509D01*
X863157Y547487D01*
X862853Y548374D01*
X862502Y549171D01*
X862104Y549877D01*
X861659Y550493D01*
X874341D01*
X873896Y549877D01*
D02*
G37*
G36*
X872023Y531307D02*
X872211Y528718D01*
X872375Y527559D01*
X872585Y526491D01*
X872843Y525513D01*
X873147Y524626D01*
X873498Y523829D01*
X873896Y523123D01*
X874341Y522507D01*
X861659D01*
X862104Y523123D01*
X862502Y523829D01*
X862853Y524626D01*
X863157Y525513D01*
X863415Y526491D01*
X863625Y527559D01*
X863789Y528718D01*
X863977Y531307D01*
X864000Y532738D01*
X872000D01*
X872023Y531307D01*
D02*
G37*
D12*
X855750Y786500D02*
X870000Y772250D01*
X756188Y786500D02*
X855750D01*
X733063Y763375D02*
X756188Y786500D01*
X857250Y772750D02*
X857750Y772250D01*
X842622Y772750D02*
X857250D01*
X842617Y772745D02*
X842622Y772750D01*
X801995Y772244D02*
X842617Y772745D01*
X795388Y765637D02*
X801995Y772244D01*
X848970Y768030D02*
X854750Y762250D01*
X803523Y768030D02*
X848970D01*
X800388Y764895D02*
X803523Y768030D01*
X770762Y753262D02*
X772240Y754740D01*
X769284Y751784D02*
X770762Y753262D01*
X724875Y763375D02*
X733063D01*
X698034Y596529D02*
Y598042D01*
X712377Y612385D01*
Y642635D01*
X756478Y724970D02*
X770784D01*
X731180Y699672D02*
X756478Y724970D01*
X735265Y698015D02*
X735500Y660500D01*
X742055Y657055D02*
Y698805D01*
X736400Y651400D02*
X742055Y657055D01*
X731180Y667180D02*
Y699672D01*
X703246Y639246D02*
X731180Y667180D01*
X727120Y669878D02*
Y701354D01*
X696250Y639008D02*
X727120Y669878D01*
X723060Y671560D02*
Y703035D01*
X687750Y636250D02*
X723060Y671560D01*
X719000Y674250D02*
Y704717D01*
X696250Y651500D02*
X719000Y674250D01*
X754253Y739970D02*
X770784D01*
X719000Y704717D02*
X754253Y739970D01*
X754995Y734970D02*
X770784D01*
X723060Y703035D02*
X754995Y734970D01*
X755737Y729970D02*
X770784D01*
X727120Y701354D02*
X755737Y729970D01*
X757220Y719970D02*
X770784D01*
X735265Y698015D02*
X757220Y719970D01*
X770608Y714970D02*
X770696Y714882D01*
X758220Y714970D02*
X770608D01*
X742055Y698805D02*
X758220Y714970D01*
X854982Y724882D02*
X855070Y724970D01*
X844915Y724882D02*
X854982D01*
X840300Y720267D02*
X844915Y724882D01*
X840300Y670200D02*
Y720267D01*
X785300Y738950D02*
X800790Y723460D01*
X833702D01*
X835212Y724970D01*
X855070D01*
X785300Y738950D02*
Y754740D01*
X790388Y744585D02*
Y754652D01*
X790300Y754740D02*
X790388Y754652D01*
X787098Y777152D02*
X790300Y773950D01*
X784994Y777152D02*
X787098D01*
X790300Y754740D02*
Y773950D01*
X779342Y771500D02*
X784994Y777152D01*
X775750Y771500D02*
X779342D01*
X772240Y754740D02*
X785300D01*
X767180Y751784D02*
X769284D01*
X765692Y753272D02*
X767180Y751784D01*
X765692Y753272D02*
Y761801D01*
X703246Y623746D02*
Y639246D01*
X695750Y616250D02*
X703246Y623746D01*
X695750Y608000D02*
Y616250D01*
X712377Y642635D02*
X721141Y651400D01*
X736400D01*
X696250Y626250D02*
Y639008D01*
X667750Y636250D02*
X687750D01*
X677500Y651500D02*
X696250D01*
X695250Y607500D02*
X695750Y608000D01*
X758662Y689882D02*
X770696D01*
X753851Y685071D02*
X758662Y689882D01*
X753851Y676399D02*
Y685071D01*
Y694149D02*
X754813D01*
X755634Y694970D02*
X770784D01*
X754813Y694149D02*
X755634Y694970D01*
X770784D02*
X770814Y695000D01*
X677000Y651000D02*
X677500Y651500D01*
X800500Y691000D02*
Y697250D01*
X795300Y685800D02*
X800500Y691000D01*
X795300Y670200D02*
Y685800D01*
X790300Y693550D02*
X790500Y693750D01*
X790300Y670200D02*
Y693550D01*
X770696Y689882D02*
X770784Y689970D01*
X775500Y835000D02*
X775500D01*
X774250Y833750D02*
X775500Y835000D01*
X774250Y823780D02*
Y833750D01*
X773430Y822960D02*
X774250Y823780D01*
X775500Y835000D02*
X785100Y844600D01*
X860000D01*
Y888750D02*
X870000Y898750D01*
Y910000D01*
X860000Y870000D02*
Y888750D01*
X781938Y620750D02*
X801540Y640352D01*
X735508Y620750D02*
X781938D01*
X677210Y562452D02*
X735508Y620750D01*
X784762Y615500D02*
X805600Y636338D01*
X736000Y615500D02*
X784762D01*
X689000Y568500D02*
X736000Y615500D01*
X677210Y479290D02*
Y562452D01*
X801540Y640352D02*
Y648791D01*
X800300Y650031D02*
X801540Y648791D01*
X800300Y650031D02*
Y670200D01*
X805600Y636338D02*
Y650473D01*
X805300Y650773D02*
X805600Y650473D01*
X805300Y650773D02*
Y670200D01*
X677210Y479290D02*
X684750Y471750D01*
X712000D01*
X714000Y473750D01*
Y491500D01*
X689000D02*
Y568500D01*
X813750Y694750D02*
Y702250D01*
X904250Y644750D02*
X942000Y607000D01*
X845000Y644750D02*
X904250D01*
X830388Y659362D02*
X845000Y644750D01*
X902963Y640295D02*
X934879Y608379D01*
X841205Y640295D02*
X902963D01*
X825388Y656112D02*
X841205Y640295D01*
X825388Y656112D02*
Y670112D01*
X853754Y674470D02*
X853974Y674250D01*
X872500D01*
X840512Y668750D02*
X845000D01*
X840300Y668962D02*
X840512Y668750D01*
X840300Y668962D02*
Y670200D01*
X845000Y668750D02*
X846642Y670392D01*
Y674252D01*
X848130Y675740D01*
X852484D01*
X853754Y674470D01*
X855070Y684970D02*
X870030D01*
X872500Y682500D01*
Y674250D02*
Y682500D01*
X924560Y686060D02*
X936810D01*
X941750Y691000D01*
Y699262D01*
X943238Y700750D01*
X957974D01*
X959754Y698970D01*
X910988Y734250D02*
X939512D01*
X941000Y732762D01*
Y724000D02*
Y732762D01*
Y724000D02*
X943720Y721280D01*
X959246D01*
X879254Y744970D02*
X891262D01*
X892750Y743482D01*
Y731500D02*
Y743482D01*
X881220Y719970D02*
X892750Y731500D01*
X855070Y719970D02*
X881220D01*
X875449Y784442D02*
X880118Y779772D01*
X880500Y806250D02*
X897500Y789250D01*
Y726000D02*
Y789250D01*
X886470Y714970D02*
X897500Y726000D01*
X855070Y714970D02*
X886470D01*
X826000Y794500D02*
X865750D01*
X865500Y794250D02*
X865750Y794500D01*
X877500Y806250D01*
X880500D01*
X875449Y780850D02*
Y784442D01*
X879254Y744970D02*
X880118Y779772D01*
X854750Y762250D02*
X860250D01*
X795388Y754828D02*
Y765637D01*
X795300Y754740D02*
X795388Y754828D01*
X870000Y731458D02*
Y772250D01*
X850713Y739970D02*
X855070D01*
X850500Y740182D02*
Y749750D01*
Y740182D02*
X850713Y739970D01*
X800388Y754828D02*
Y764895D01*
X800300Y754740D02*
X800388Y754828D01*
X949726Y844726D02*
X951557D01*
X935500Y830500D02*
X949726Y844726D01*
X819250Y728750D02*
X833250D01*
X818750Y729250D02*
X819250Y728750D01*
X833250D02*
X836220Y731720D01*
Y734970D01*
X859280Y812530D02*
Y821690D01*
X851500Y804750D02*
X859280Y812530D01*
X836220Y734970D02*
X855070D01*
X810450Y797750D02*
X822750D01*
X810260Y797560D02*
X810450Y797750D01*
X822750D02*
X826000Y794500D01*
X874250Y828750D02*
X884452Y838952D01*
X886266D01*
X874250Y815000D02*
Y828750D01*
X865750Y806500D02*
X874250Y815000D01*
X865750Y794500D02*
Y806500D01*
X868600Y730058D02*
X870000Y731458D01*
X855158Y730058D02*
X868600D01*
X855070Y729970D02*
X855158Y730058D01*
X873000Y725000D02*
X879000Y731000D01*
X869446Y725000D02*
X873000D01*
X869328Y724882D02*
X869446Y725000D01*
X855158Y724882D02*
X869328D01*
X855070Y724970D02*
X855158Y724882D01*
X909500Y732762D02*
X910988Y734250D01*
X909500Y725750D02*
Y732762D01*
X893720Y709970D02*
X909500Y725750D01*
X855070Y709970D02*
X893720D01*
X896440Y686060D02*
X924560D01*
X877530Y704970D02*
X896440Y686060D01*
X855070Y704970D02*
X877530D01*
X890500Y668750D02*
Y682940D01*
X883470Y689970D02*
X890500Y682940D01*
X855070Y689970D02*
X883470D01*
X934750Y580750D02*
Y581000D01*
X934879Y581129D01*
Y608379D01*
X942000Y569500D02*
Y607000D01*
Y569500D02*
X953500Y558000D01*
X825300Y670200D02*
X825388Y670112D01*
X820300Y645200D02*
Y670200D01*
Y645200D02*
X828250Y637250D01*
X953500Y558000D02*
X968600D01*
X970000Y556600D01*
X830388Y659362D02*
Y670112D01*
X830300Y670200D02*
X830388Y670112D01*
X893543Y634457D02*
X924310Y603690D01*
X875543Y634457D02*
X893543D01*
X924310Y503818D02*
Y603690D01*
X815300Y628010D02*
Y670200D01*
Y628010D02*
X827810Y615500D01*
X852000D01*
X854710Y612790D01*
Y596900D02*
Y612790D01*
X810250Y670150D02*
X810300Y670200D01*
X810250Y627000D02*
Y670150D01*
Y627000D02*
X827650Y609600D01*
Y598560D02*
Y609600D01*
Y598560D02*
X829310Y596900D01*
X910182Y489690D02*
X924310Y503818D01*
X850190Y489690D02*
X910182D01*
X846250Y485750D02*
X850190Y489690D01*
X920250Y505500D02*
Y598750D01*
X908500Y493750D02*
X920250Y505500D01*
X836500Y493750D02*
X908500D01*
X846250Y475250D02*
Y485750D01*
X846000Y475000D02*
X846250Y475250D01*
X785250Y652250D02*
Y652500D01*
X785300Y652550D01*
Y670200D01*
X833750Y475250D02*
Y491000D01*
X833500Y475000D02*
X833750Y475250D01*
Y491000D02*
X836500Y493750D01*
X890500Y628500D02*
X920250Y598750D01*
X811030Y704970D02*
X813750Y702250D01*
X770784Y704970D02*
X811030D01*
X822250Y694750D02*
Y707000D01*
X819280Y709970D02*
X822250Y707000D01*
X770784Y709970D02*
X819280D01*
X770696Y714882D02*
X770784Y714970D01*
D13*
X764820Y666341D02*
X766091D01*
X764820D02*
X771250Y659912D01*
Y647750D02*
Y659912D01*
X771573Y671823D02*
X771750Y683000D01*
X766091Y666341D02*
X771573Y671823D01*
X719250Y747000D02*
X723750Y751500D01*
X719250Y726600D02*
Y747000D01*
X723750Y762250D02*
X724875Y763375D01*
X723750Y751500D02*
Y762250D01*
D18*
X828250Y637250D02*
D03*
X839564Y625936D02*
D03*
D19*
X872246Y660280D02*
D03*
X872500Y674250D02*
D03*
X853500Y660500D02*
D03*
X853754Y674470D02*
D03*
X959500Y735250D02*
D03*
X959246Y721280D02*
D03*
X959500Y685000D02*
D03*
X959754Y698970D02*
D03*
X879254Y744970D02*
D03*
X879000Y731000D02*
D03*
X675640Y739140D02*
D03*
X675386Y725170D02*
D03*
X741680Y828040D02*
D03*
X741426Y814070D02*
D03*
X721360Y829310D02*
D03*
X721106Y815340D02*
D03*
D20*
X753851Y676399D02*
D03*
X763550Y666341D02*
D03*
X875449Y784442D02*
D03*
X865750Y794500D02*
D03*
D21*
X870000Y910000D02*
D03*
X854000D02*
D03*
X843280Y821690D02*
D03*
X859280D02*
D03*
X794260Y797560D02*
D03*
X810260D02*
D03*
X719250Y726600D02*
D03*
X703250D02*
D03*
D22*
X775750Y771500D02*
D03*
X765692Y761801D02*
D03*
X668122Y758651D02*
D03*
X678180Y768350D02*
D03*
X655422Y815801D02*
D03*
X665480Y825500D02*
D03*
D23*
X724875Y779375D02*
D03*
Y763375D02*
D03*
D24*
X568960Y508000D02*
D03*
X508960D02*
D03*
X568960Y623000D02*
D03*
X508960D02*
D03*
D25*
X637540Y730540D02*
D03*
Y747540D02*
D03*
Y764540D02*
D03*
Y781540D02*
D03*
Y798540D02*
D03*
D26*
X533400Y764540D02*
D03*
D27*
X564000Y880000D02*
D03*
X644000D02*
D03*
D28*
X676910Y605800D02*
D03*
Y685800D02*
D03*
D29*
X672993Y802012D02*
D03*
X686428Y815447D02*
D03*
X679710Y808729D02*
D03*
X706227Y795648D02*
D03*
X692792Y782213D02*
D03*
D30*
X895322Y900678D02*
D03*
X951557Y844726D02*
D03*
X942500Y783000D02*
D03*
X886266Y838952D02*
D03*
D31*
X798830Y822960D02*
D03*
X773430D02*
D03*
D32*
X860000Y870000D02*
D03*
Y844600D02*
D03*
D33*
X840300Y670200D02*
D03*
X835300D02*
D03*
X830300D02*
D03*
X825300D02*
D03*
X820300D02*
D03*
X815300D02*
D03*
X810300D02*
D03*
X805300D02*
D03*
X800300D02*
D03*
X795300D02*
D03*
X790300D02*
D03*
X785300D02*
D03*
Y754740D02*
D03*
X790300D02*
D03*
X795300D02*
D03*
X800300D02*
D03*
X805300D02*
D03*
X810300D02*
D03*
X815300D02*
D03*
X820300D02*
D03*
X825300D02*
D03*
X830300D02*
D03*
X835300D02*
D03*
X840300D02*
D03*
D34*
X770784Y684970D02*
D03*
Y689970D02*
D03*
Y694970D02*
D03*
Y699970D02*
D03*
Y704970D02*
D03*
Y709970D02*
D03*
Y714970D02*
D03*
Y719970D02*
D03*
Y724970D02*
D03*
Y729970D02*
D03*
Y734970D02*
D03*
Y739970D02*
D03*
X855070D02*
D03*
Y734970D02*
D03*
Y729970D02*
D03*
Y724970D02*
D03*
Y719970D02*
D03*
Y714970D02*
D03*
Y709970D02*
D03*
Y704970D02*
D03*
Y699970D02*
D03*
Y694970D02*
D03*
Y689970D02*
D03*
Y684970D02*
D03*
D35*
X808000Y446000D02*
D03*
X896500D02*
D03*
D36*
X833500Y475000D02*
D03*
X846000D02*
D03*
X858500D02*
D03*
X871000D02*
D03*
D67*
X537815Y671830D02*
G03*
X537815Y671830I-16635J0D01*
G01*
X486000Y694944D02*
X564000D01*
X486000Y693928D02*
X564000D01*
X486000Y695960D02*
X564000D01*
X486000Y691896D02*
X564000D01*
X486000Y690880D02*
X564000D01*
X486000Y692912D02*
X564000D01*
X486000Y700024D02*
X564000D01*
X486000Y699008D02*
X564000D01*
X486000Y701040D02*
X564000D01*
X486000Y696976D02*
X564000D01*
X486000Y697992D02*
X564000D01*
X532765Y683768D02*
X564000D01*
X533727Y682752D02*
X564000D01*
X531616Y684784D02*
X564000D01*
X537579Y674624D02*
X564000D01*
X534544Y681736D02*
X564000D01*
X486000Y688848D02*
X564000D01*
X525725Y687832D02*
X564000D01*
X486000Y689864D02*
X564000D01*
X530211Y685800D02*
X564000D01*
X528401Y686816D02*
X564000D01*
X535833Y679704D02*
X564000D01*
X536336Y678688D02*
X564000D01*
X535240Y680720D02*
X564000D01*
X537100Y676656D02*
X564000D01*
X536755Y677672D02*
X564000D01*
X486000Y687832D02*
X516635D01*
X486000Y679704D02*
X506527D01*
X486000Y678688D02*
X506025D01*
X486000Y677672D02*
X505605D01*
X486000Y676656D02*
X505260D01*
X537798Y672592D02*
X564000D01*
X537813Y671576D02*
X564000D01*
X537720Y673608D02*
X564000D01*
X537657Y669544D02*
X564000D01*
X537766Y670560D02*
X564000D01*
X537373Y675640D02*
X564000D01*
X486000Y673608D02*
X504640D01*
X486000Y672592D02*
X504562D01*
X486000Y670560D02*
X504594D01*
X486000Y671576D02*
X504547D01*
X564000Y659000D02*
X572000Y651000D01*
X591000D01*
X536555Y665480D02*
X564000D01*
X603000Y594000D02*
Y639000D01*
X591000Y651000D02*
X603000Y639000D01*
X529372Y657352D02*
X565648D01*
X527235Y656336D02*
X566664D01*
X530952Y658368D02*
X564632D01*
X486640Y594360D02*
X603000D01*
X523215Y655320D02*
X567680D01*
X492736Y588264D02*
X597264D01*
X493752Y587248D02*
X596248D01*
X494768Y586232D02*
X595232D01*
X595000Y586000D02*
X603000Y594000D01*
X495000Y586000D02*
X595000D01*
X487656Y593344D02*
X602344D01*
X488672Y592328D02*
X601328D01*
X489688Y591312D02*
X600312D01*
X490704Y590296D02*
X599296D01*
X491720Y589280D02*
X598280D01*
X537245Y667512D02*
X564000D01*
X536937Y666496D02*
X564000D01*
X537484Y668528D02*
X564000D01*
Y659000D02*
Y704000D01*
X486000Y668528D02*
X504876D01*
X486000Y667512D02*
X505115D01*
X486000Y669544D02*
X504703D01*
X486000Y665480D02*
X505805D01*
X486000Y666496D02*
X505423D01*
X535549Y663448D02*
X564000D01*
X534906Y662432D02*
X564000D01*
X536095Y664464D02*
X564000D01*
X533266Y660400D02*
X564000D01*
X534152Y661416D02*
X564000D01*
X486000Y663448D02*
X506811D01*
X486000Y662432D02*
X507454D01*
X486000Y664464D02*
X506265D01*
X532217Y659384D02*
X564000D01*
X486000Y661416D02*
X508208D01*
X486000Y647192D02*
X594808D01*
X486000Y646176D02*
X595824D01*
X486000Y648208D02*
X593792D01*
X486000Y644144D02*
X597856D01*
X486000Y645160D02*
X596840D01*
X486000Y652272D02*
X570728D01*
X486000Y651256D02*
X571744D01*
X486000Y653288D02*
X569712D01*
X486000Y649224D02*
X592776D01*
X486000Y650240D02*
X591760D01*
X486000Y637032D02*
X603000D01*
X486000Y636016D02*
X603000D01*
X486000Y638048D02*
X603000D01*
X486000Y633984D02*
X603000D01*
X486000Y635000D02*
X603000D01*
X486000Y642112D02*
X599888D01*
X486000Y641096D02*
X600904D01*
X486000Y643128D02*
X598872D01*
X486000Y639064D02*
X602936D01*
X486000Y640080D02*
X601920D01*
X486000Y685800D02*
X512149D01*
X486000Y684784D02*
X510744D01*
X486000Y683768D02*
X509595D01*
X486000Y682752D02*
X508633D01*
X486000Y681736D02*
X507816D01*
X484928Y703072D02*
X564000D01*
X485944Y702056D02*
X564000D01*
X484000Y704000D02*
X564000D01*
X486000Y686816D02*
X513959D01*
X484000Y704000D02*
X486000Y702000D01*
Y657352D02*
X512988D01*
X486000Y656336D02*
X515125D01*
X486000Y658368D02*
X511408D01*
X486000Y654304D02*
X568696D01*
X486000Y655320D02*
X519145D01*
X486000Y680720D02*
X507120D01*
X486000Y675640D02*
X504987D01*
X486000Y674624D02*
X504781D01*
X486000Y659384D02*
X510143D01*
X486000Y660400D02*
X509094D01*
X486000Y626872D02*
X603000D01*
X486000Y625856D02*
X603000D01*
X486000Y627888D02*
X603000D01*
X486000Y623824D02*
X603000D01*
X486000Y624840D02*
X603000D01*
X486000Y631952D02*
X603000D01*
X486000Y630936D02*
X603000D01*
X486000Y632968D02*
X603000D01*
X486000Y628904D02*
X603000D01*
X486000Y629920D02*
X603000D01*
X486000Y616712D02*
X603000D01*
X486000Y615696D02*
X603000D01*
X486000Y617728D02*
X603000D01*
X486000Y613664D02*
X603000D01*
X486000Y614680D02*
X603000D01*
X486000Y621792D02*
X603000D01*
X486000Y620776D02*
X603000D01*
X486000Y622808D02*
X603000D01*
X486000Y618744D02*
X603000D01*
X486000Y619760D02*
X603000D01*
X486000Y607568D02*
X603000D01*
X486000Y606552D02*
X603000D01*
X486000Y608584D02*
X603000D01*
X486000Y604520D02*
X603000D01*
X486000Y605536D02*
X603000D01*
X486000Y611632D02*
X603000D01*
X486000Y610616D02*
X603000D01*
X486000Y612648D02*
X603000D01*
X486000Y609600D02*
X603000D01*
X486000Y595000D02*
Y702000D01*
Y597408D02*
X603000D01*
X486000Y596392D02*
X603000D01*
X486000Y598424D02*
X603000D01*
X486000Y595376D02*
X603000D01*
X486000Y595000D02*
X495000Y586000D01*
X486000Y602488D02*
X603000D01*
X486000Y601472D02*
X603000D01*
X486000Y603504D02*
X603000D01*
X486000Y599440D02*
X603000D01*
X486000Y600456D02*
X603000D01*
D68*
X822798Y461702D02*
X869512D01*
X814500Y470000D02*
X822798Y461702D01*
X814500Y470000D02*
Y588350D01*
X806500Y617000D02*
X816750Y606750D01*
Y590600D02*
Y606750D01*
X814500Y588350D02*
X816750Y590600D01*
X869512Y461702D02*
X871000Y463190D01*
Y475000D01*
D69*
X716000Y441000D02*
X739000Y464000D01*
X626108Y441000D02*
X716000D01*
X603250Y463858D02*
X626108Y441000D01*
X603250Y542500D02*
X637250Y576500D01*
Y620000D01*
X603250Y463858D02*
Y542500D01*
X739000Y464000D02*
Y491500D01*
X923500Y820608D02*
Y861250D01*
Y820608D02*
X929358Y814750D01*
X941000D01*
X958250Y797500D01*
D70*
X868000Y517000D02*
Y556000D01*
D71*
X842600D02*
D03*
Y517000D02*
D03*
X880110Y596900D02*
D03*
D72*
X868000Y556000D02*
D03*
X893400D02*
D03*
X868000Y517000D02*
D03*
X893400D02*
D03*
X778510Y596900D02*
D03*
X803910D02*
D03*
X829310D02*
D03*
X854710D02*
D03*
X753110D02*
D03*
D73*
X970000Y910000D02*
D03*
Y450000D02*
D03*
X510000Y910000D02*
D03*
Y450000D02*
D03*
D74*
X722000Y871500D02*
D03*
X697000D02*
D03*
X747000D02*
D03*
X772000D02*
D03*
X797000D02*
D03*
X739000Y491500D02*
D03*
X764000D02*
D03*
X714000D02*
D03*
X689000D02*
D03*
X664000D02*
D03*
D75*
X822000Y871500D02*
D03*
X639000Y491500D02*
D03*
D76*
X551180Y671830D02*
D03*
X521180D02*
D03*
X581180D02*
D03*
D77*
X970000Y607400D02*
D03*
Y582000D02*
D03*
Y556600D02*
D03*
Y531200D02*
D03*
Y632800D02*
D03*
X981710Y833120D02*
D03*
Y807720D02*
D03*
Y782320D02*
D03*
D78*
X970000Y505800D02*
D03*
X981710Y756920D02*
D03*
D79*
X924560Y734060D02*
D03*
Y686060D02*
D03*
D80*
X755500Y809500D02*
D03*
X755250Y820250D02*
D03*
X828750Y701750D02*
D03*
X833500Y707000D02*
D03*
X828500Y712500D02*
D03*
X812000Y686750D02*
D03*
X804500Y686500D02*
D03*
X881500Y652000D02*
D03*
X904750Y654250D02*
D03*
X904250Y662750D02*
D03*
X779000Y931000D02*
D03*
X848750Y930250D02*
D03*
X946000Y871500D02*
D03*
X926000Y900750D02*
D03*
X911250Y926250D02*
D03*
X825000Y779750D02*
D03*
X839750Y779500D02*
D03*
X832000D02*
D03*
X603000Y773250D02*
D03*
Y781000D02*
D03*
X603250Y788250D02*
D03*
X642762Y661291D02*
D03*
X645000Y653250D02*
D03*
X633500Y672750D02*
D03*
X628000Y667000D02*
D03*
X627500Y679250D02*
D03*
X642750Y671000D02*
D03*
X637250Y679500D02*
D03*
X632000Y686750D02*
D03*
X654750Y654500D02*
D03*
X634250Y656750D02*
D03*
X797000Y491250D02*
D03*
X793000Y509250D02*
D03*
Y525000D02*
D03*
X802750Y501000D02*
D03*
X803000Y515250D02*
D03*
X802500Y530000D02*
D03*
X802000Y545250D02*
D03*
X802250Y558250D02*
D03*
X914000Y477250D02*
D03*
X925000Y482500D02*
D03*
X931750Y489500D02*
D03*
X940500Y499000D02*
D03*
X942500Y508000D02*
D03*
X941500Y516750D02*
D03*
X942000Y523750D02*
D03*
X947250Y532750D02*
D03*
X965500Y647500D02*
D03*
X971250Y655250D02*
D03*
X964000Y660750D02*
D03*
X959250Y653250D02*
D03*
X971750Y663000D02*
D03*
X952500Y659750D02*
D03*
X938750Y658500D02*
D03*
X951500Y647000D02*
D03*
X940000Y646500D02*
D03*
X945750Y653750D02*
D03*
X994500Y686250D02*
D03*
Y699750D02*
D03*
Y711750D02*
D03*
X994250Y722250D02*
D03*
X994500Y731750D02*
D03*
X949250Y750000D02*
D03*
X941250Y757250D02*
D03*
X922000Y757000D02*
D03*
X912500Y766250D02*
D03*
X927750Y774250D02*
D03*
X921500Y781500D02*
D03*
X935500Y795750D02*
D03*
X930000Y788750D02*
D03*
X591000Y919000D02*
D03*
X582500Y912500D02*
D03*
X572750Y901750D02*
D03*
X559000Y892250D02*
D03*
X548000Y879250D02*
D03*
X533750Y873500D02*
D03*
X521000Y864000D02*
D03*
X495750Y778250D02*
D03*
X499000Y795250D02*
D03*
X499781Y814070D02*
D03*
X498000Y823250D02*
D03*
X499750Y839750D02*
D03*
X499250Y849250D02*
D03*
X499000Y863500D02*
D03*
X570750Y453750D02*
D03*
X568750Y465500D02*
D03*
X570000Y481750D02*
D03*
X569500Y496000D02*
D03*
X637500Y452500D02*
D03*
X711750Y458500D02*
D03*
X690250Y454000D02*
D03*
X653000Y453000D02*
D03*
X669750Y453500D02*
D03*
X680000Y453750D02*
D03*
X702250D02*
D03*
X645500Y458250D02*
D03*
X661000Y454250D02*
D03*
X674000Y611000D02*
D03*
X682500Y616750D02*
D03*
X683000Y625750D02*
D03*
X674000Y620000D02*
D03*
X822500Y503250D02*
D03*
X822000Y516000D02*
D03*
X822750Y532750D02*
D03*
X822500Y548500D02*
D03*
X822000Y560750D02*
D03*
X882500Y754000D02*
D03*
X883000Y791500D02*
D03*
X890500Y783750D02*
D03*
X887750Y760000D02*
D03*
X877750D02*
D03*
X637250Y620000D02*
D03*
X618250Y619000D02*
D03*
X622500Y629750D02*
D03*
X631500Y633750D02*
D03*
X923500Y861250D02*
D03*
X958250Y797500D02*
D03*
X715250Y895250D02*
D03*
X727750D02*
D03*
X664500Y835750D02*
D03*
X630250Y829500D02*
D03*
X643750Y835000D02*
D03*
X653000Y844750D02*
D03*
X637500Y845000D02*
D03*
X624250D02*
D03*
X608250D02*
D03*
X724250Y852500D02*
D03*
X721750Y889250D02*
D03*
X762750Y804250D02*
D03*
X751000Y800750D02*
D03*
X777250Y806750D02*
D03*
X775750Y793500D02*
D03*
X763250Y793250D02*
D03*
X751250Y789750D02*
D03*
X739250D02*
D03*
X739500Y800500D02*
D03*
X771501Y754001D02*
D03*
X774750Y747000D02*
D03*
X764500Y747250D02*
D03*
X758500Y752750D02*
D03*
X757750Y761750D02*
D03*
X771250Y647750D02*
D03*
X806500Y617000D02*
D03*
X735500Y660500D02*
D03*
X661250Y737750D02*
D03*
Y745750D02*
D03*
X657000Y754500D02*
D03*
X612500Y740500D02*
D03*
X602750Y746250D02*
D03*
X603000Y758500D02*
D03*
X698034Y596529D02*
D03*
X695250Y607500D02*
D03*
X696250Y626250D02*
D03*
X753851Y694149D02*
D03*
X667750Y636250D02*
D03*
X677000Y651000D02*
D03*
X800500Y697250D02*
D03*
X790500Y693750D02*
D03*
X813750Y694750D02*
D03*
X857750Y772250D02*
D03*
X860250Y762250D02*
D03*
X850500Y749750D02*
D03*
X935500Y830500D02*
D03*
X851500Y804750D02*
D03*
X818750Y729250D02*
D03*
X890500Y668750D02*
D03*
X934750Y580750D02*
D03*
X785250Y652250D02*
D03*
X822250Y694750D02*
D03*
D81*
X875543Y634457D02*
D03*
X890500Y628500D02*
D03*
D82*
X552960Y565500D02*
D03*
D83*
X507960D02*
D03*
M02*
