G04*
G04 #@! TF.GenerationSoftware,Altium Limited,Altium Designer,19.1.8 (144)*
G04*
G04 Layer_Color=8388736*
%FSLAX44Y44*%
%MOMM*%
G71*
G01*
G75*
G04:AMPARAMS|DCode=37|XSize=1.0032mm|YSize=1.1682mm|CornerRadius=0mm|HoleSize=0mm|Usage=FLASHONLY|Rotation=315.000|XOffset=0mm|YOffset=0mm|HoleType=Round|Shape=Rectangle|*
%AMROTATEDRECTD37*
4,1,4,-0.7677,-0.0583,0.0583,0.7677,0.7677,0.0583,-0.0583,-0.7677,-0.7677,-0.0583,0.0*
%
%ADD37ROTATEDRECTD37*%

%ADD38R,0.9652X0.9652*%
%ADD39P,1.3650X4X360.0*%
%ADD40R,1.0032X1.1682*%
%ADD41P,1.3650X4X270.0*%
%ADD42R,1.1682X1.0032*%
%ADD43R,2.5032X2.7032*%
%ADD44R,3.4032X1.2532*%
%ADD45R,10.2032X10.6532*%
%ADD46R,4.2032X2.2032*%
%ADD47R,2.2032X4.2032*%
G04:AMPARAMS|DCode=48|XSize=0.6532mm|YSize=1.2032mm|CornerRadius=0mm|HoleSize=0mm|Usage=FLASHONLY|Rotation=45.000|XOffset=0mm|YOffset=0mm|HoleType=Round|Shape=Rectangle|*
%AMROTATEDRECTD48*
4,1,4,0.1945,-0.6563,-0.6563,0.1945,-0.1945,0.6563,0.6563,-0.1945,0.1945,-0.6563,0.0*
%
%ADD48ROTATEDRECTD48*%

G04:AMPARAMS|DCode=49|XSize=2.2032mm|YSize=1.7032mm|CornerRadius=0mm|HoleSize=0mm|Usage=FLASHONLY|Rotation=135.000|XOffset=0mm|YOffset=0mm|HoleType=Round|Shape=Rectangle|*
%AMROTATEDRECTD49*
4,1,4,1.3811,-0.1768,0.1768,-1.3811,-1.3811,0.1768,-0.1768,1.3811,1.3811,-0.1768,0.0*
%
%ADD49ROTATEDRECTD49*%

%ADD50R,1.7272X1.4732*%
%ADD51R,1.4732X1.7272*%
%ADD52O,0.5032X2.3032*%
%ADD53O,2.3032X0.5032*%
%ADD54R,2.3032X3.2032*%
%ADD55R,1.0032X1.8032*%
%ADD56R,1.7272X1.9812*%
%ADD57O,1.7272X1.9812*%
%ADD58C,5.0000*%
%ADD59O,2.0032X2.7032*%
%ADD60R,2.0032X2.7032*%
%ADD61C,2.2032*%
%ADD62O,1.9812X1.7272*%
%ADD63R,1.9812X1.7272*%
%ADD64C,1.5032*%
%ADD65C,2.0032*%
%ADD66C,1.8032*%
D37*
X828250Y637250D02*
D03*
X839564Y625936D02*
D03*
D38*
X872246Y660280D02*
D03*
X872500Y674250D02*
D03*
X853500Y660500D02*
D03*
X853754Y674470D02*
D03*
X959500Y735250D02*
D03*
X959246Y721280D02*
D03*
X959500Y685000D02*
D03*
X959754Y698970D02*
D03*
X879254Y744970D02*
D03*
X879000Y731000D02*
D03*
X675640Y739140D02*
D03*
X675386Y725170D02*
D03*
X741680Y828040D02*
D03*
X741426Y814070D02*
D03*
X721360Y829310D02*
D03*
X721106Y815340D02*
D03*
D39*
X753851Y676399D02*
D03*
X763550Y666341D02*
D03*
X875449Y784442D02*
D03*
X865750Y794500D02*
D03*
D40*
X870000Y910000D02*
D03*
X854000D02*
D03*
X843280Y821690D02*
D03*
X859280D02*
D03*
X794260Y797560D02*
D03*
X810260D02*
D03*
X719250Y726600D02*
D03*
X703250D02*
D03*
D41*
X775750Y771500D02*
D03*
X765692Y761801D02*
D03*
X668122Y758651D02*
D03*
X678180Y768350D02*
D03*
X655422Y815801D02*
D03*
X665480Y825500D02*
D03*
D42*
X724875Y779375D02*
D03*
Y763375D02*
D03*
D43*
X568960Y508000D02*
D03*
X508960D02*
D03*
X568960Y623000D02*
D03*
X508960D02*
D03*
D44*
X637540Y730540D02*
D03*
Y747540D02*
D03*
Y764540D02*
D03*
Y781540D02*
D03*
Y798540D02*
D03*
D45*
X533400Y764540D02*
D03*
D46*
X564000Y880000D02*
D03*
X644000D02*
D03*
D47*
X676910Y605800D02*
D03*
Y685800D02*
D03*
D48*
X672993Y802012D02*
D03*
X686428Y815447D02*
D03*
X679710Y808729D02*
D03*
X706227Y795648D02*
D03*
X692792Y782213D02*
D03*
D49*
X895322Y900678D02*
D03*
X951557Y844726D02*
D03*
X942500Y783000D02*
D03*
X886266Y838952D02*
D03*
D50*
X798830Y822960D02*
D03*
X773430D02*
D03*
D51*
X860000Y870000D02*
D03*
Y844600D02*
D03*
D52*
X840300Y670200D02*
D03*
X835300D02*
D03*
X830300D02*
D03*
X825300D02*
D03*
X820300D02*
D03*
X815300D02*
D03*
X810300D02*
D03*
X805300D02*
D03*
X800300D02*
D03*
X795300D02*
D03*
X790300D02*
D03*
X785300D02*
D03*
Y754740D02*
D03*
X790300D02*
D03*
X795300D02*
D03*
X800300D02*
D03*
X805300D02*
D03*
X810300D02*
D03*
X815300D02*
D03*
X820300D02*
D03*
X825300D02*
D03*
X830300D02*
D03*
X835300D02*
D03*
X840300D02*
D03*
D53*
X770784Y684970D02*
D03*
Y689970D02*
D03*
Y694970D02*
D03*
Y699970D02*
D03*
Y704970D02*
D03*
Y709970D02*
D03*
Y714970D02*
D03*
Y719970D02*
D03*
Y724970D02*
D03*
Y729970D02*
D03*
Y734970D02*
D03*
Y739970D02*
D03*
X855070D02*
D03*
Y734970D02*
D03*
Y729970D02*
D03*
Y724970D02*
D03*
Y719970D02*
D03*
Y714970D02*
D03*
Y709970D02*
D03*
Y704970D02*
D03*
Y699970D02*
D03*
Y694970D02*
D03*
Y689970D02*
D03*
Y684970D02*
D03*
D54*
X808000Y446000D02*
D03*
X896500D02*
D03*
D55*
X833500Y475000D02*
D03*
X846000D02*
D03*
X858500D02*
D03*
X871000D02*
D03*
D56*
X842600Y556000D02*
D03*
Y517000D02*
D03*
X880110Y596900D02*
D03*
D57*
X868000Y556000D02*
D03*
X893400D02*
D03*
X868000Y517000D02*
D03*
X893400D02*
D03*
X778510Y596900D02*
D03*
X803910D02*
D03*
X829310D02*
D03*
X854710D02*
D03*
X753110D02*
D03*
D58*
X970000Y910000D02*
D03*
Y450000D02*
D03*
X510000Y910000D02*
D03*
Y450000D02*
D03*
D59*
X722000Y871500D02*
D03*
X697000D02*
D03*
X747000D02*
D03*
X772000D02*
D03*
X797000D02*
D03*
X739000Y491500D02*
D03*
X764000D02*
D03*
X714000D02*
D03*
X689000D02*
D03*
X664000D02*
D03*
D60*
X822000Y871500D02*
D03*
X639000Y491500D02*
D03*
D61*
X551180Y671830D02*
D03*
X521180D02*
D03*
X581180D02*
D03*
D62*
X970000Y607400D02*
D03*
Y582000D02*
D03*
Y556600D02*
D03*
Y531200D02*
D03*
Y632800D02*
D03*
X981710Y833120D02*
D03*
Y807720D02*
D03*
Y782320D02*
D03*
D63*
X970000Y505800D02*
D03*
X981710Y756920D02*
D03*
D64*
X924560Y734060D02*
D03*
Y686060D02*
D03*
D65*
X552960Y565500D02*
D03*
D66*
X507960D02*
D03*
M02*
