G04*
G04 #@! TF.GenerationSoftware,Altium Limited,Altium Designer,19.1.8 (144)*
G04*
G04 Layer_Color=8421504*
%FSLAX44Y44*%
%MOMM*%
G71*
G01*
G75*
G04:AMPARAMS|DCode=18|XSize=0.8mm|YSize=0.965mm|CornerRadius=0mm|HoleSize=0mm|Usage=FLASHONLY|Rotation=315.000|XOffset=0mm|YOffset=0mm|HoleType=Round|Shape=Rectangle|*
%AMROTATEDRECTD18*
4,1,4,-0.6240,-0.0583,0.0583,0.6240,0.6240,0.0583,-0.0583,-0.6240,-0.6240,-0.0583,0.0*
%
%ADD18ROTATEDRECTD18*%

%ADD19R,0.7620X0.7620*%
%ADD20P,1.0776X4X360.0*%
%ADD21R,0.8000X0.9650*%
%ADD22P,1.0776X4X270.0*%
%ADD23R,0.9650X0.8000*%
%ADD24R,2.3000X2.5000*%
%ADD25R,3.2000X1.0500*%
%ADD26R,10.0000X10.4500*%
%ADD27R,4.0000X2.0000*%
%ADD28R,2.0000X4.0000*%
G04:AMPARAMS|DCode=29|XSize=0.45mm|YSize=1mm|CornerRadius=0mm|HoleSize=0mm|Usage=FLASHONLY|Rotation=45.000|XOffset=0mm|YOffset=0mm|HoleType=Round|Shape=Rectangle|*
%AMROTATEDRECTD29*
4,1,4,0.1945,-0.5127,-0.5127,0.1945,-0.1945,0.5127,0.5127,-0.1945,0.1945,-0.5127,0.0*
%
%ADD29ROTATEDRECTD29*%

G04:AMPARAMS|DCode=30|XSize=2mm|YSize=1.5mm|CornerRadius=0mm|HoleSize=0mm|Usage=FLASHONLY|Rotation=135.000|XOffset=0mm|YOffset=0mm|HoleType=Round|Shape=Rectangle|*
%AMROTATEDRECTD30*
4,1,4,1.2374,-0.1768,0.1768,-1.2374,-1.2374,0.1768,-0.1768,1.2374,1.2374,-0.1768,0.0*
%
%ADD30ROTATEDRECTD30*%

%ADD31R,1.5240X1.2700*%
%ADD32R,1.2700X1.5240*%
%ADD33O,0.3000X2.1000*%
%ADD34O,2.1000X0.3000*%
%ADD35R,2.1000X3.0000*%
%ADD36R,0.8000X1.6000*%
D18*
X828250Y637250D02*
D03*
X839564Y625936D02*
D03*
D19*
X872246Y660280D02*
D03*
X872500Y674250D02*
D03*
X853500Y660500D02*
D03*
X853754Y674470D02*
D03*
X959500Y735250D02*
D03*
X959246Y721280D02*
D03*
X959500Y685000D02*
D03*
X959754Y698970D02*
D03*
X879254Y744970D02*
D03*
X879000Y731000D02*
D03*
X675640Y739140D02*
D03*
X675386Y725170D02*
D03*
X741680Y828040D02*
D03*
X741426Y814070D02*
D03*
X721360Y829310D02*
D03*
X721106Y815340D02*
D03*
D20*
X753851Y676399D02*
D03*
X763550Y666341D02*
D03*
X875449Y784442D02*
D03*
X865750Y794500D02*
D03*
D21*
X870000Y910000D02*
D03*
X854000D02*
D03*
X843280Y821690D02*
D03*
X859280D02*
D03*
X794260Y797560D02*
D03*
X810260D02*
D03*
X719250Y726600D02*
D03*
X703250D02*
D03*
D22*
X775750Y771500D02*
D03*
X765692Y761801D02*
D03*
X668122Y758651D02*
D03*
X678180Y768350D02*
D03*
X655422Y815801D02*
D03*
X665480Y825500D02*
D03*
D23*
X724875Y779375D02*
D03*
Y763375D02*
D03*
D24*
X568960Y508000D02*
D03*
X508960D02*
D03*
X568960Y623000D02*
D03*
X508960D02*
D03*
D25*
X637540Y730540D02*
D03*
Y747540D02*
D03*
Y764540D02*
D03*
Y781540D02*
D03*
Y798540D02*
D03*
D26*
X533400Y764540D02*
D03*
D27*
X564000Y880000D02*
D03*
X644000D02*
D03*
D28*
X676910Y605800D02*
D03*
Y685800D02*
D03*
D29*
X672993Y802012D02*
D03*
X686428Y815447D02*
D03*
X679710Y808729D02*
D03*
X706227Y795648D02*
D03*
X692792Y782213D02*
D03*
D30*
X895322Y900678D02*
D03*
X951557Y844726D02*
D03*
X942500Y783000D02*
D03*
X886266Y838952D02*
D03*
D31*
X798830Y822960D02*
D03*
X773430D02*
D03*
D32*
X860000Y870000D02*
D03*
Y844600D02*
D03*
D33*
X840300Y670200D02*
D03*
X835300D02*
D03*
X830300D02*
D03*
X825300D02*
D03*
X820300D02*
D03*
X815300D02*
D03*
X810300D02*
D03*
X805300D02*
D03*
X800300D02*
D03*
X795300D02*
D03*
X790300D02*
D03*
X785300D02*
D03*
Y754740D02*
D03*
X790300D02*
D03*
X795300D02*
D03*
X800300D02*
D03*
X805300D02*
D03*
X810300D02*
D03*
X815300D02*
D03*
X820300D02*
D03*
X825300D02*
D03*
X830300D02*
D03*
X835300D02*
D03*
X840300D02*
D03*
D34*
X770784Y684970D02*
D03*
Y689970D02*
D03*
Y694970D02*
D03*
Y699970D02*
D03*
Y704970D02*
D03*
Y709970D02*
D03*
Y714970D02*
D03*
Y719970D02*
D03*
Y724970D02*
D03*
Y729970D02*
D03*
Y734970D02*
D03*
Y739970D02*
D03*
X855070D02*
D03*
Y734970D02*
D03*
Y729970D02*
D03*
Y724970D02*
D03*
Y719970D02*
D03*
Y714970D02*
D03*
Y709970D02*
D03*
Y704970D02*
D03*
Y699970D02*
D03*
Y694970D02*
D03*
Y689970D02*
D03*
Y684970D02*
D03*
D35*
X808000Y446000D02*
D03*
X896500D02*
D03*
D36*
X833500Y475000D02*
D03*
X846000D02*
D03*
X858500D02*
D03*
X871000D02*
D03*
M02*
